0
SECTION
2
ENTITIES
0
LINE
8
верхний 1
10
-7069.859
20
-64.055
11
-7069.859
21
-3095.551
0
LINE
8
верхний 1
10
-7286.394
20
-3961.693
11
-7286.394
21
-9670.354
0
LINE
8
верхний 1
10
-7069.859
20
-3961.693
11
-7069.859
21
-9670.354
0
LINE
8
верхний 1
10
-7286.394
20
-64.055
11
-7286.394
21
-3095.551
0
LINE
8
верхний 1
10
-7286.394
20
-64.055
11
-6813.953
21
-64.055
0
LINE
8
верхний 1
10
-7286.394
20
-3095.551
11
-6813.953
21
-3095.551
0
LINE
8
верхний 1
10
-7286.394
20
-3961.693
11
-6813.953
21
-3961.693
0
LINE
8
верхний 1
10
-7286.394
20
-5339.645
11
-6813.953
21
-5339.645
0
LINE
8
верхний 1
10
-7286.394
20
-6323.897
11
-6813.953
21
-6323.897
0
LINE
8
верхний 1
10
-7286.394
20
-7308.149
11
-6813.953
21
-7308.149
0
LINE
8
верхний 1
10
-7286.394
20
-8686.102
11
-6813.953
21
-8686.102
0
LINE
8
верхний 1
10
-7286.394
20
-1624.685
11
-6813.953
21
-1624.685
0
LINE
8
верхний 1
10
-6813.953
20
-9670.354
11
-6813.953
21
1589.488
0
LINE
8
верхний 1
10
-6813.953
20
1589.488
11
8737.228
21
1589.488
0
LINE
8
верхний 1
10
8737.228
20
1589.488
11
8737.228
21
-9670.354
0
LINE
8
верхний 1
10
8737.228
20
-9670.354
11
-6813.953
21
-9670.354
0
LINE
8
верхний 1
10
-7286.394
20
-9670.354
11
-6813.953
21
-9670.354
0
LINE
8
верхний 1
10
-6813.953
20
1018.622
11
-4136.788
21
1018.622
0
LINE
8
верхний 1
10
-4136.788
20
1018.622
11
-4136.788
21
1589.488
0
LINE
8
верхний 1
10
2123.055
20
-7505.000
11
2123.055
21
-9670.354
0
LINE
8
верхний 1
10
1453.764
20
-9670.354
11
1453.764
21
-7505.000
0
LINE
8
верхний 1
10
1453.764
20
-7505.000
11
8737.228
21
-7505.000
0
LINE
8
верхний 1
10
1729.354
20
-7505.000
11
1729.354
21
-8489.252
0
LINE
8
верхний 1
10
3028.567
20
-7505.000
11
3028.567
21
-9670.354
0
LINE
8
верхний 1
10
3619.118
20
-7505.000
11
3619.118
21
-9670.354
0
LINE
8
верхний 1
10
4012.819
20
-7505.000
11
4012.819
21
-9670.354
0
LINE
8
верхний 1
10
6768.724
20
-8095.551
11
6768.724
21
-9670.354
0
LINE
8
верхний 1
10
7359.275
20
-8095.551
11
7359.275
21
-8863.267
0
LINE
8
верхний 1
10
8028.567
20
-8095.551
11
8028.567
21
-8863.267
0
LINE
8
верхний 1
10
6768.724
20
-8863.267
11
8737.228
21
-8863.267
0
LINE
8
верхний 1
10
4012.819
20
-9079.803
11
8737.228
21
-9079.803
0
LINE
8
верхний 1
10
7556.126
20
-8863.267
11
7556.126
21
-9079.803
0
LINE
8
верхний 1
10
6768.724
20
-8292.401
11
8737.228
21
-8292.401
0
LINE
8
верхний 1
10
4012.819
20
-8095.551
11
8737.228
21
-8095.551
0
LINE
8
верхний 1
10
1453.764
20
-8489.252
11
4012.819
21
-8489.252
0
LINE
8
верхний 1
10
1453.764
20
-8292.401
11
4012.819
21
-8292.401
0
LINE
8
верхний 1
10
1453.764
20
-8683.740
11
4012.819
21
-8683.740
0
LINE
8
верхний 1
10
1453.764
20
-8882.953
11
4012.819
21
-8882.953
0
LINE
8
верхний 1
10
1453.764
20
-9079.803
11
4012.819
21
-9079.803
0
LINE
8
верхний 1
10
1453.764
20
-9276.653
11
4012.819
21
-9276.653
0
LINE
8
верхний 1
10
1453.764
20
-9473.504
11
4012.819
21
-9473.504
0
LINE
8
верхний 1
10
1453.764
20
-8095.551
11
4012.819
21
-8095.551
0
LINE
8
верхний 1
10
1453.764
20
-7898.701
11
4012.819
21
-7898.701
0
LINE
8
верхний 1
10
1453.764
20
-7701.850
11
4012.819
21
-7701.850
0
LINE
8
верхний 1
10
6965.575
20
-8292.401
11
6965.575
21
-8863.267
0
LINE
8
верхний 1
10
7162.425
20
-8292.401
11
7162.425
21
-8863.267
0
LINE
8
нижний 1
10
7378.960
20
-9867.204
11
8067.937
21
-9867.204
0
LINE
8
нижний 1
10
5036.441
20
-9867.204
11
5725.417
21
-9867.204
0
LINE
8
нижний 1
10
1512.819
20
-8686.102
11
2024.630
21
-8686.102
0
LINE
8
нижний 1
10
1512.819
20
-8882.953
11
2024.630
21
-8882.953
0
LINE
8
нижний 1
10
1512.819
20
-9079.803
11
2024.630
21
-9079.803
0
LINE
8
нижний 1
10
1512.819
20
-9473.504
11
2024.630
21
-9473.504
0
LINE
8
нижний 1
10
1512.819
20
-9670.354
11
2024.630
21
-9670.354
0
LINE
8
нижний 1
10
1493.134
20
-8449.882
11
1670.299
21
-8449.882
0
LINE
8
нижний 1
10
1788.409
20
-8449.882
11
1965.575
21
-8449.882
0
LINE
8
нижний 1
10
2300.220
20
-8481.378
11
2477.386
21
-8481.378
0
LINE
8
нижний 1
10
3146.677
20
-8449.882
11
3323.842
21
-8449.882
0
LINE
8
нижний 1
10
3697.858
20
-8465.630
11
3875.022
21
-8465.630
0
LINE
8
нижний 1
10
-7601.355
20
-9867.204
11
-7601.355
21
1786.339
0
LINE
8
нижний 1
10
-7601.355
20
1786.339
11
8934.079
21
1786.339
0
LINE
8
нижний 1
10
8934.079
20
1786.339
11
8934.079
21
-9867.204
0
LINE
8
нижний 1
10
8934.079
20
-9867.204
11
-7601.355
21
-9867.204
0
LINE
8
нижний 1
10
2260.850
20
-8686.102
11
2772.661
21
-8686.102
0
LINE
8
нижний 1
10
3677.386
20
-8686.102
11
3913.606
21
-8686.102
0
LINE
8
нижний 1
10
7044.315
20
-7977.441
11
7339.590
21
-7977.441
0
LINE
8
нижний 1
10
2260.850
20
-9670.354
11
2772.661
21
-9670.354
0
LINE
8
нижний 1
10
4212.031
20
-8390.827
11
4526.992
21
-8390.827
0
LINE
8
описания
10
5449.800
20
-7898.700
11
5449.800
21
-7667.600
0
LINE
8
описания
10
5449.800
20
-7667.600
11
5521.700
21
-7667.600
0
LINE
8
описания
10
5521.700
20
-7667.600
11
5537.100
21
-7672.700
0
LINE
8
описания
10
5537.100
20
-7672.700
11
5547.300
21
-7683.000
0
LINE
8
описания
10
5547.300
20
-7683.000
11
5552.500
21
-7698.400
0
LINE
8
описания
10
5552.500
20
-7698.400
11
5552.500
21
-7867.900
0
LINE
8
описания
10
5552.500
20
-7867.900
11
5547.300
21
-7883.300
0
LINE
8
описания
10
5547.300
20
-7883.300
11
5537.100
21
-7893.600
0
LINE
8
описания
10
5537.100
20
-7893.600
11
5521.700
21
-7898.700
0
LINE
8
описания
10
5521.700
20
-7898.700
11
5449.800
21
-7898.700
0
LINE
8
описания
10
5676.500
20
-7667.600
11
5645.700
21
-7688.100
0
LINE
8
описания
10
5645.700
20
-7688.100
11
5620.000
21
-7724.100
0
LINE
8
описания
10
5620.000
20
-7724.100
11
5609.700
21
-7760.000
0
LINE
8
описания
10
5609.700
20
-7760.000
11
5609.700
21
-7862.700
0
LINE
8
описания
10
5609.700
20
-7862.700
11
5614.900
21
-7878.100
0
LINE
8
описания
10
5614.900
20
-7878.100
11
5630.300
21
-7893.600
0
LINE
8
описания
10
5630.300
20
-7893.600
11
5645.700
21
-7898.700
0
LINE
8
описания
10
5645.700
20
-7898.700
11
5676.500
21
-7898.700
0
LINE
8
описания
10
5676.500
20
-7898.700
11
5691.900
21
-7893.600
0
LINE
8
описания
10
5691.900
20
-7893.600
11
5707.300
21
-7878.100
0
LINE
8
описания
10
5707.300
20
-7878.100
11
5712.500
21
-7862.700
0
LINE
8
описания
10
5712.500
20
-7862.700
11
5712.500
21
-7806.300
0
LINE
8
описания
10
5712.500
20
-7806.300
11
5707.300
21
-7790.800
0
LINE
8
описания
10
5707.300
20
-7790.800
11
5691.900
21
-7775.400
0
LINE
8
описания
10
5691.900
20
-7775.400
11
5676.500
21
-7770.300
0
LINE
8
описания
10
5676.500
20
-7770.300
11
5609.700
21
-7770.300
0
LINE
8
описания
10
5769.700
20
-7667.600
11
5826.200
21
-7667.600
0
LINE
8
описания
10
5826.200
20
-7667.600
11
5841.600
21
-7672.700
0
LINE
8
описания
10
5841.600
20
-7672.700
11
5857.000
21
-7688.100
0
LINE
8
описания
10
5857.000
20
-7688.100
11
5862.200
21
-7703.500
0
LINE
8
описания
10
5862.200
20
-7703.500
11
5862.200
21
-7734.400
0
LINE
8
описания
10
5862.200
20
-7734.400
11
5857.000
21
-7749.800
0
LINE
8
описания
10
5857.000
20
-7749.800
11
5841.600
21
-7765.200
0
LINE
8
описания
10
5841.600
20
-7765.200
11
5826.200
21
-7770.300
0
LINE
8
описания
10
5800.500
20
-7770.300
11
5821.100
21
-7770.300
0
LINE
8
описания
10
5821.100
20
-7770.300
11
5841.600
21
-7775.400
0
LINE
8
описания
10
5841.600
20
-7775.400
11
5857.000
21
-7790.800
0
LINE
8
описания
10
5857.000
20
-7790.800
11
5862.200
21
-7806.300
0
LINE
8
описания
10
5862.200
20
-7806.300
11
5862.200
21
-7862.700
0
LINE
8
описания
10
5862.200
20
-7862.700
11
5857.000
21
-7878.100
0
LINE
8
описания
10
5857.000
20
-7878.100
11
5841.600
21
-7893.600
0
LINE
8
описания
10
5841.600
20
-7893.600
11
5826.200
21
-7898.700
0
LINE
8
описания
10
5826.200
20
-7898.700
11
5769.700
21
-7898.700
0
LINE
8
описания
10
5970.800
20
-7667.600
11
5955.400
21
-7667.600
0
LINE
8
описания
10
5955.400
20
-7667.600
11
5940.000
21
-7672.700
0
LINE
8
описания
10
5940.000
20
-7672.700
11
5929.700
21
-7683.000
0
LINE
8
описания
10
5929.700
20
-7683.000
11
5924.600
21
-7698.400
0
LINE
8
описания
10
5924.600
20
-7698.400
11
5924.600
21
-7739.500
0
LINE
8
описания
10
5924.600
20
-7739.500
11
5929.700
21
-7754.900
0
LINE
8
описания
10
5929.700
20
-7754.900
11
5940.000
21
-7765.200
0
LINE
8
описания
10
5940.000
20
-7765.200
11
5955.400
21
-7770.300
0
LINE
8
описания
10
5955.400
20
-7770.300
11
5986.200
21
-7770.300
0
LINE
8
описания
10
5986.200
20
-7770.300
11
6001.600
21
-7765.200
0
LINE
8
описания
10
6001.600
20
-7765.200
11
6011.900
21
-7754.900
0
LINE
8
описания
10
6011.900
20
-7754.900
11
6017.000
21
-7739.500
0
LINE
8
описания
10
6017.000
20
-7739.500
11
6017.000
21
-7698.400
0
LINE
8
описания
10
6017.000
20
-7698.400
11
6011.900
21
-7683.000
0
LINE
8
описания
10
6011.900
20
-7683.000
11
6001.600
21
-7672.700
0
LINE
8
описания
10
6001.600
20
-7672.700
11
5986.200
21
-7667.600
0
LINE
8
описания
10
5986.200
20
-7667.600
11
5970.800
21
-7667.600
0
LINE
8
описания
10
5955.400
20
-7770.300
11
5940.000
21
-7775.400
0
LINE
8
описания
10
5940.000
20
-7775.400
11
5924.600
21
-7790.800
0
LINE
8
описания
10
5924.600
20
-7790.800
11
5919.400
21
-7806.300
0
LINE
8
описания
10
5919.400
20
-7806.300
11
5919.400
21
-7862.700
0
LINE
8
описания
10
5919.400
20
-7862.700
11
5924.600
21
-7878.100
0
LINE
8
описания
10
5924.600
20
-7878.100
11
5940.000
21
-7893.600
0
LINE
8
описания
10
5940.000
20
-7893.600
11
5955.400
21
-7898.700
0
LINE
8
описания
10
5955.400
20
-7898.700
11
5986.200
21
-7898.700
0
LINE
8
описания
10
5986.200
20
-7898.700
11
6001.600
21
-7893.600
0
LINE
8
описания
10
6001.600
20
-7893.600
11
6017.000
21
-7878.100
0
LINE
8
описания
10
6017.000
20
-7878.100
11
6022.100
21
-7862.700
0
LINE
8
описания
10
6022.100
20
-7862.700
11
6022.100
21
-7806.300
0
LINE
8
описания
10
6022.100
20
-7806.300
11
6017.000
21
-7790.800
0
LINE
8
описания
10
6017.000
20
-7790.800
11
6001.600
21
-7775.400
0
LINE
8
описания
10
6001.600
20
-7775.400
11
5986.200
21
-7770.300
0
LINE
8
описания
10
6120.500
20
-7667.600
11
6079.400
21
-7847.300
0
LINE
8
описания
10
6079.400
20
-7847.300
11
6187.200
21
-7847.300
0
LINE
8
описания
10
6156.400
20
-7796.000
11
6156.400
21
-7898.700
0
LINE
8
описания
10
6244.500
20
-7796.000
11
6336.900
21
-7796.000
0
LINE
8
описания
10
6394.200
20
-7719.000
11
6445.500
21
-7667.600
0
LINE
8
описания
10
6445.500
20
-7667.600
11
6445.500
21
-7898.700
0
LINE
8
описания
10
6502.800
20
-7796.000
11
6595.200
21
-7796.000
0
LINE
8
описания
10
6703.900
20
-7667.600
11
6683.300
21
-7667.600
0
LINE
8
описания
10
6683.300
20
-7667.600
11
6667.900
21
-7672.700
0
LINE
8
описания
10
6667.900
20
-7672.700
11
6657.600
21
-7683.000
0
LINE
8
описания
10
6657.600
20
-7683.000
11
6652.500
21
-7698.400
0
LINE
8
описания
10
6652.500
20
-7698.400
11
6652.500
21
-7867.900
0
LINE
8
описания
10
6652.500
20
-7867.900
11
6657.600
21
-7883.300
0
LINE
8
описания
10
6657.600
20
-7883.300
11
6667.900
21
-7893.600
0
LINE
8
описания
10
6667.900
20
-7893.600
11
6683.300
21
-7898.700
0
LINE
8
описания
10
6683.300
20
-7898.700
11
6724.400
21
-7898.700
0
LINE
8
описания
10
6724.400
20
-7898.700
11
6739.800
21
-7893.600
0
LINE
8
описания
10
6739.800
20
-7893.600
11
6750.100
21
-7883.300
0
LINE
8
описания
10
6750.100
20
-7883.300
11
6755.200
21
-7867.900
0
LINE
8
описания
10
6755.200
20
-7867.900
11
6755.200
21
-7698.400
0
LINE
8
описания
10
6755.200
20
-7698.400
11
6750.100
21
-7683.000
0
LINE
8
описания
10
6750.100
20
-7683.000
11
6739.800
21
-7672.700
0
LINE
8
описания
10
6739.800
20
-7672.700
11
6724.400
21
-7667.600
0
LINE
8
описания
10
6724.400
20
-7667.600
11
6703.900
21
-7667.600
0
LINE
8
описания
10
6812.500
20
-7719.000
11
6863.800
21
-7667.600
0
LINE
8
описания
10
6863.800
20
-7667.600
11
6863.800
21
-7898.700
0
LINE
8
описания
10
4360.800
20
-8872.200
11
4336.100
21
-8872.200
0
LINE
8
описания
10
4336.100
20
-8872.200
11
4330.000
21
-8869.700
0
LINE
8
описания
10
4330.000
20
-8869.700
11
4325.800
21
-8864.500
0
LINE
8
описания
10
4325.800
20
-8864.500
11
4323.800
21
-8856.800
0
LINE
8
описания
10
4323.800
20
-8856.800
11
4323.800
21
-8772.100
0
LINE
8
описания
10
4323.800
20
-8772.100
11
4325.800
21
-8764.400
0
LINE
8
описания
10
4325.800
20
-8764.400
11
4330.000
21
-8759.300
0
LINE
8
описания
10
4330.000
20
-8759.300
11
4336.100
21
-8756.700
0
LINE
8
описания
10
4336.100
20
-8756.700
11
4360.800
21
-8756.700
0
LINE
8
описания
10
4387.300
20
-8872.200
11
4424.200
21
-8795.200
0
LINE
8
описания
10
4424.200
20
-8872.200
11
4387.300
21
-8795.200
0
LINE
8
описания
10
4450.700
20
-8833.700
11
4487.700
21
-8833.700
0
LINE
8
описания
10
4487.700
20
-8833.700
11
4487.700
21
-8810.600
0
LINE
8
описания
10
4487.700
20
-8810.600
11
4485.600
21
-8802.900
0
LINE
8
описания
10
4485.600
20
-8802.900
11
4481.500
21
-8797.800
0
LINE
8
описания
10
4481.500
20
-8797.800
11
4475.400
21
-8795.200
0
LINE
8
описания
10
4475.400
20
-8795.200
11
4463.000
21
-8795.200
0
LINE
8
описания
10
4463.000
20
-8795.200
11
4456.900
21
-8797.800
0
LINE
8
описания
10
4456.900
20
-8797.800
11
4452.800
21
-8802.900
0
LINE
8
описания
10
4452.800
20
-8802.900
11
4450.700
21
-8810.600
0
LINE
8
описания
10
4450.700
20
-8810.600
11
4450.700
21
-8856.800
0
LINE
8
описания
10
4450.700
20
-8856.800
11
4452.800
21
-8864.500
0
LINE
8
описания
10
4452.800
20
-8864.500
11
4456.900
21
-8869.700
0
LINE
8
описания
10
4456.900
20
-8869.700
11
4463.000
21
-8872.200
0
LINE
8
описания
10
4463.000
20
-8872.200
11
4485.600
21
-8872.200
0
LINE
8
описания
10
4514.200
20
-8872.200
11
4514.200
21
-8795.200
0
LINE
8
описания
10
4514.200
20
-8795.200
11
4534.700
21
-8833.700
0
LINE
8
описания
10
4534.700
20
-8833.700
11
4555.300
21
-8795.200
0
LINE
8
описания
10
4555.300
20
-8795.200
11
4555.300
21
-8872.200
0
LINE
8
описания
10
4618.700
20
-8795.200
11
4594.100
21
-8795.200
0
LINE
8
описания
10
4594.100
20
-8795.200
11
4587.900
21
-8797.800
0
LINE
8
описания
10
4587.900
20
-8797.800
11
4583.800
21
-8802.900
0
LINE
8
описания
10
4583.800
20
-8802.900
11
4581.700
21
-8810.600
0
LINE
8
описания
10
4581.700
20
-8810.600
11
4581.700
21
-8856.800
0
LINE
8
описания
10
4581.700
20
-8856.800
11
4583.800
21
-8864.500
0
LINE
8
описания
10
4583.800
20
-8864.500
11
4587.900
21
-8869.700
0
LINE
8
описания
10
4587.900
20
-8869.700
11
4594.100
21
-8872.200
0
LINE
8
описания
10
4594.100
20
-8872.200
11
4606.400
21
-8872.200
0
LINE
8
описания
10
4606.400
20
-8872.200
11
4612.500
21
-8869.700
0
LINE
8
описания
10
4612.500
20
-8869.700
11
4616.700
21
-8864.500
0
LINE
8
описания
10
4616.700
20
-8864.500
11
4618.700
21
-8856.800
0
LINE
8
описания
10
4618.700
20
-8856.800
11
4618.700
21
-8795.200
0
LINE
8
описания
10
4618.700
20
-8856.800
11
4618.700
21
-8862.000
0
LINE
8
описания
10
4618.700
20
-8862.000
11
4622.800
21
-8869.700
0
LINE
8
описания
10
4622.800
20
-8869.700
11
4626.900
21
-8872.200
0
LINE
8
описания
10
4689.400
20
-8795.200
11
4714.000
21
-8795.200
0
LINE
8
описания
10
4714.000
20
-8795.200
11
4720.200
21
-8797.800
0
LINE
8
описания
10
4720.200
20
-8797.800
11
4724.300
21
-8802.900
0
LINE
8
описания
10
4724.300
20
-8802.900
11
4726.300
21
-8810.600
0
LINE
8
описания
10
4726.300
20
-8810.600
11
4726.300
21
-8856.800
0
LINE
8
описания
10
4726.300
20
-8856.800
11
4724.300
21
-8864.500
0
LINE
8
описания
10
4724.300
20
-8864.500
11
4720.200
21
-8869.700
0
LINE
8
описания
10
4720.200
20
-8869.700
11
4714.000
21
-8872.200
0
LINE
8
описания
10
4714.000
20
-8872.200
11
4689.400
21
-8872.200
0
LINE
8
описания
10
4707.800
20
-8833.700
11
4726.300
21
-8833.700
0
LINE
8
описания
10
4752.800
20
-8872.200
11
4769.200
21
-8795.200
0
LINE
8
описания
10
4769.200
20
-8795.200
11
4789.800
21
-8795.200
0
LINE
8
описания
10
4789.800
20
-8795.200
11
4789.800
21
-8872.200
0
LINE
8
описания
10
4816.300
20
-8833.700
11
4853.200
21
-8833.700
0
LINE
8
описания
10
4853.200
20
-8833.700
11
4853.200
21
-8810.600
0
LINE
8
описания
10
4853.200
20
-8810.600
11
4851.200
21
-8802.900
0
LINE
8
описания
10
4851.200
20
-8802.900
11
4847.100
21
-8797.800
0
LINE
8
описания
10
4847.100
20
-8797.800
11
4840.900
21
-8795.200
0
LINE
8
описания
10
4840.900
20
-8795.200
11
4828.600
21
-8795.200
0
LINE
8
описания
10
4828.600
20
-8795.200
11
4822.400
21
-8797.800
0
LINE
8
описания
10
4822.400
20
-8797.800
11
4818.300
21
-8802.900
0
LINE
8
описания
10
4818.300
20
-8802.900
11
4816.300
21
-8810.600
0
LINE
8
описания
10
4816.300
20
-8810.600
11
4816.300
21
-8856.800
0
LINE
8
описания
10
4816.300
20
-8856.800
11
4818.300
21
-8864.500
0
LINE
8
описания
10
4818.300
20
-8864.500
11
4822.400
21
-8869.700
0
LINE
8
описания
10
4822.400
20
-8869.700
11
4828.600
21
-8872.200
0
LINE
8
описания
10
4828.600
20
-8872.200
11
4851.200
21
-8872.200
0
LINE
8
описания
10
4879.700
20
-8872.200
11
4879.700
21
-8795.200
0
LINE
8
описания
10
4879.700
20
-8838.900
11
4916.700
21
-8795.200
0
LINE
8
описания
10
4890.000
20
-8828.600
11
4916.700
21
-8872.200
0
LINE
8
описания
10
4943.200
20
-8872.200
11
4943.200
21
-8795.200
0
LINE
8
описания
10
4943.200
20
-8795.200
11
4984.300
21
-8795.200
0
LINE
8
описания
10
4984.300
20
-8795.200
11
4990.400
21
-8797.800
0
LINE
8
описания
10
4990.400
20
-8797.800
11
4994.500
21
-8802.900
0
LINE
8
описания
10
4994.500
20
-8802.900
11
4996.600
21
-8810.600
0
LINE
8
описания
10
4996.600
20
-8810.600
11
4996.600
21
-8872.200
0
LINE
8
описания
10
4969.900
20
-8795.200
11
4969.900
21
-8872.200
0
LINE
8
описания
10
5023.100
20
-8900.500
11
5023.100
21
-8795.200
0
LINE
8
описания
10
5023.100
20
-8795.200
11
5047.700
21
-8795.200
0
LINE
8
описания
10
5047.700
20
-8795.200
11
5053.900
21
-8797.800
0
LINE
8
описания
10
5053.900
20
-8797.800
11
5058.000
21
-8802.900
0
LINE
8
описания
10
5058.000
20
-8802.900
11
5060.100
21
-8810.600
0
LINE
8
описания
10
5060.100
20
-8810.600
11
5060.100
21
-8856.800
0
LINE
8
описания
10
5060.100
20
-8856.800
11
5058.000
21
-8864.500
0
LINE
8
описания
10
5058.000
20
-8864.500
11
5053.900
21
-8869.700
0
LINE
8
описания
10
5053.900
20
-8869.700
11
5047.700
21
-8872.200
0
LINE
8
описания
10
5047.700
20
-8872.200
11
5023.100
21
-8872.200
0
LINE
8
описания
10
5086.500
20
-8795.200
11
5086.500
21
-8856.800
0
LINE
8
описания
10
5086.500
20
-8856.800
11
5088.600
21
-8864.500
0
LINE
8
описания
10
5088.600
20
-8864.500
11
5092.700
21
-8869.700
0
LINE
8
описания
10
5092.700
20
-8869.700
11
5098.900
21
-8872.200
0
LINE
8
описания
10
5098.900
20
-8872.200
11
5123.500
21
-8872.200
0
LINE
8
описания
10
5123.500
20
-8872.200
11
5123.500
21
-8795.200
0
LINE
8
описания
10
5150.000
20
-8795.200
11
5150.000
21
-8818.300
0
LINE
8
описания
10
5150.000
20
-8818.300
11
5152.100
21
-8826.000
0
LINE
8
описания
10
5152.100
20
-8826.000
11
5156.200
21
-8831.100
0
LINE
8
описания
10
5156.200
20
-8831.100
11
5162.300
21
-8833.700
0
LINE
8
описания
10
5162.300
20
-8833.700
11
5187.000
21
-8833.700
0
LINE
8
описания
10
5187.000
20
-8795.200
11
5187.000
21
-8872.200
0
LINE
8
описания
10
5213.500
20
-8833.700
11
5250.400
21
-8833.700
0
LINE
8
описания
10
5250.400
20
-8833.700
11
5250.400
21
-8810.600
0
LINE
8
описания
10
5250.400
20
-8810.600
11
5248.400
21
-8802.900
0
LINE
8
описания
10
5248.400
20
-8802.900
11
5244.300
21
-8797.800
0
LINE
8
описания
10
5244.300
20
-8797.800
11
5238.100
21
-8795.200
0
LINE
8
описания
10
5238.100
20
-8795.200
11
5225.800
21
-8795.200
0
LINE
8
описания
10
5225.800
20
-8795.200
11
5219.600
21
-8797.800
0
LINE
8
описания
10
5219.600
20
-8797.800
11
5215.500
21
-8802.900
0
LINE
8
описания
10
5215.500
20
-8802.900
11
5213.500
21
-8810.600
0
LINE
8
описания
10
5213.500
20
-8810.600
11
5213.500
21
-8856.800
0
LINE
8
описания
10
5213.500
20
-8856.800
11
5215.500
21
-8864.500
0
LINE
8
описания
10
5215.500
20
-8864.500
11
5219.600
21
-8869.700
0
LINE
8
описания
10
5219.600
20
-8869.700
11
5225.800
21
-8872.200
0
LINE
8
описания
10
5225.800
20
-8872.200
11
5248.400
21
-8872.200
0
LINE
8
описания
10
5309.800
20
-8795.200
11
5289.200
21
-8795.200
0
LINE
8
описания
10
5289.200
20
-8795.200
11
5283.100
21
-8797.800
0
LINE
8
описания
10
5283.100
20
-8797.800
11
5279.000
21
-8802.900
0
LINE
8
описания
10
5279.000
20
-8802.900
11
5276.900
21
-8810.600
0
LINE
8
описания
10
5276.900
20
-8810.600
11
5276.900
21
-8856.800
0
LINE
8
описания
10
5276.900
20
-8856.800
11
5279.000
21
-8864.500
0
LINE
8
описания
10
5279.000
20
-8864.500
11
5283.100
21
-8869.700
0
LINE
8
описания
10
5283.100
20
-8869.700
11
5289.200
21
-8872.200
0
LINE
8
описания
10
5289.200
20
-8872.200
11
5309.800
21
-8872.200
0
LINE
8
описания
10
5336.300
20
-8872.200
11
5336.300
21
-8795.200
0
LINE
8
описания
10
5336.300
20
-8838.900
11
5373.200
21
-8795.200
0
LINE
8
описания
10
5346.500
20
-8828.600
11
5373.200
21
-8872.200
0
LINE
8
описания
10
5436.700
20
-8795.200
11
5412.100
21
-8795.200
0
LINE
8
описания
10
5412.100
20
-8795.200
11
5405.900
21
-8797.800
0
LINE
8
описания
10
5405.900
20
-8797.800
11
5401.800
21
-8802.900
0
LINE
8
описания
10
5401.800
20
-8802.900
11
5399.700
21
-8810.600
0
LINE
8
описания
10
5399.700
20
-8810.600
11
5399.700
21
-8856.800
0
LINE
8
описания
10
5399.700
20
-8856.800
11
5401.800
21
-8864.500
0
LINE
8
описания
10
5401.800
20
-8864.500
11
5405.900
21
-8869.700
0
LINE
8
описания
10
5405.900
20
-8869.700
11
5412.100
21
-8872.200
0
LINE
8
описания
10
5412.100
20
-8872.200
11
5424.400
21
-8872.200
0
LINE
8
описания
10
5424.400
20
-8872.200
11
5430.500
21
-8869.700
0
LINE
8
описания
10
5430.500
20
-8869.700
11
5434.700
21
-8864.500
0
LINE
8
описания
10
5434.700
20
-8864.500
11
5436.700
21
-8856.800
0
LINE
8
описания
10
5436.700
20
-8856.800
11
5436.700
21
-8795.200
0
LINE
8
описания
10
5436.700
20
-8856.800
11
5436.700
21
-8862.000
0
LINE
8
описания
10
5436.700
20
-8862.000
11
5440.800
21
-8869.700
0
LINE
8
описания
10
5440.800
20
-8869.700
11
5444.900
21
-8872.200
0
LINE
8
описания
10
5508.400
20
-8872.200
11
5508.400
21
-8795.200
0
LINE
8
описания
10
5508.400
20
-8795.200
11
5483.700
21
-8795.200
0
LINE
8
описания
10
5483.700
20
-8795.200
11
5477.600
21
-8797.800
0
LINE
8
описания
10
5477.600
20
-8797.800
11
5473.500
21
-8802.900
0
LINE
8
описания
10
5473.500
20
-8802.900
11
5471.400
21
-8810.600
0
LINE
8
описания
10
5471.400
20
-8810.600
11
5471.400
21
-8820.900
0
LINE
8
описания
10
5471.400
20
-8820.900
11
5473.500
21
-8828.600
0
LINE
8
описания
10
5473.500
20
-8828.600
11
5477.600
21
-8833.700
0
LINE
8
описания
10
5477.600
20
-8833.700
11
5483.700
21
-8836.300
0
LINE
8
описания
10
5483.700
20
-8836.300
11
5508.400
21
-8836.300
0
LINE
8
описания
10
5489.900
20
-8836.300
11
5471.400
21
-8872.200
0
LINE
8
описания
10
5570.800
20
-8872.200
11
5570.800
21
-8795.200
0
LINE
8
описания
10
5570.800
20
-8795.200
11
5595.500
21
-8795.200
0
LINE
8
описания
10
5595.500
20
-8795.200
11
5601.600
21
-8797.800
0
LINE
8
описания
10
5601.600
20
-8797.800
11
5605.700
21
-8802.900
0
LINE
8
описания
10
5605.700
20
-8802.900
11
5607.800
21
-8810.600
0
LINE
8
описания
10
5607.800
20
-8810.600
11
5607.800
21
-8872.200
0
LINE
8
описания
10
5634.300
20
-8900.500
11
5634.300
21
-8795.200
0
LINE
8
описания
10
5634.300
20
-8795.200
11
5658.900
21
-8795.200
0
LINE
8
описания
10
5658.900
20
-8795.200
11
5665.100
21
-8797.800
0
LINE
8
описания
10
5665.100
20
-8797.800
11
5669.200
21
-8802.900
0
LINE
8
описания
10
5669.200
20
-8802.900
11
5671.200
21
-8810.600
0
LINE
8
описания
10
5671.200
20
-8810.600
11
5671.200
21
-8856.800
0
LINE
8
описания
10
5671.200
20
-8856.800
11
5669.200
21
-8864.500
0
LINE
8
описания
10
5669.200
20
-8864.500
11
5665.100
21
-8869.700
0
LINE
8
описания
10
5665.100
20
-8869.700
11
5658.900
21
-8872.200
0
LINE
8
описания
10
5658.900
20
-8872.200
11
5634.300
21
-8872.200
0
LINE
8
описания
10
5697.700
20
-8795.200
11
5697.700
21
-8856.800
0
LINE
8
описания
10
5697.700
20
-8856.800
11
5699.800
21
-8864.500
0
LINE
8
описания
10
5699.800
20
-8864.500
11
5703.900
21
-8869.700
0
LINE
8
описания
10
5703.900
20
-8869.700
11
5710.100
21
-8872.200
0
LINE
8
описания
10
5710.100
20
-8872.200
11
5734.700
21
-8872.200
0
LINE
8
описания
10
5734.700
20
-8872.200
11
5734.700
21
-8795.200
0
LINE
8
описания
10
5761.200
20
-8795.200
11
5761.200
21
-8872.200
0
LINE
8
описания
10
5761.200
20
-8833.700
11
5796.100
21
-8833.700
0
LINE
8
описания
10
5796.100
20
-8795.200
11
5796.100
21
-8872.200
0
LINE
8
описания
10
5822.600
20
-8795.200
11
5822.600
21
-8856.800
0
LINE
8
описания
10
5822.600
20
-8856.800
11
5824.600
21
-8864.500
0
LINE
8
описания
10
5824.600
20
-8864.500
11
5828.800
21
-8869.700
0
LINE
8
описания
10
5828.800
20
-8869.700
11
5834.900
21
-8872.200
0
LINE
8
описания
10
5834.900
20
-8872.200
11
5859.600
21
-8872.200
0
LINE
8
описания
10
5859.600
20
-8872.200
11
5859.600
21
-8795.200
0
LINE
8
описания
10
5859.600
20
-8872.200
11
5865.700
21
-8872.200
0
LINE
8
описания
10
5865.700
20
-8872.200
11
5865.700
21
-8885.100
0
LINE
8
описания
10
5892.200
20
-8795.200
11
5892.200
21
-8856.800
0
LINE
8
описания
10
5892.200
20
-8856.800
11
5894.300
21
-8864.500
0
LINE
8
описания
10
5894.300
20
-8864.500
11
5898.400
21
-8869.700
0
LINE
8
описания
10
5898.400
20
-8869.700
11
5904.500
21
-8872.200
0
LINE
8
описания
10
5904.500
20
-8872.200
11
5929.200
21
-8872.200
0
LINE
8
описания
10
5929.200
20
-8872.200
11
5929.200
21
-8795.200
0
LINE
8
описания
10
5955.700
20
-8872.200
11
5955.700
21
-8795.200
0
LINE
8
описания
10
5955.700
20
-8795.200
11
5980.300
21
-8795.200
0
LINE
8
описания
10
5980.300
20
-8795.200
11
5986.500
21
-8797.800
0
LINE
8
описания
10
5986.500
20
-8797.800
11
5990.600
21
-8802.900
0
LINE
8
описания
10
5990.600
20
-8802.900
11
5992.600
21
-8810.600
0
LINE
8
описания
10
5992.600
20
-8810.600
11
5992.600
21
-8872.200
0
LINE
8
описания
10
6019.100
20
-8795.200
11
6019.100
21
-8856.800
0
LINE
8
описания
10
6019.100
20
-8856.800
11
6021.200
21
-8864.500
0
LINE
8
описания
10
6021.200
20
-8864.500
11
6025.300
21
-8869.700
0
LINE
8
описания
10
6025.300
20
-8869.700
11
6031.500
21
-8872.200
0
LINE
8
описания
10
6031.500
20
-8872.200
11
6056.100
21
-8872.200
0
LINE
8
описания
10
6056.100
20
-8872.200
11
6056.100
21
-8795.200
0
LINE
8
описания
10
6119.600
20
-8795.200
11
6094.900
21
-8795.200
0
LINE
8
описания
10
6094.900
20
-8795.200
11
6088.800
21
-8797.800
0
LINE
8
описания
10
6088.800
20
-8797.800
11
6084.600
21
-8802.900
0
LINE
8
описания
10
6084.600
20
-8802.900
11
6082.600
21
-8810.600
0
LINE
8
описания
10
6082.600
20
-8810.600
11
6082.600
21
-8856.800
0
LINE
8
описания
10
6082.600
20
-8856.800
11
6084.600
21
-8864.500
0
LINE
8
описания
10
6084.600
20
-8864.500
11
6088.800
21
-8869.700
0
LINE
8
описания
10
6088.800
20
-8869.700
11
6094.900
21
-8872.200
0
LINE
8
описания
10
6094.900
20
-8872.200
11
6107.200
21
-8872.200
0
LINE
8
описания
10
6107.200
20
-8872.200
11
6113.400
21
-8869.700
0
LINE
8
описания
10
6113.400
20
-8869.700
11
6117.500
21
-8864.500
0
LINE
8
описания
10
6117.500
20
-8864.500
11
6119.600
21
-8856.800
0
LINE
8
описания
10
6119.600
20
-8856.800
11
6119.600
21
-8795.200
0
LINE
8
описания
10
6119.600
20
-8856.800
11
6119.600
21
-8862.000
0
LINE
8
описания
10
6119.600
20
-8862.000
11
6123.700
21
-8869.700
0
LINE
8
описания
10
6123.700
20
-8869.700
11
6127.800
21
-8872.200
0
LINE
8
описания
10
6154.300
20
-8872.200
11
6170.700
21
-8795.200
0
LINE
8
описания
10
6170.700
20
-8795.200
11
6191.200
21
-8795.200
0
LINE
8
описания
10
6191.200
20
-8795.200
11
6191.200
21
-8872.200
0
LINE
8
описания
10
6217.700
20
-8795.200
11
6217.700
21
-8872.200
0
LINE
8
описания
10
6217.700
20
-8872.200
11
6242.400
21
-8872.200
0
LINE
8
описания
10
6242.400
20
-8872.200
11
6248.500
21
-8869.700
0
LINE
8
описания
10
6248.500
20
-8869.700
11
6252.600
21
-8864.500
0
LINE
8
описания
10
6252.600
20
-8864.500
11
6254.700
21
-8856.800
0
LINE
8
описания
10
6254.700
20
-8856.800
11
6254.700
21
-8846.600
0
LINE
8
описания
10
6254.700
20
-8846.600
11
6252.600
21
-8838.900
0
LINE
8
описания
10
6252.600
20
-8838.900
11
6248.500
21
-8833.700
0
LINE
8
описания
10
6248.500
20
-8833.700
11
6242.400
21
-8831.100
0
LINE
8
описания
10
6242.400
20
-8831.100
11
6217.700
21
-8831.100
0
LINE
8
описания
10
6281.200
20
-8795.200
11
6281.200
21
-8872.200
0
LINE
8
описания
10
6281.200
20
-8833.700
11
6316.100
21
-8833.700
0
LINE
8
описания
10
6316.100
20
-8795.200
11
6316.100
21
-8872.200
0
LINE
8
описания
10
6379.600
20
-8795.200
11
6354.900
21
-8795.200
0
LINE
8
описания
10
6354.900
20
-8795.200
11
6348.800
21
-8797.800
0
LINE
8
описания
10
6348.800
20
-8797.800
11
6344.600
21
-8802.900
0
LINE
8
описания
10
6344.600
20
-8802.900
11
6342.600
21
-8810.600
0
LINE
8
описания
10
6342.600
20
-8810.600
11
6342.600
21
-8856.800
0
LINE
8
описания
10
6342.600
20
-8856.800
11
6344.600
21
-8864.500
0
LINE
8
описания
10
6344.600
20
-8864.500
11
6348.800
21
-8869.700
0
LINE
8
описания
10
6348.800
20
-8869.700
11
6354.900
21
-8872.200
0
LINE
8
описания
10
6354.900
20
-8872.200
11
6367.200
21
-8872.200
0
LINE
8
описания
10
6367.200
20
-8872.200
11
6373.400
21
-8869.700
0
LINE
8
описания
10
6373.400
20
-8869.700
11
6377.500
21
-8864.500
0
LINE
8
описания
10
6377.500
20
-8864.500
11
6379.600
21
-8856.800
0
LINE
8
описания
10
6379.600
20
-8856.800
11
6379.600
21
-8795.200
0
LINE
8
описания
10
6379.600
20
-8856.800
11
6379.600
21
-8862.000
0
LINE
8
описания
10
6379.600
20
-8862.000
11
6383.700
21
-8869.700
0
LINE
8
описания
10
6383.700
20
-8869.700
11
6387.800
21
-8872.200
0
LINE
8
описания
10
6451.200
20
-8872.200
11
6451.200
21
-8795.200
0
LINE
8
описания
10
6451.200
20
-8795.200
11
6426.600
21
-8795.200
0
LINE
8
описания
10
6426.600
20
-8795.200
11
6420.400
21
-8797.800
0
LINE
8
описания
10
6420.400
20
-8797.800
11
6416.300
21
-8802.900
0
LINE
8
описания
10
6416.300
20
-8802.900
11
6414.300
21
-8810.600
0
LINE
8
описания
10
6414.300
20
-8810.600
11
6414.300
21
-8820.900
0
LINE
8
описания
10
6414.300
20
-8820.900
11
6416.300
21
-8828.600
0
LINE
8
описания
10
6416.300
20
-8828.600
11
6420.400
21
-8833.700
0
LINE
8
описания
10
6420.400
20
-8833.700
11
6426.600
21
-8836.300
0
LINE
8
описания
10
6426.600
20
-8836.300
11
6451.200
21
-8836.300
0
LINE
8
описания
10
6432.800
20
-8836.300
11
6414.300
21
-8872.200
0
LINE
8
описания
10
7166.300
20
-9453.800
11
7166.300
21
-9351.100
0
LINE
8
описания
10
7166.300
20
-9351.100
11
7207.400
21
-9351.100
0
LINE
8
описания
10
7207.400
20
-9351.100
11
7217.700
21
-9354.500
0
LINE
8
описания
10
7217.700
20
-9354.500
11
7224.500
21
-9361.300
0
LINE
8
описания
10
7224.500
20
-9361.300
11
7227.900
21
-9371.600
0
LINE
8
описания
10
7227.900
20
-9371.600
11
7227.900
21
-9453.800
0
LINE
8
описания
10
7276.100
20
-9351.100
11
7276.100
21
-9453.800
0
LINE
8
описания
10
7276.100
20
-9306.600
11
7272.700
21
-9310.000
0
LINE
8
описания
10
7272.700
20
-9310.000
11
7276.100
21
-9313.400
0
LINE
8
описания
10
7276.100
20
-9313.400
11
7279.500
21
-9310.000
0
LINE
8
описания
10
7279.500
20
-9310.000
11
7276.100
21
-9306.600
0
LINE
8
описания
10
7379.000
20
-9351.100
11
7344.800
21
-9351.100
0
LINE
8
описания
10
7344.800
20
-9351.100
11
7334.500
21
-9354.500
0
LINE
8
описания
10
7334.500
20
-9354.500
11
7327.700
21
-9361.300
0
LINE
8
описания
10
7327.700
20
-9361.300
11
7324.300
21
-9371.600
0
LINE
8
описания
10
7324.300
20
-9371.600
11
7324.300
21
-9433.200
0
LINE
8
описания
10
7324.300
20
-9433.200
11
7327.700
21
-9443.500
0
LINE
8
описания
10
7327.700
20
-9443.500
11
7334.500
21
-9450.300
0
LINE
8
описания
10
7334.500
20
-9450.300
11
7344.800
21
-9453.800
0
LINE
8
описания
10
7344.800
20
-9453.800
11
7379.000
21
-9453.800
0
LINE
8
описания
10
7423.800
20
-9433.200
11
7427.200
21
-9443.500
0
LINE
8
описания
10
7427.200
20
-9443.500
11
7434.000
21
-9450.300
0
LINE
8
описания
10
7434.000
20
-9450.300
11
7444.300
21
-9453.800
0
LINE
8
описания
10
7444.300
20
-9453.800
11
7464.900
21
-9453.800
0
LINE
8
описания
10
7464.900
20
-9453.800
11
7475.100
21
-9450.300
0
LINE
8
описания
10
7475.100
20
-9450.300
11
7482.000
21
-9443.500
0
LINE
8
описания
10
7482.000
20
-9443.500
11
7485.400
21
-9433.200
0
LINE
8
описания
10
7485.400
20
-9433.200
11
7485.400
21
-9371.600
0
LINE
8
описания
10
7485.400
20
-9371.600
11
7482.000
21
-9361.300
0
LINE
8
описания
10
7482.000
20
-9361.300
11
7475.100
21
-9354.500
0
LINE
8
описания
10
7475.100
20
-9354.500
11
7464.900
21
-9351.100
0
LINE
8
описания
10
7464.900
20
-9351.100
11
7444.300
21
-9351.100
0
LINE
8
описания
10
7444.300
20
-9351.100
11
7434.000
21
-9354.500
0
LINE
8
описания
10
7434.000
20
-9354.500
11
7427.200
21
-9361.300
0
LINE
8
описания
10
7427.200
20
-9361.300
11
7423.800
21
-9371.600
0
LINE
8
описания
10
7423.800
20
-9371.600
11
7423.800
21
-9433.200
0
LINE
8
описания
10
7530.100
20
-9453.800
11
7530.100
21
-9351.100
0
LINE
8
описания
10
7530.100
20
-9351.100
11
7571.200
21
-9351.100
0
LINE
8
описания
10
7571.200
20
-9351.100
11
7581.500
21
-9354.500
0
LINE
8
описания
10
7581.500
20
-9354.500
11
7588.300
21
-9361.300
0
LINE
8
описания
10
7588.300
20
-9361.300
11
7591.800
21
-9371.600
0
LINE
8
описания
10
7591.800
20
-9371.600
11
7591.800
21
-9453.800
0
LINE
8
описания
10
7698.100
20
-9361.300
11
7691.300
21
-9354.500
0
LINE
8
описания
10
7691.300
20
-9354.500
11
7681.000
21
-9351.100
0
LINE
8
описания
10
7681.000
20
-9351.100
11
7657.000
21
-9351.100
0
LINE
8
описания
10
7657.000
20
-9351.100
11
7646.800
21
-9354.500
0
LINE
8
описания
10
7646.800
20
-9354.500
11
7639.900
21
-9361.300
0
LINE
8
описания
10
7639.900
20
-9361.300
11
7636.500
21
-9371.600
0
LINE
8
описания
10
7636.500
20
-9371.600
11
7639.900
21
-9381.900
0
LINE
8
описания
10
7639.900
20
-9381.900
11
7694.700
21
-9423.000
0
LINE
8
описания
10
7694.700
20
-9423.000
11
7698.100
21
-9433.200
0
LINE
8
описания
10
7698.100
20
-9433.200
11
7694.700
21
-9443.500
0
LINE
8
описания
10
7694.700
20
-9443.500
11
7687.800
21
-9450.300
0
LINE
8
описания
10
7687.800
20
-9450.300
11
7677.600
21
-9453.800
0
LINE
8
описания
10
7677.600
20
-9453.800
11
7657.000
21
-9453.800
0
LINE
8
описания
10
7657.000
20
-9453.800
11
7646.800
21
-9450.300
0
LINE
8
описания
10
7646.800
20
-9450.300
11
7639.900
21
-9443.500
0
LINE
8
описания
10
7639.900
20
-9443.500
11
7636.500
21
-9436.700
0
LINE
8
описания
10
7742.900
20
-9433.200
11
7746.300
21
-9443.500
0
LINE
8
описания
10
7746.300
20
-9443.500
11
7753.100
21
-9450.300
0
LINE
8
описания
10
7753.100
20
-9450.300
11
7763.400
21
-9453.800
0
LINE
8
описания
10
7763.400
20
-9453.800
11
7783.900
21
-9453.800
0
LINE
8
описания
10
7783.900
20
-9453.800
11
7794.200
21
-9450.300
0
LINE
8
описания
10
7794.200
20
-9450.300
11
7801.100
21
-9443.500
0
LINE
8
описания
10
7801.100
20
-9443.500
11
7804.500
21
-9433.200
0
LINE
8
описания
10
7804.500
20
-9433.200
11
7804.500
21
-9371.600
0
LINE
8
описания
10
7804.500
20
-9371.600
11
7801.100
21
-9361.300
0
LINE
8
описания
10
7801.100
20
-9361.300
11
7794.200
21
-9354.500
0
LINE
8
описания
10
7794.200
20
-9354.500
11
7783.900
21
-9351.100
0
LINE
8
описания
10
7783.900
20
-9351.100
11
7763.400
21
-9351.100
0
LINE
8
описания
10
7763.400
20
-9351.100
11
7753.100
21
-9354.500
0
LINE
8
описания
10
7753.100
20
-9354.500
11
7746.300
21
-9361.300
0
LINE
8
описания
10
7746.300
20
-9361.300
11
7742.900
21
-9371.600
0
LINE
8
описания
10
7742.900
20
-9371.600
11
7742.900
21
-9433.200
0
LINE
8
описания
10
7849.200
20
-9453.800
11
7849.200
21
-9351.100
0
LINE
8
описания
10
7849.200
20
-9351.100
11
7890.300
21
-9351.100
0
LINE
8
описания
10
7890.300
20
-9351.100
11
7900.600
21
-9354.500
0
LINE
8
описания
10
7900.600
20
-9354.500
11
7907.400
21
-9361.300
0
LINE
8
описания
10
7907.400
20
-9361.300
11
7910.800
21
-9371.600
0
LINE
8
описания
10
7910.800
20
-9371.600
11
7910.800
21
-9453.800
0
LINE
8
описания
10
7959.000
20
-9446.900
11
7955.600
21
-9450.300
0
LINE
8
описания
10
7955.600
20
-9450.300
11
7959.000
21
-9453.800
0
LINE
8
описания
10
7959.000
20
-9453.800
11
7962.400
21
-9450.300
0
LINE
8
описания
10
7962.400
20
-9450.300
11
7959.000
21
-9446.900
0
LINE
8
описания
10
8061.900
20
-9351.100
11
8027.700
21
-9351.100
0
LINE
8
описания
10
8027.700
20
-9351.100
11
8017.400
21
-9354.500
0
LINE
8
описания
10
8017.400
20
-9354.500
11
8010.600
21
-9361.300
0
LINE
8
описания
10
8010.600
20
-9361.300
11
8007.200
21
-9371.600
0
LINE
8
описания
10
8007.200
20
-9371.600
11
8007.200
21
-9433.200
0
LINE
8
описания
10
8007.200
20
-9433.200
11
8010.600
21
-9443.500
0
LINE
8
описания
10
8010.600
20
-9443.500
11
8017.400
21
-9450.300
0
LINE
8
описания
10
8017.400
20
-9450.300
11
8027.700
21
-9453.800
0
LINE
8
описания
10
8027.700
20
-9453.800
11
8061.900
21
-9453.800
0
LINE
8
описания
10
8106.700
20
-9433.200
11
8110.100
21
-9443.500
0
LINE
8
описания
10
8110.100
20
-9443.500
11
8117.000
21
-9450.300
0
LINE
8
описания
10
8117.000
20
-9450.300
11
8127.200
21
-9453.800
0
LINE
8
описания
10
8127.200
20
-9453.800
11
8147.800
21
-9453.800
0
LINE
8
описания
10
8147.800
20
-9453.800
11
8158.000
21
-9450.300
0
LINE
8
описания
10
8158.000
20
-9450.300
11
8164.900
21
-9443.500
0
LINE
8
описания
10
8164.900
20
-9443.500
11
8168.300
21
-9433.200
0
LINE
8
описания
10
8168.300
20
-9433.200
11
8168.300
21
-9371.600
0
LINE
8
описания
10
8168.300
20
-9371.600
11
8164.900
21
-9361.300
0
LINE
8
описания
10
8164.900
20
-9361.300
11
8158.000
21
-9354.500
0
LINE
8
описания
10
8158.000
20
-9354.500
11
8147.800
21
-9351.100
0
LINE
8
описания
10
8147.800
20
-9351.100
11
8127.200
21
-9351.100
0
LINE
8
описания
10
8127.200
20
-9351.100
11
8117.000
21
-9354.500
0
LINE
8
описания
10
8117.000
20
-9354.500
11
8110.100
21
-9361.300
0
LINE
8
описания
10
8110.100
20
-9361.300
11
8106.700
21
-9371.600
0
LINE
8
описания
10
8106.700
20
-9371.600
11
8106.700
21
-9433.200
0
LINE
8
описания
10
8213.000
20
-9453.800
11
8213.000
21
-9351.100
0
LINE
8
описания
10
8213.000
20
-9351.100
11
8281.500
21
-9351.100
0
LINE
8
описания
10
8281.500
20
-9351.100
11
8291.800
21
-9354.500
0
LINE
8
описания
10
8291.800
20
-9354.500
11
8298.600
21
-9361.300
0
LINE
8
описания
10
8298.600
20
-9361.300
11
8302.100
21
-9371.600
0
LINE
8
описания
10
8302.100
20
-9371.600
11
8302.100
21
-9453.800
0
LINE
8
описания
10
8257.500
20
-9351.100
11
8257.500
21
-9453.800
0
LINE
8
описания
10
7556.100
20
-8233.300
11
7556.100
21
-8156.300
0
LINE
8
описания
10
7556.100
20
-8156.300
11
7578.300
21
-8193.900
0
LINE
8
описания
10
7578.300
20
-8193.900
11
7600.600
21
-8156.300
0
LINE
8
описания
10
7600.600
20
-8156.300
11
7600.600
21
-8233.300
0
LINE
8
описания
10
7651.800
20
-8181.900
11
7631.300
21
-8181.900
0
LINE
8
описания
10
7631.300
20
-8181.900
11
7626.100
21
-8183.700
0
LINE
8
описания
10
7626.100
20
-8183.700
11
7622.700
21
-8187.100
0
LINE
8
описания
10
7622.700
20
-8187.100
11
7621.000
21
-8192.200
0
LINE
8
описания
10
7621.000
20
-8192.200
11
7621.000
21
-8223.000
0
LINE
8
описания
10
7621.000
20
-8223.000
11
7622.700
21
-8228.200
0
LINE
8
описания
10
7622.700
20
-8228.200
11
7626.100
21
-8231.600
0
LINE
8
описания
10
7626.100
20
-8231.600
11
7631.300
21
-8233.300
0
LINE
8
описания
10
7631.300
20
-8233.300
11
7641.500
21
-8233.300
0
LINE
8
описания
10
7641.500
20
-8233.300
11
7646.700
21
-8231.600
0
LINE
8
описания
10
7646.700
20
-8231.600
11
7650.100
21
-8228.200
0
LINE
8
описания
10
7650.100
20
-8228.200
11
7651.800
21
-8223.000
0
LINE
8
описания
10
7651.800
20
-8223.000
11
7651.800
21
-8181.900
0
LINE
8
описания
10
7651.800
20
-8223.000
11
7651.800
21
-8226.400
0
LINE
8
описания
10
7651.800
20
-8226.400
11
7655.200
21
-8231.600
0
LINE
8
описания
10
7655.200
20
-8231.600
11
7658.600
21
-8233.300
0
LINE
8
описания
10
7706.400
20
-8181.900
11
7689.300
21
-8181.900
0
LINE
8
описания
10
7689.300
20
-8181.900
11
7684.200
21
-8183.700
0
LINE
8
описания
10
7684.200
20
-8183.700
11
7680.800
21
-8187.100
0
LINE
8
описания
10
7680.800
20
-8187.100
11
7679.000
21
-8192.200
0
LINE
8
описания
10
7679.000
20
-8192.200
11
7679.000
21
-8223.000
0
LINE
8
описания
10
7679.000
20
-8223.000
11
7680.800
21
-8228.200
0
LINE
8
описания
10
7680.800
20
-8228.200
11
7684.200
21
-8231.600
0
LINE
8
описания
10
7684.200
20
-8231.600
11
7689.300
21
-8233.300
0
LINE
8
описания
10
7689.300
20
-8233.300
11
7706.400
21
-8233.300
0
LINE
8
описания
10
7754.200
20
-8181.900
11
7737.100
21
-8181.900
0
LINE
8
описания
10
7737.100
20
-8181.900
11
7732.000
21
-8183.700
0
LINE
8
описания
10
7732.000
20
-8183.700
11
7728.500
21
-8187.100
0
LINE
8
описания
10
7728.500
20
-8187.100
11
7726.800
21
-8192.200
0
LINE
8
описания
10
7726.800
20
-8192.200
11
7726.800
21
-8223.000
0
LINE
8
описания
10
7726.800
20
-8223.000
11
7728.500
21
-8228.200
0
LINE
8
описания
10
7728.500
20
-8228.200
11
7732.000
21
-8231.600
0
LINE
8
описания
10
7732.000
20
-8231.600
11
7737.100
21
-8233.300
0
LINE
8
описания
10
7737.100
20
-8233.300
11
7754.200
21
-8233.300
0
LINE
8
описания
10
7805.400
20
-8181.900
11
7784.900
21
-8181.900
0
LINE
8
описания
10
7784.900
20
-8181.900
11
7779.800
21
-8183.700
0
LINE
8
описания
10
7779.800
20
-8183.700
11
7776.300
21
-8187.100
0
LINE
8
описания
10
7776.300
20
-8187.100
11
7774.600
21
-8192.200
0
LINE
8
описания
10
7774.600
20
-8192.200
11
7774.600
21
-8223.000
0
LINE
8
описания
10
7774.600
20
-8223.000
11
7776.300
21
-8228.200
0
LINE
8
описания
10
7776.300
20
-8228.200
11
7779.800
21
-8231.600
0
LINE
8
описания
10
7779.800
20
-8231.600
11
7784.900
21
-8233.300
0
LINE
8
описания
10
7784.900
20
-8233.300
11
7795.200
21
-8233.300
0
LINE
8
описания
10
7795.200
20
-8233.300
11
7800.300
21
-8231.600
0
LINE
8
описания
10
7800.300
20
-8231.600
11
7803.700
21
-8228.200
0
LINE
8
описания
10
7803.700
20
-8228.200
11
7805.400
21
-8223.000
0
LINE
8
описания
10
7805.400
20
-8223.000
11
7805.400
21
-8181.900
0
LINE
8
описания
10
7805.400
20
-8223.000
11
7805.400
21
-8226.400
0
LINE
8
описания
10
7805.400
20
-8226.400
11
7808.900
21
-8231.600
0
LINE
8
описания
10
7808.900
20
-8231.600
11
7812.300
21
-8233.300
0
LINE
8
описания
10
8166.300
20
-8233.300
11
8166.300
21
-8156.300
0
LINE
8
описания
10
8166.300
20
-8156.300
11
8188.600
21
-8193.900
0
LINE
8
описания
10
8188.600
20
-8193.900
11
8210.800
21
-8156.300
0
LINE
8
описания
10
8210.800
20
-8156.300
11
8210.800
21
-8233.300
0
LINE
8
описания
10
8262.000
20
-8181.900
11
8241.500
21
-8181.900
0
LINE
8
описания
10
8241.500
20
-8181.900
11
8236.400
21
-8183.700
0
LINE
8
описания
10
8236.400
20
-8183.700
11
8232.900
21
-8187.100
0
LINE
8
описания
10
8232.900
20
-8187.100
11
8231.200
21
-8192.200
0
LINE
8
описания
10
8231.200
20
-8192.200
11
8231.200
21
-8223.000
0
LINE
8
описания
10
8231.200
20
-8223.000
11
8232.900
21
-8228.200
0
LINE
8
описания
10
8232.900
20
-8228.200
11
8236.400
21
-8231.600
0
LINE
8
описания
10
8236.400
20
-8231.600
11
8241.500
21
-8233.300
0
LINE
8
описания
10
8241.500
20
-8233.300
11
8251.800
21
-8233.300
0
LINE
8
описания
10
8251.800
20
-8233.300
11
8256.900
21
-8231.600
0
LINE
8
описания
10
8256.900
20
-8231.600
11
8260.300
21
-8228.200
0
LINE
8
описания
10
8260.300
20
-8228.200
11
8262.000
21
-8223.000
0
LINE
8
описания
10
8262.000
20
-8223.000
11
8262.000
21
-8181.900
0
LINE
8
описания
10
8262.000
20
-8223.000
11
8262.000
21
-8226.400
0
LINE
8
описания
10
8262.000
20
-8226.400
11
8265.500
21
-8231.600
0
LINE
8
описания
10
8265.500
20
-8231.600
11
8268.900
21
-8233.300
0
LINE
8
описания
10
8316.700
20
-8181.900
11
8299.500
21
-8181.900
0
LINE
8
описания
10
8299.500
20
-8181.900
11
8294.400
21
-8183.700
0
LINE
8
описания
10
8294.400
20
-8183.700
11
8291.000
21
-8187.100
0
LINE
8
описания
10
8291.000
20
-8187.100
11
8289.300
21
-8192.200
0
LINE
8
описания
10
8289.300
20
-8192.200
11
8289.300
21
-8223.000
0
LINE
8
описания
10
8289.300
20
-8223.000
11
8291.000
21
-8228.200
0
LINE
8
описания
10
8291.000
20
-8228.200
11
8294.400
21
-8231.600
0
LINE
8
описания
10
8294.400
20
-8231.600
11
8299.500
21
-8233.300
0
LINE
8
описания
10
8299.500
20
-8233.300
11
8316.700
21
-8233.300
0
LINE
8
описания
10
8337.100
20
-8181.900
11
8337.100
21
-8223.000
0
LINE
8
описания
10
8337.100
20
-8223.000
11
8338.800
21
-8228.200
0
LINE
8
описания
10
8338.800
20
-8228.200
11
8342.200
21
-8231.600
0
LINE
8
описания
10
8342.200
20
-8231.600
11
8347.300
21
-8233.300
0
LINE
8
описания
10
8347.300
20
-8233.300
11
8381.600
21
-8233.300
0
LINE
8
описания
10
8381.600
20
-8233.300
11
8381.600
21
-8181.900
0
LINE
8
описания
10
8359.300
20
-8233.300
11
8359.300
21
-8181.900
0
LINE
8
описания
10
8402.000
20
-8233.300
11
8402.000
21
-8181.900
0
LINE
8
описания
10
8402.000
20
-8181.900
11
8436.200
21
-8181.900
0
LINE
8
описания
10
8436.200
20
-8181.900
11
8441.300
21
-8183.700
0
LINE
8
описания
10
8441.300
20
-8183.700
11
8444.800
21
-8187.100
0
LINE
8
описания
10
8444.800
20
-8187.100
11
8446.500
21
-8192.200
0
LINE
8
описания
10
8446.500
20
-8192.200
11
8446.500
21
-8233.300
0
LINE
8
описания
10
8424.200
20
-8181.900
11
8424.200
21
-8233.300
0
LINE
8
описания
10
8497.700
20
-8181.900
11
8477.100
21
-8181.900
0
LINE
8
описания
10
8477.100
20
-8181.900
11
8472.000
21
-8183.700
0
LINE
8
описания
10
8472.000
20
-8183.700
11
8468.600
21
-8187.100
0
LINE
8
описания
10
8468.600
20
-8187.100
11
8466.900
21
-8192.200
0
LINE
8
описания
10
8466.900
20
-8192.200
11
8466.900
21
-8223.000
0
LINE
8
описания
10
8466.900
20
-8223.000
11
8468.600
21
-8228.200
0
LINE
8
описания
10
8468.600
20
-8228.200
11
8472.000
21
-8231.600
0
LINE
8
описания
10
8472.000
20
-8231.600
11
8477.100
21
-8233.300
0
LINE
8
описания
10
8477.100
20
-8233.300
11
8487.400
21
-8233.300
0
LINE
8
описания
10
8487.400
20
-8233.300
11
8492.600
21
-8231.600
0
LINE
8
описания
10
8492.600
20
-8231.600
11
8496.000
21
-8228.200
0
LINE
8
описания
10
8496.000
20
-8228.200
11
8497.700
21
-8223.000
0
LINE
8
описания
10
8497.700
20
-8223.000
11
8497.700
21
-8181.900
0
LINE
8
описания
10
8497.700
20
-8223.000
11
8497.700
21
-8226.400
0
LINE
8
описания
10
8497.700
20
-8226.400
11
8501.100
21
-8231.600
0
LINE
8
описания
10
8501.100
20
-8231.600
11
8504.500
21
-8233.300
0
LINE
8
описания
10
8545.500
20
-8181.900
11
8535.200
21
-8181.900
0
LINE
8
описания
10
8535.200
20
-8181.900
11
8530.100
21
-8183.700
0
LINE
8
описания
10
8530.100
20
-8183.700
11
8526.600
21
-8187.100
0
LINE
8
описания
10
8526.600
20
-8187.100
11
8524.900
21
-8192.200
0
LINE
8
описания
10
8524.900
20
-8192.200
11
8524.900
21
-8223.000
0
LINE
8
описания
10
8524.900
20
-8223.000
11
8526.600
21
-8228.200
0
LINE
8
описания
10
8526.600
20
-8228.200
11
8530.100
21
-8231.600
0
LINE
8
описания
10
8530.100
20
-8231.600
11
8535.200
21
-8233.300
0
LINE
8
описания
10
8535.200
20
-8233.300
11
8545.500
21
-8233.300
0
LINE
8
описания
10
8545.500
20
-8233.300
11
8550.600
21
-8231.600
0
LINE
8
описания
10
8550.600
20
-8231.600
11
8554.000
21
-8228.200
0
LINE
8
описания
10
8554.000
20
-8228.200
11
8555.700
21
-8223.000
0
LINE
8
описания
10
8555.700
20
-8223.000
11
8555.700
21
-8192.200
0
LINE
8
описания
10
8555.700
20
-8192.200
11
8554.000
21
-8187.100
0
LINE
8
описания
10
8554.000
20
-8187.100
11
8550.600
21
-8183.700
0
LINE
8
описания
10
8550.600
20
-8183.700
11
8545.500
21
-8181.900
0
LINE
8
описания
10
8550.600
20
-8183.700
11
8524.900
21
-8156.300
0
LINE
8
описания
10
8524.900
20
-8156.300
11
8555.700
21
-8156.300
0
LINE
8
описания
10
6961.600
20
-9008.500
11
6985.600
21
-8931.500
0
LINE
8
описания
10
6985.600
20
-8931.500
11
7002.700
21
-8931.500
0
LINE
8
описания
10
7002.700
20
-8931.500
11
7002.700
21
-9008.500
0
LINE
8
описания
10
7023.100
20
-8957.100
11
7023.100
21
-8998.200
0
LINE
8
описания
10
7023.100
20
-8998.200
11
7024.800
21
-9003.400
0
LINE
8
описания
10
7024.800
20
-9003.400
11
7028.200
21
-9006.800
0
LINE
8
описания
10
7028.200
20
-9006.800
11
7033.300
21
-9008.500
0
LINE
8
описания
10
7033.300
20
-9008.500
11
7053.900
21
-9008.500
0
LINE
8
описания
10
7053.900
20
-9008.500
11
7053.900
21
-8957.100
0
LINE
8
описания
10
7101.700
20
-8957.100
11
7084.600
21
-8957.100
0
LINE
8
описания
10
7084.600
20
-8957.100
11
7079.400
21
-8958.900
0
LINE
8
описания
10
7079.400
20
-8958.900
11
7076.000
21
-8962.300
0
LINE
8
описания
10
7076.000
20
-8962.300
11
7074.300
21
-8967.400
0
LINE
8
описания
10
7074.300
20
-8967.400
11
7074.300
21
-8998.200
0
LINE
8
описания
10
7074.300
20
-8998.200
11
7076.000
21
-9003.400
0
LINE
8
описания
10
7076.000
20
-9003.400
11
7079.400
21
-9006.800
0
LINE
8
описания
10
7079.400
20
-9006.800
11
7084.600
21
-9008.500
0
LINE
8
описания
10
7084.600
20
-9008.500
11
7101.700
21
-9008.500
0
LINE
8
описания
10
7122.100
20
-9008.500
11
7122.100
21
-8957.100
0
LINE
8
описания
10
7122.100
20
-8957.100
11
7156.300
21
-8957.100
0
LINE
8
описания
10
7156.300
20
-8957.100
11
7161.400
21
-8958.900
0
LINE
8
описания
10
7161.400
20
-8958.900
11
7164.900
21
-8962.300
0
LINE
8
описания
10
7164.900
20
-8962.300
11
7166.600
21
-8967.400
0
LINE
8
описания
10
7166.600
20
-8967.400
11
7166.600
21
-9008.500
0
LINE
8
описания
10
7144.300
20
-8957.100
11
7144.300
21
-9008.500
0
LINE
8
описания
10
7282.800
20
-8948.600
11
7300.000
21
-8931.500
0
LINE
8
описания
10
7300.000
20
-8931.500
11
7300.000
21
-9008.500
0
LINE
8
описания
10
7808.000
20
-9008.500
11
7832.000
21
-8931.500
0
LINE
8
описания
10
7832.000
20
-8931.500
11
7849.100
21
-8931.500
0
LINE
8
описания
10
7849.100
20
-8931.500
11
7849.100
21
-9008.500
0
LINE
8
описания
10
7869.500
20
-8957.100
11
7869.500
21
-8998.200
0
LINE
8
описания
10
7869.500
20
-8998.200
11
7871.200
21
-9003.400
0
LINE
8
описания
10
7871.200
20
-9003.400
11
7874.700
21
-9006.800
0
LINE
8
описания
10
7874.700
20
-9006.800
11
7879.800
21
-9008.500
0
LINE
8
описания
10
7879.800
20
-9008.500
11
7900.300
21
-9008.500
0
LINE
8
описания
10
7900.300
20
-9008.500
11
7900.300
21
-8957.100
0
LINE
8
описания
10
7948.100
20
-8957.100
11
7931.000
21
-8957.100
0
LINE
8
описания
10
7931.000
20
-8957.100
11
7925.900
21
-8958.900
0
LINE
8
описания
10
7925.900
20
-8958.900
11
7922.500
21
-8962.300
0
LINE
8
описания
10
7922.500
20
-8962.300
11
7920.700
21
-8967.400
0
LINE
8
описания
10
7920.700
20
-8967.400
11
7920.700
21
-8998.200
0
LINE
8
описания
10
7920.700
20
-8998.200
11
7922.500
21
-9003.400
0
LINE
8
описания
10
7922.500
20
-9003.400
11
7925.900
21
-9006.800
0
LINE
8
описания
10
7925.900
20
-9006.800
11
7931.000
21
-9008.500
0
LINE
8
описания
10
7931.000
20
-9008.500
11
7948.100
21
-9008.500
0
LINE
8
описания
10
7968.500
20
-9008.500
11
7968.500
21
-8957.100
0
LINE
8
описания
10
7968.500
20
-8957.100
11
8002.800
21
-8957.100
0
LINE
8
описания
10
8002.800
20
-8957.100
11
8007.900
21
-8958.900
0
LINE
8
описания
10
8007.900
20
-8958.900
11
8011.300
21
-8962.300
0
LINE
8
описания
10
8011.300
20
-8962.300
11
8013.000
21
-8967.400
0
LINE
8
описания
10
8013.000
20
-8967.400
11
8013.000
21
-9008.500
0
LINE
8
описания
10
7990.800
20
-8957.100
11
7990.800
21
-9008.500
0
LINE
8
описания
10
8033.400
20
-8998.200
11
8035.100
21
-9003.400
0
LINE
8
описания
10
8035.100
20
-9003.400
11
8038.600
21
-9006.800
0
LINE
8
описания
10
8038.600
20
-9006.800
11
8043.700
21
-9008.500
0
LINE
8
описания
10
8043.700
20
-9008.500
11
8054.000
21
-9008.500
0
LINE
8
описания
10
8054.000
20
-9008.500
11
8059.100
21
-9006.800
0
LINE
8
описания
10
8059.100
20
-9006.800
11
8062.500
21
-9003.400
0
LINE
8
описания
10
8062.500
20
-9003.400
11
8064.200
21
-8998.200
0
LINE
8
описания
10
8064.200
20
-8998.200
11
8064.200
21
-8967.400
0
LINE
8
описания
10
8064.200
20
-8967.400
11
8062.500
21
-8962.300
0
LINE
8
описания
10
8062.500
20
-8962.300
11
8059.100
21
-8958.900
0
LINE
8
описания
10
8059.100
20
-8958.900
11
8054.000
21
-8957.100
0
LINE
8
описания
10
8054.000
20
-8957.100
11
8043.700
21
-8957.100
0
LINE
8
описания
10
8043.700
20
-8957.100
11
8038.600
21
-8958.900
0
LINE
8
описания
10
8038.600
20
-8958.900
11
8035.100
21
-8962.300
0
LINE
8
описания
10
8035.100
20
-8962.300
11
8033.400
21
-8967.400
0
LINE
8
описания
10
8033.400
20
-8967.400
11
8033.400
21
-8998.200
0
LINE
8
описания
10
8105.200
20
-8957.100
11
8094.900
21
-8957.100
0
LINE
8
описания
10
8094.900
20
-8957.100
11
8089.800
21
-8958.900
0
LINE
8
описания
10
8089.800
20
-8958.900
11
8086.400
21
-8962.300
0
LINE
8
описания
10
8086.400
20
-8962.300
11
8084.600
21
-8967.400
0
LINE
8
описания
10
8084.600
20
-8967.400
11
8084.600
21
-8996.500
0
LINE
8
описания
10
8084.600
20
-8996.500
11
8086.400
21
-9003.400
0
LINE
8
описания
10
8086.400
20
-9003.400
11
8089.800
21
-9006.800
0
LINE
8
описания
10
8089.800
20
-9006.800
11
8094.900
21
-9008.500
0
LINE
8
описания
10
8094.900
20
-9008.500
11
8105.200
21
-9008.500
0
LINE
8
описания
10
8105.200
20
-9008.500
11
8110.300
21
-9006.800
0
LINE
8
описания
10
8110.300
20
-9006.800
11
8113.700
21
-9003.400
0
LINE
8
описания
10
8113.700
20
-9003.400
11
8115.500
21
-8998.200
0
LINE
8
описания
10
8115.500
20
-8998.200
11
8115.500
21
-8967.400
0
LINE
8
описания
10
8115.500
20
-8967.400
11
8113.700
21
-8962.300
0
LINE
8
описания
10
8113.700
20
-8962.300
11
8110.300
21
-8958.900
0
LINE
8
описания
10
8110.300
20
-8958.900
11
8105.200
21
-8957.100
0
LINE
8
описания
10
8084.600
20
-8967.400
11
8084.600
21
-8941.700
0
LINE
8
описания
10
8084.600
20
-8941.700
11
8086.400
21
-8936.600
0
LINE
8
описания
10
8086.400
20
-8936.600
11
8089.800
21
-8933.200
0
LINE
8
описания
10
8089.800
20
-8933.200
11
8094.900
21
-8931.500
0
LINE
8
описания
10
8094.900
20
-8931.500
11
8100.100
21
-8933.200
0
LINE
8
описания
10
8100.100
20
-8933.200
11
8103.500
21
-8936.600
0
LINE
8
описания
10
8103.500
20
-8936.600
11
8105.200
21
-8941.700
0
LINE
8
описания
10
8105.200
20
-8941.700
11
8103.500
21
-8946.900
0
LINE
8
описания
10
8103.500
20
-8946.900
11
8089.800
21
-8958.900
0
LINE
8
описания
10
8231.700
20
-8945.200
11
8233.400
21
-8938.300
0
LINE
8
описания
10
8233.400
20
-8938.300
11
8238.600
21
-8933.200
0
LINE
8
описания
10
8238.600
20
-8933.200
11
8245.400
21
-8931.500
0
LINE
8
описания
10
8245.400
20
-8931.500
11
8252.300
21
-8931.500
0
LINE
8
описания
10
8252.300
20
-8931.500
11
8259.100
21
-8933.200
0
LINE
8
описания
10
8259.100
20
-8933.200
11
8264.200
21
-8938.300
0
LINE
8
описания
10
8264.200
20
-8938.300
11
8266.000
21
-8945.200
0
LINE
8
описания
10
8266.000
20
-8945.200
11
8266.000
21
-8950.300
0
LINE
8
описания
10
8266.000
20
-8950.300
11
8264.200
21
-8955.400
0
LINE
8
описания
10
8264.200
20
-8955.400
11
8231.700
21
-9008.500
0
LINE
8
описания
10
8231.700
20
-9008.500
11
8266.000
21
-9008.500
0
LINE
8
описания
10
6953.700
20
-8233.300
11
6977.700
21
-8156.300
0
LINE
8
описания
10
6977.700
20
-8156.300
11
6994.800
21
-8156.300
0
LINE
8
описания
10
6994.800
20
-8156.300
11
6994.800
21
-8233.300
0
LINE
8
описания
10
7015.200
20
-8181.900
11
7015.200
21
-8223.000
0
LINE
8
описания
10
7015.200
20
-8223.000
11
7016.900
21
-8228.200
0
LINE
8
описания
10
7016.900
20
-8228.200
11
7020.300
21
-8231.600
0
LINE
8
описания
10
7020.300
20
-8231.600
11
7025.500
21
-8233.300
0
LINE
8
описания
10
7025.500
20
-8233.300
11
7046.000
21
-8233.300
0
LINE
8
описания
10
7046.000
20
-8233.300
11
7046.000
21
-8181.900
0
LINE
8
описания
10
7066.400
20
-8233.300
11
7066.400
21
-8181.900
0
LINE
8
описания
10
7066.400
20
-8181.900
11
7100.600
21
-8181.900
0
LINE
8
описания
10
7100.600
20
-8181.900
11
7105.800
21
-8183.700
0
LINE
8
описания
10
7105.800
20
-8183.700
11
7109.200
21
-8187.100
0
LINE
8
описания
10
7109.200
20
-8187.100
11
7110.900
21
-8192.200
0
LINE
8
описания
10
7110.900
20
-8192.200
11
7110.900
21
-8233.300
0
LINE
8
описания
10
7088.700
20
-8181.900
11
7088.700
21
-8233.300
0
LINE
8
описания
10
7133.000
20
-8229.900
11
7131.300
21
-8231.600
0
LINE
8
описания
10
7131.300
20
-8231.600
11
7133.000
21
-8233.300
0
LINE
8
описания
10
7133.000
20
-8233.300
11
7134.700
21
-8231.600
0
LINE
8
описания
10
7134.700
20
-8231.600
11
7133.000
21
-8229.900
0
LINE
8
описания
10
7471.000
20
-9808.100
11
7471.000
21
-9731.100
0
LINE
8
описания
10
7481.300
20
-9743.100
11
7460.700
21
-9743.100
0
LINE
8
описания
10
7460.700
20
-9743.100
11
7452.200
21
-9744.800
0
LINE
8
описания
10
7452.200
20
-9744.800
11
7447.000
21
-9749.900
0
LINE
8
описания
10
7447.000
20
-9749.900
11
7443.600
21
-9756.700
0
LINE
8
описания
10
7443.600
20
-9756.700
11
7441.900
21
-9767.000
0
LINE
8
описания
10
7441.900
20
-9767.000
11
7443.600
21
-9777.300
0
LINE
8
описания
10
7443.600
20
-9777.300
11
7447.000
21
-9784.100
0
LINE
8
описания
10
7447.000
20
-9784.100
11
7452.200
21
-9789.300
0
LINE
8
описания
10
7452.200
20
-9789.300
11
7460.700
21
-9791.000
0
LINE
8
описания
10
7460.700
20
-9791.000
11
7481.300
21
-9791.000
0
LINE
8
описания
10
7481.300
20
-9791.000
11
7489.800
21
-9789.300
0
LINE
8
описания
10
7489.800
20
-9789.300
11
7495.000
21
-9784.100
0
LINE
8
описания
10
7495.000
20
-9784.100
11
7498.400
21
-9777.300
0
LINE
8
описания
10
7498.400
20
-9777.300
11
7500.100
21
-9767.000
0
LINE
8
описания
10
7500.100
20
-9767.000
11
7498.400
21
-9756.700
0
LINE
8
описания
10
7498.400
20
-9756.700
11
7495.000
21
-9749.900
0
LINE
8
описания
10
7495.000
20
-9749.900
11
7489.800
21
-9744.800
0
LINE
8
описания
10
7489.800
20
-9744.800
11
7481.300
21
-9743.100
0
LINE
8
описания
10
7520.500
20
-9797.800
11
7522.200
21
-9803.000
0
LINE
8
описания
10
7522.200
20
-9803.000
11
7525.600
21
-9806.400
0
LINE
8
описания
10
7525.600
20
-9806.400
11
7530.800
21
-9808.100
0
LINE
8
описания
10
7530.800
20
-9808.100
11
7541.000
21
-9808.100
0
LINE
8
описания
10
7541.000
20
-9808.100
11
7546.200
21
-9806.400
0
LINE
8
описания
10
7546.200
20
-9806.400
11
7549.600
21
-9803.000
0
LINE
8
описания
10
7549.600
20
-9803.000
11
7551.300
21
-9797.800
0
LINE
8
описания
10
7551.300
20
-9797.800
11
7551.300
21
-9767.000
0
LINE
8
описания
10
7551.300
20
-9767.000
11
7549.600
21
-9761.900
0
LINE
8
описания
10
7549.600
20
-9761.900
11
7546.200
21
-9758.500
0
LINE
8
описания
10
7546.200
20
-9758.500
11
7541.000
21
-9756.700
0
LINE
8
описания
10
7541.000
20
-9756.700
11
7530.800
21
-9756.700
0
LINE
8
описания
10
7530.800
20
-9756.700
11
7525.600
21
-9758.500
0
LINE
8
описания
10
7525.600
20
-9758.500
11
7522.200
21
-9761.900
0
LINE
8
описания
10
7522.200
20
-9761.900
11
7520.500
21
-9767.000
0
LINE
8
описания
10
7520.500
20
-9767.000
11
7520.500
21
-9797.800
0
LINE
8
описания
10
7571.700
20
-9826.900
11
7571.700
21
-9756.700
0
LINE
8
описания
10
7571.700
20
-9756.700
11
7592.300
21
-9756.700
0
LINE
8
описания
10
7592.300
20
-9756.700
11
7597.400
21
-9758.500
0
LINE
8
описания
10
7597.400
20
-9758.500
11
7600.800
21
-9761.900
0
LINE
8
описания
10
7600.800
20
-9761.900
11
7602.500
21
-9767.000
0
LINE
8
описания
10
7602.500
20
-9767.000
11
7602.500
21
-9797.800
0
LINE
8
описания
10
7602.500
20
-9797.800
11
7600.800
21
-9803.000
0
LINE
8
описания
10
7600.800
20
-9803.000
11
7597.400
21
-9806.400
0
LINE
8
описания
10
7597.400
20
-9806.400
11
7592.300
21
-9808.100
0
LINE
8
описания
10
7592.300
20
-9808.100
11
7571.700
21
-9808.100
0
LINE
8
описания
10
7622.900
20
-9808.100
11
7622.900
21
-9756.700
0
LINE
8
описания
10
7622.900
20
-9756.700
11
7640.000
21
-9782.400
0
LINE
8
описания
10
7640.000
20
-9782.400
11
7657.200
21
-9756.700
0
LINE
8
описания
10
7657.200
20
-9756.700
11
7657.200
21
-9808.100
0
LINE
8
описания
10
7708.400
20
-9756.700
11
7687.800
21
-9756.700
0
LINE
8
описания
10
7687.800
20
-9756.700
11
7682.700
21
-9758.500
0
LINE
8
описания
10
7682.700
20
-9758.500
11
7679.300
21
-9761.900
0
LINE
8
описания
10
7679.300
20
-9761.900
11
7677.600
21
-9767.000
0
LINE
8
описания
10
7677.600
20
-9767.000
11
7677.600
21
-9797.800
0
LINE
8
описания
10
7677.600
20
-9797.800
11
7679.300
21
-9803.000
0
LINE
8
описания
10
7679.300
20
-9803.000
11
7682.700
21
-9806.400
0
LINE
8
описания
10
7682.700
20
-9806.400
11
7687.800
21
-9808.100
0
LINE
8
описания
10
7687.800
20
-9808.100
11
7698.100
21
-9808.100
0
LINE
8
описания
10
7698.100
20
-9808.100
11
7703.200
21
-9806.400
0
LINE
8
описания
10
7703.200
20
-9806.400
11
7706.700
21
-9803.000
0
LINE
8
описания
10
7706.700
20
-9803.000
11
7708.400
21
-9797.800
0
LINE
8
описания
10
7708.400
20
-9797.800
11
7708.400
21
-9756.700
0
LINE
8
описания
10
7708.400
20
-9797.800
11
7708.400
21
-9801.300
0
LINE
8
описания
10
7708.400
20
-9801.300
11
7711.800
21
-9806.400
0
LINE
8
описания
10
7711.800
20
-9806.400
11
7715.200
21
-9808.100
0
LINE
8
описания
10
7735.600
20
-9808.100
11
7735.600
21
-9756.700
0
LINE
8
описания
10
7735.600
20
-9756.700
11
7769.900
21
-9756.700
0
LINE
8
описания
10
7769.900
20
-9756.700
11
7775.000
21
-9758.500
0
LINE
8
описания
10
7775.000
20
-9758.500
11
7778.400
21
-9761.900
0
LINE
8
описания
10
7778.400
20
-9761.900
11
7780.100
21
-9767.000
0
LINE
8
описания
10
7780.100
20
-9767.000
11
7780.100
21
-9808.100
0
LINE
8
описания
10
7757.900
20
-9756.700
11
7757.900
21
-9808.100
0
LINE
8
описания
10
7824.500
20
-9808.100
11
7845.000
21
-9731.100
0
LINE
8
описания
10
7845.000
20
-9731.100
11
7865.600
21
-9808.100
0
LINE
8
описания
10
7831.300
20
-9782.400
11
7858.700
21
-9782.400
0
LINE
8
описания
10
7886.000
20
-9731.100
11
7904.800
21
-9731.100
0
LINE
8
описания
10
7904.800
20
-9731.100
11
7909.900
21
-9732.800
0
LINE
8
описания
10
7909.900
20
-9732.800
11
7915.100
21
-9737.900
0
LINE
8
описания
10
7915.100
20
-9737.900
11
7916.800
21
-9743.100
0
LINE
8
описания
10
7916.800
20
-9743.100
11
7916.800
21
-9753.300
0
LINE
8
описания
10
7916.800
20
-9753.300
11
7915.100
21
-9758.500
0
LINE
8
описания
10
7915.100
20
-9758.500
11
7909.900
21
-9763.600
0
LINE
8
описания
10
7909.900
20
-9763.600
11
7904.800
21
-9765.300
0
LINE
8
описания
10
7896.200
20
-9765.300
11
7903.100
21
-9765.300
0
LINE
8
описания
10
7903.100
20
-9765.300
11
7909.900
21
-9767.000
0
LINE
8
описания
10
7909.900
20
-9767.000
11
7915.100
21
-9772.200
0
LINE
8
описания
10
7915.100
20
-9772.200
11
7916.800
21
-9777.300
0
LINE
8
описания
10
7916.800
20
-9777.300
11
7916.800
21
-9796.100
0
LINE
8
описания
10
7916.800
20
-9796.100
11
7915.100
21
-9801.300
0
LINE
8
описания
10
7915.100
20
-9801.300
11
7909.900
21
-9806.400
0
LINE
8
описания
10
7909.900
20
-9806.400
11
7904.800
21
-9808.100
0
LINE
8
описания
10
7904.800
20
-9808.100
11
7886.000
21
-9808.100
0
LINE
8
описания
10
5099.400
20
-9733.000
11
5099.400
21
-9810.100
0
LINE
8
описания
10
5133.600
20
-9733.000
11
5099.400
21
-9775.800
0
LINE
8
описания
10
5111.400
20
-9762.100
11
5133.600
21
-9810.100
0
LINE
8
описания
10
5154.000
20
-9799.800
11
5155.700
21
-9804.900
0
LINE
8
описания
10
5155.700
20
-9804.900
11
5159.200
21
-9808.400
0
LINE
8
описания
10
5159.200
20
-9808.400
11
5164.300
21
-9810.100
0
LINE
8
описания
10
5164.300
20
-9810.100
11
5174.600
21
-9810.100
0
LINE
8
описания
10
5174.600
20
-9810.100
11
5179.700
21
-9808.400
0
LINE
8
описания
10
5179.700
20
-9808.400
11
5183.100
21
-9804.900
0
LINE
8
описания
10
5183.100
20
-9804.900
11
5184.800
21
-9799.800
0
LINE
8
описания
10
5184.800
20
-9799.800
11
5184.800
21
-9769.000
0
LINE
8
описания
10
5184.800
20
-9769.000
11
5183.100
21
-9763.900
0
LINE
8
описания
10
5183.100
20
-9763.900
11
5179.700
21
-9760.400
0
LINE
8
описания
10
5179.700
20
-9760.400
11
5174.600
21
-9758.700
0
LINE
8
описания
10
5174.600
20
-9758.700
11
5164.300
21
-9758.700
0
LINE
8
описания
10
5164.300
20
-9758.700
11
5159.200
21
-9760.400
0
LINE
8
описания
10
5159.200
20
-9760.400
11
5155.700
21
-9763.900
0
LINE
8
описания
10
5155.700
20
-9763.900
11
5154.000
21
-9769.000
0
LINE
8
описания
10
5154.000
20
-9769.000
11
5154.000
21
-9799.800
0
LINE
8
описания
10
5205.200
20
-9810.100
11
5205.200
21
-9758.700
0
LINE
8
описания
10
5205.200
20
-9758.700
11
5225.800
21
-9758.700
0
LINE
8
описания
10
5225.800
20
-9758.700
11
5230.900
21
-9760.400
0
LINE
8
описания
10
5230.900
20
-9760.400
11
5234.300
21
-9763.900
0
LINE
8
описания
10
5234.300
20
-9763.900
11
5236.000
21
-9769.000
0
LINE
8
описания
10
5236.000
20
-9769.000
11
5236.000
21
-9810.100
0
LINE
8
описания
10
5256.400
20
-9758.700
11
5256.400
21
-9799.800
0
LINE
8
описания
10
5256.400
20
-9799.800
11
5258.200
21
-9804.900
0
LINE
8
описания
10
5258.200
20
-9804.900
11
5261.600
21
-9808.400
0
LINE
8
описания
10
5261.600
20
-9808.400
11
5266.700
21
-9810.100
0
LINE
8
описания
10
5266.700
20
-9810.100
11
5287.300
21
-9810.100
0
LINE
8
описания
10
5287.300
20
-9810.100
11
5287.300
21
-9758.700
0
LINE
8
описания
10
5307.700
20
-9828.900
11
5307.700
21
-9758.700
0
LINE
8
описания
10
5307.700
20
-9758.700
11
5328.200
21
-9758.700
0
LINE
8
описания
10
5328.200
20
-9758.700
11
5333.300
21
-9760.400
0
LINE
8
описания
10
5333.300
20
-9760.400
11
5336.800
21
-9763.900
0
LINE
8
описания
10
5336.800
20
-9763.900
11
5338.500
21
-9769.000
0
LINE
8
описания
10
5338.500
20
-9769.000
11
5338.500
21
-9799.800
0
LINE
8
описания
10
5338.500
20
-9799.800
11
5336.800
21
-9804.900
0
LINE
8
описания
10
5336.800
20
-9804.900
11
5333.300
21
-9808.400
0
LINE
8
описания
10
5333.300
20
-9808.400
11
5328.200
21
-9810.100
0
LINE
8
описания
10
5328.200
20
-9810.100
11
5307.700
21
-9810.100
0
LINE
8
описания
10
5358.900
20
-9799.800
11
5360.600
21
-9804.900
0
LINE
8
описания
10
5360.600
20
-9804.900
11
5364.000
21
-9808.400
0
LINE
8
описания
10
5364.000
20
-9808.400
11
5369.100
21
-9810.100
0
LINE
8
описания
10
5369.100
20
-9810.100
11
5379.400
21
-9810.100
0
LINE
8
описания
10
5379.400
20
-9810.100
11
5384.500
21
-9808.400
0
LINE
8
описания
10
5384.500
20
-9808.400
11
5388.000
21
-9804.900
0
LINE
8
описания
10
5388.000
20
-9804.900
11
5389.700
21
-9799.800
0
LINE
8
описания
10
5389.700
20
-9799.800
11
5389.700
21
-9769.000
0
LINE
8
описания
10
5389.700
20
-9769.000
11
5388.000
21
-9763.900
0
LINE
8
описания
10
5388.000
20
-9763.900
11
5384.500
21
-9760.400
0
LINE
8
описания
10
5384.500
20
-9760.400
11
5379.400
21
-9758.700
0
LINE
8
описания
10
5379.400
20
-9758.700
11
5369.100
21
-9758.700
0
LINE
8
описания
10
5369.100
20
-9758.700
11
5364.000
21
-9760.400
0
LINE
8
описания
10
5364.000
20
-9760.400
11
5360.600
21
-9763.900
0
LINE
8
описания
10
5360.600
20
-9763.900
11
5358.900
21
-9769.000
0
LINE
8
описания
10
5358.900
20
-9769.000
11
5358.900
21
-9799.800
0
LINE
8
описания
10
5430.600
20
-9758.700
11
5420.400
21
-9758.700
0
LINE
8
описания
10
5420.400
20
-9758.700
11
5415.200
21
-9760.400
0
LINE
8
описания
10
5415.200
20
-9760.400
11
5411.800
21
-9763.900
0
LINE
8
описания
10
5411.800
20
-9763.900
11
5410.100
21
-9769.000
0
LINE
8
описания
10
5410.100
20
-9769.000
11
5410.100
21
-9798.100
0
LINE
8
описания
10
5410.100
20
-9798.100
11
5411.800
21
-9804.900
0
LINE
8
описания
10
5411.800
20
-9804.900
11
5415.200
21
-9808.400
0
LINE
8
описания
10
5415.200
20
-9808.400
11
5420.400
21
-9810.100
0
LINE
8
описания
10
5420.400
20
-9810.100
11
5430.600
21
-9810.100
0
LINE
8
описания
10
5430.600
20
-9810.100
11
5435.800
21
-9808.400
0
LINE
8
описания
10
5435.800
20
-9808.400
11
5439.200
21
-9804.900
0
LINE
8
описания
10
5439.200
20
-9804.900
11
5440.900
21
-9799.800
0
LINE
8
описания
10
5440.900
20
-9799.800
11
5440.900
21
-9769.000
0
LINE
8
описания
10
5440.900
20
-9769.000
11
5439.200
21
-9763.900
0
LINE
8
описания
10
5439.200
20
-9763.900
11
5435.800
21
-9760.400
0
LINE
8
описания
10
5435.800
20
-9760.400
11
5430.600
21
-9758.700
0
LINE
8
описания
10
5410.100
20
-9769.000
11
5410.100
21
-9743.300
0
LINE
8
описания
10
5410.100
20
-9743.300
11
5411.800
21
-9738.200
0
LINE
8
описания
10
5411.800
20
-9738.200
11
5415.200
21
-9734.800
0
LINE
8
описания
10
5415.200
20
-9734.800
11
5420.400
21
-9733.000
0
LINE
8
описания
10
5420.400
20
-9733.000
11
5425.500
21
-9734.800
0
LINE
8
описания
10
5425.500
20
-9734.800
11
5428.900
21
-9738.200
0
LINE
8
описания
10
5428.900
20
-9738.200
11
5430.600
21
-9743.300
0
LINE
8
описания
10
5430.600
20
-9743.300
11
5428.900
21
-9748.400
0
LINE
8
описания
10
5428.900
20
-9748.400
11
5415.200
21
-9760.400
0
LINE
8
описания
10
5492.100
20
-9758.700
11
5471.600
21
-9758.700
0
LINE
8
описания
10
5471.600
20
-9758.700
11
5466.400
21
-9760.400
0
LINE
8
описания
10
5466.400
20
-9760.400
11
5463.000
21
-9763.900
0
LINE
8
описания
10
5463.000
20
-9763.900
11
5461.300
21
-9769.000
0
LINE
8
описания
10
5461.300
20
-9769.000
11
5461.300
21
-9799.800
0
LINE
8
описания
10
5461.300
20
-9799.800
11
5463.000
21
-9804.900
0
LINE
8
описания
10
5463.000
20
-9804.900
11
5466.400
21
-9808.400
0
LINE
8
описания
10
5466.400
20
-9808.400
11
5471.600
21
-9810.100
0
LINE
8
описания
10
5471.600
20
-9810.100
11
5481.800
21
-9810.100
0
LINE
8
описания
10
5481.800
20
-9810.100
11
5487.000
21
-9808.400
0
LINE
8
описания
10
5487.000
20
-9808.400
11
5490.400
21
-9804.900
0
LINE
8
описания
10
5490.400
20
-9804.900
11
5492.100
21
-9799.800
0
LINE
8
описания
10
5492.100
20
-9799.800
11
5492.100
21
-9758.700
0
LINE
8
описания
10
5492.100
20
-9799.800
11
5492.100
21
-9803.200
0
LINE
8
описания
10
5492.100
20
-9803.200
11
5495.500
21
-9808.400
0
LINE
8
описания
10
5495.500
20
-9808.400
11
5499.000
21
-9810.100
0
LINE
8
описания
10
5519.400
20
-9810.100
11
5533.000
21
-9758.700
0
LINE
8
описания
10
5533.000
20
-9758.700
11
5550.200
21
-9758.700
0
LINE
8
описания
10
5550.200
20
-9758.700
11
5550.200
21
-9810.100
0
LINE
8
описания
10
1563.900
20
-8633.700
11
1563.900
21
-8556.700
0
LINE
8
описания
10
1563.900
20
-8556.700
11
1587.900
21
-8556.700
0
LINE
8
описания
10
1587.900
20
-8556.700
11
1593.000
21
-8558.400
0
LINE
8
описания
10
1593.000
20
-8558.400
11
1596.500
21
-8561.800
0
LINE
8
описания
10
1596.500
20
-8561.800
11
1598.200
21
-8566.900
0
LINE
8
описания
10
1598.200
20
-8566.900
11
1598.200
21
-8585.800
0
LINE
8
описания
10
1598.200
20
-8585.800
11
1596.500
21
-8590.900
0
LINE
8
описания
10
1596.500
20
-8590.900
11
1593.000
21
-8594.300
0
LINE
8
описания
10
1593.000
20
-8594.300
11
1587.900
21
-8596.000
0
LINE
8
описания
10
1587.900
20
-8596.000
11
1563.900
21
-8596.000
0
LINE
8
описания
10
1649.400
20
-8582.300
11
1628.900
21
-8582.300
0
LINE
8
описания
10
1628.900
20
-8582.300
11
1623.700
21
-8584.000
0
LINE
8
описания
10
1623.700
20
-8584.000
11
1620.300
21
-8587.500
0
LINE
8
описания
10
1620.300
20
-8587.500
11
1618.600
21
-8592.600
0
LINE
8
описания
10
1618.600
20
-8592.600
11
1618.600
21
-8623.400
0
LINE
8
описания
10
1618.600
20
-8623.400
11
1620.300
21
-8628.600
0
LINE
8
описания
10
1620.300
20
-8628.600
11
1623.700
21
-8632.000
0
LINE
8
описания
10
1623.700
20
-8632.000
11
1628.900
21
-8633.700
0
LINE
8
описания
10
1628.900
20
-8633.700
11
1639.100
21
-8633.700
0
LINE
8
описания
10
1639.100
20
-8633.700
11
1644.300
21
-8632.000
0
LINE
8
описания
10
1644.300
20
-8632.000
11
1647.700
21
-8628.600
0
LINE
8
описания
10
1647.700
20
-8628.600
11
1649.400
21
-8623.400
0
LINE
8
описания
10
1649.400
20
-8623.400
11
1649.400
21
-8582.300
0
LINE
8
описания
10
1649.400
20
-8623.400
11
1649.400
21
-8626.800
0
LINE
8
описания
10
1649.400
20
-8626.800
11
1652.800
21
-8632.000
0
LINE
8
описания
10
1652.800
20
-8632.000
11
1656.200
21
-8633.700
0
LINE
8
описания
10
1680.100
20
-8587.500
11
1683.500
21
-8584.000
0
LINE
8
описания
10
1683.500
20
-8584.000
11
1688.600
21
-8582.300
0
LINE
8
описания
10
1688.600
20
-8582.300
11
1695.500
21
-8582.300
0
LINE
8
описания
10
1695.500
20
-8582.300
11
1700.600
21
-8584.000
0
LINE
8
описания
10
1700.600
20
-8584.000
11
1704.000
21
-8587.500
0
LINE
8
описания
10
1704.000
20
-8587.500
11
1705.700
21
-8592.600
0
LINE
8
описания
10
1705.700
20
-8592.600
11
1705.700
21
-8596.000
0
LINE
8
описания
10
1705.700
20
-8596.000
11
1704.000
21
-8601.200
0
LINE
8
описания
10
1704.000
20
-8601.200
11
1700.600
21
-8604.600
0
LINE
8
описания
10
1700.600
20
-8604.600
11
1695.500
21
-8606.300
0
LINE
8
описания
10
1695.500
20
-8606.300
11
1686.900
21
-8606.300
0
LINE
8
описания
10
1695.500
20
-8606.300
11
1700.600
21
-8608.000
0
LINE
8
описания
10
1700.600
20
-8608.000
11
1704.000
21
-8611.400
0
LINE
8
описания
10
1704.000
20
-8611.400
11
1705.700
21
-8616.600
0
LINE
8
описания
10
1705.700
20
-8616.600
11
1705.700
21
-8623.400
0
LINE
8
описания
10
1705.700
20
-8623.400
11
1704.000
21
-8628.600
0
LINE
8
описания
10
1704.000
20
-8628.600
11
1700.600
21
-8632.000
0
LINE
8
описания
10
1700.600
20
-8632.000
11
1695.500
21
-8633.700
0
LINE
8
описания
10
1695.500
20
-8633.700
11
1686.900
21
-8633.700
0
LINE
8
описания
10
1686.900
20
-8633.700
11
1681.800
21
-8632.000
0
LINE
8
описания
10
1681.800
20
-8632.000
11
1678.400
21
-8628.600
0
LINE
8
описания
10
1678.400
20
-8628.600
11
1676.600
21
-8623.400
0
LINE
8
описания
10
1726.100
20
-8652.500
11
1726.100
21
-8582.300
0
LINE
8
описания
10
1726.100
20
-8582.300
11
1746.700
21
-8582.300
0
LINE
8
описания
10
1746.700
20
-8582.300
11
1751.800
21
-8584.000
0
LINE
8
описания
10
1751.800
20
-8584.000
11
1755.200
21
-8587.500
0
LINE
8
описания
10
1755.200
20
-8587.500
11
1757.000
21
-8592.600
0
LINE
8
описания
10
1757.000
20
-8592.600
11
1757.000
21
-8623.400
0
LINE
8
описания
10
1757.000
20
-8623.400
11
1755.200
21
-8628.600
0
LINE
8
описания
10
1755.200
20
-8628.600
11
1751.800
21
-8632.000
0
LINE
8
описания
10
1751.800
20
-8632.000
11
1746.700
21
-8633.700
0
LINE
8
описания
10
1746.700
20
-8633.700
11
1726.100
21
-8633.700
0
LINE
8
описания
10
1808.200
20
-8582.300
11
1787.600
21
-8582.300
0
LINE
8
описания
10
1787.600
20
-8582.300
11
1782.500
21
-8584.000
0
LINE
8
описания
10
1782.500
20
-8584.000
11
1779.100
21
-8587.500
0
LINE
8
описания
10
1779.100
20
-8587.500
11
1777.400
21
-8592.600
0
LINE
8
описания
10
1777.400
20
-8592.600
11
1777.400
21
-8623.400
0
LINE
8
описания
10
1777.400
20
-8623.400
11
1779.100
21
-8628.600
0
LINE
8
описания
10
1779.100
20
-8628.600
11
1782.500
21
-8632.000
0
LINE
8
описания
10
1782.500
20
-8632.000
11
1787.600
21
-8633.700
0
LINE
8
описания
10
1787.600
20
-8633.700
11
1797.900
21
-8633.700
0
LINE
8
описания
10
1797.900
20
-8633.700
11
1803.000
21
-8632.000
0
LINE
8
описания
10
1803.000
20
-8632.000
11
1806.500
21
-8628.600
0
LINE
8
описания
10
1806.500
20
-8628.600
11
1808.200
21
-8623.400
0
LINE
8
описания
10
1808.200
20
-8623.400
11
1808.200
21
-8582.300
0
LINE
8
описания
10
1808.200
20
-8623.400
11
1808.200
21
-8626.800
0
LINE
8
описания
10
1808.200
20
-8626.800
11
1811.600
21
-8632.000
0
LINE
8
описания
10
1811.600
20
-8632.000
11
1815.000
21
-8633.700
0
LINE
8
описания
10
1856.000
20
-8582.300
11
1845.700
21
-8582.300
0
LINE
8
описания
10
1845.700
20
-8582.300
11
1840.600
21
-8584.000
0
LINE
8
описания
10
1840.600
20
-8584.000
11
1837.100
21
-8587.500
0
LINE
8
описания
10
1837.100
20
-8587.500
11
1835.400
21
-8592.600
0
LINE
8
описания
10
1835.400
20
-8592.600
11
1835.400
21
-8623.400
0
LINE
8
описания
10
1835.400
20
-8623.400
11
1837.100
21
-8628.600
0
LINE
8
описания
10
1837.100
20
-8628.600
11
1840.600
21
-8632.000
0
LINE
8
описания
10
1840.600
20
-8632.000
11
1845.700
21
-8633.700
0
LINE
8
описания
10
1845.700
20
-8633.700
11
1856.000
21
-8633.700
0
LINE
8
описания
10
1856.000
20
-8633.700
11
1861.100
21
-8632.000
0
LINE
8
описания
10
1861.100
20
-8632.000
11
1864.500
21
-8628.600
0
LINE
8
описания
10
1864.500
20
-8628.600
11
1866.200
21
-8623.400
0
LINE
8
описания
10
1866.200
20
-8623.400
11
1866.200
21
-8592.600
0
LINE
8
описания
10
1866.200
20
-8592.600
11
1864.500
21
-8587.500
0
LINE
8
описания
10
1864.500
20
-8587.500
11
1861.100
21
-8584.000
0
LINE
8
описания
10
1861.100
20
-8584.000
11
1856.000
21
-8582.300
0
LINE
8
описания
10
1861.100
20
-8584.000
11
1835.400
21
-8556.700
0
LINE
8
описания
10
1835.400
20
-8556.700
11
1866.200
21
-8556.700
0
LINE
8
описания
10
1888.300
20
-8630.300
11
1886.600
21
-8632.000
0
LINE
8
описания
10
1886.600
20
-8632.000
11
1888.300
21
-8633.700
0
LINE
8
описания
10
1888.300
20
-8633.700
11
1890.100
21
-8632.000
0
LINE
8
описания
10
1890.100
20
-8632.000
11
1888.300
21
-8630.300
0
LINE
8
описания
10
1563.900
20
-8812.400
11
1563.900
21
-8735.400
0
LINE
8
описания
10
1563.900
20
-8735.400
11
1598.200
21
-8735.400
0
LINE
8
описания
10
1598.200
20
-8735.400
11
1598.200
21
-8812.400
0
LINE
8
описания
10
1618.600
20
-8831.300
11
1618.600
21
-8761.100
0
LINE
8
описания
10
1618.600
20
-8761.100
11
1639.100
21
-8761.100
0
LINE
8
описания
10
1639.100
20
-8761.100
11
1644.300
21
-8762.800
0
LINE
8
описания
10
1644.300
20
-8762.800
11
1647.700
21
-8766.200
0
LINE
8
описания
10
1647.700
20
-8766.200
11
1649.400
21
-8771.300
0
LINE
8
описания
10
1649.400
20
-8771.300
11
1649.400
21
-8802.200
0
LINE
8
описания
10
1649.400
20
-8802.200
11
1647.700
21
-8807.300
0
LINE
8
описания
10
1647.700
20
-8807.300
11
1644.300
21
-8810.700
0
LINE
8
описания
10
1644.300
20
-8810.700
11
1639.100
21
-8812.400
0
LINE
8
описания
10
1639.100
20
-8812.400
11
1618.600
21
-8812.400
0
LINE
8
описания
10
1669.800
20
-8802.200
11
1671.500
21
-8807.300
0
LINE
8
описания
10
1671.500
20
-8807.300
11
1674.900
21
-8810.700
0
LINE
8
описания
10
1674.900
20
-8810.700
11
1680.100
21
-8812.400
0
LINE
8
описания
10
1680.100
20
-8812.400
11
1690.300
21
-8812.400
0
LINE
8
описания
10
1690.300
20
-8812.400
11
1695.500
21
-8810.700
0
LINE
8
описания
10
1695.500
20
-8810.700
11
1698.900
21
-8807.300
0
LINE
8
описания
10
1698.900
20
-8807.300
11
1700.600
21
-8802.200
0
LINE
8
описания
10
1700.600
20
-8802.200
11
1700.600
21
-8771.300
0
LINE
8
описания
10
1700.600
20
-8771.300
11
1698.900
21
-8766.200
0
LINE
8
описания
10
1698.900
20
-8766.200
11
1695.500
21
-8762.800
0
LINE
8
описания
10
1695.500
20
-8762.800
11
1690.300
21
-8761.100
0
LINE
8
описания
10
1690.300
20
-8761.100
11
1680.100
21
-8761.100
0
LINE
8
описания
10
1680.100
20
-8761.100
11
1674.900
21
-8762.800
0
LINE
8
описания
10
1674.900
20
-8762.800
11
1671.500
21
-8766.200
0
LINE
8
описания
10
1671.500
20
-8766.200
11
1669.800
21
-8771.300
0
LINE
8
описания
10
1669.800
20
-8771.300
11
1669.800
21
-8802.200
0
LINE
8
описания
10
1741.600
20
-8761.100
11
1731.300
21
-8761.100
0
LINE
8
описания
10
1731.300
20
-8761.100
11
1726.100
21
-8762.800
0
LINE
8
описания
10
1726.100
20
-8762.800
11
1722.700
21
-8766.200
0
LINE
8
описания
10
1722.700
20
-8766.200
11
1721.000
21
-8771.300
0
LINE
8
описания
10
1721.000
20
-8771.300
11
1721.000
21
-8800.400
0
LINE
8
описания
10
1721.000
20
-8800.400
11
1722.700
21
-8807.300
0
LINE
8
описания
10
1722.700
20
-8807.300
11
1726.100
21
-8810.700
0
LINE
8
описания
10
1726.100
20
-8810.700
11
1731.300
21
-8812.400
0
LINE
8
описания
10
1731.300
20
-8812.400
11
1741.600
21
-8812.400
0
LINE
8
описания
10
1741.600
20
-8812.400
11
1746.700
21
-8810.700
0
LINE
8
описания
10
1746.700
20
-8810.700
11
1750.100
21
-8807.300
0
LINE
8
описания
10
1750.100
20
-8807.300
11
1751.800
21
-8802.200
0
LINE
8
описания
10
1751.800
20
-8802.200
11
1751.800
21
-8771.300
0
LINE
8
описания
10
1751.800
20
-8771.300
11
1750.100
21
-8766.200
0
LINE
8
описания
10
1750.100
20
-8766.200
11
1746.700
21
-8762.800
0
LINE
8
описания
10
1746.700
20
-8762.800
11
1741.600
21
-8761.100
0
LINE
8
описания
10
1721.000
20
-8771.300
11
1721.000
21
-8745.700
0
LINE
8
описания
10
1721.000
20
-8745.700
11
1722.700
21
-8740.500
0
LINE
8
описания
10
1722.700
20
-8740.500
11
1726.100
21
-8737.100
0
LINE
8
описания
10
1726.100
20
-8737.100
11
1731.300
21
-8735.400
0
LINE
8
описания
10
1731.300
20
-8735.400
11
1736.400
21
-8737.100
0
LINE
8
описания
10
1736.400
20
-8737.100
11
1739.800
21
-8740.500
0
LINE
8
описания
10
1739.800
20
-8740.500
11
1741.600
21
-8745.700
0
LINE
8
описания
10
1741.600
20
-8745.700
11
1739.800
21
-8750.800
0
LINE
8
описания
10
1739.800
20
-8750.800
11
1726.100
21
-8762.800
0
LINE
8
описания
10
1773.900
20
-8809.000
11
1772.200
21
-8810.700
0
LINE
8
описания
10
1772.200
20
-8810.700
11
1773.900
21
-8812.400
0
LINE
8
описания
10
1773.900
20
-8812.400
11
1775.600
21
-8810.700
0
LINE
8
описания
10
1775.600
20
-8810.700
11
1773.900
21
-8809.000
0
LINE
8
описания
10
1561.400
20
-9010.100
11
1561.400
21
-8933.000
0
LINE
8
описания
10
1544.300
20
-8933.000
11
1578.500
21
-8933.000
0
LINE
8
описания
10
1600.600
20
-9006.600
11
1598.900
21
-9008.400
0
LINE
8
описания
10
1598.900
20
-9008.400
11
1600.600
21
-9010.100
0
LINE
8
описания
10
1600.600
20
-9010.100
11
1602.300
21
-9008.400
0
LINE
8
описания
10
1602.300
20
-9008.400
11
1600.600
21
-9006.600
0
LINE
8
описания
10
1622.700
20
-9010.100
11
1622.700
21
-8958.700
0
LINE
8
описания
10
1622.700
20
-8987.800
11
1653.500
21
-8958.700
0
LINE
8
описания
10
1631.300
20
-8981.000
11
1653.500
21
-9010.100
0
LINE
8
описания
10
1673.900
20
-8999.800
11
1675.600
21
-9004.900
0
LINE
8
описания
10
1675.600
20
-9004.900
11
1679.100
21
-9008.400
0
LINE
8
описания
10
1679.100
20
-9008.400
11
1684.200
21
-9010.100
0
LINE
8
описания
10
1684.200
20
-9010.100
11
1694.500
21
-9010.100
0
LINE
8
описания
10
1694.500
20
-9010.100
11
1699.600
21
-9008.400
0
LINE
8
описания
10
1699.600
20
-9008.400
11
1703.000
21
-9004.900
0
LINE
8
описания
10
1703.000
20
-9004.900
11
1704.700
21
-8999.800
0
LINE
8
описания
10
1704.700
20
-8999.800
11
1704.700
21
-8969.000
0
LINE
8
описания
10
1704.700
20
-8969.000
11
1703.000
21
-8963.900
0
LINE
8
описания
10
1703.000
20
-8963.900
11
1699.600
21
-8960.400
0
LINE
8
описания
10
1699.600
20
-8960.400
11
1694.500
21
-8958.700
0
LINE
8
описания
10
1694.500
20
-8958.700
11
1684.200
21
-8958.700
0
LINE
8
описания
10
1684.200
20
-8958.700
11
1679.100
21
-8960.400
0
LINE
8
описания
10
1679.100
20
-8960.400
11
1675.600
21
-8963.900
0
LINE
8
описания
10
1675.600
20
-8963.900
11
1673.900
21
-8969.000
0
LINE
8
описания
10
1673.900
20
-8969.000
11
1673.900
21
-8999.800
0
LINE
8
описания
10
1725.100
20
-8958.700
11
1725.100
21
-9010.100
0
LINE
8
описания
10
1725.100
20
-8984.400
11
1754.200
21
-8984.400
0
LINE
8
описания
10
1754.200
20
-8958.700
11
1754.200
21
-9010.100
0
LINE
8
описания
10
1774.600
20
-9010.100
11
1774.600
21
-8958.700
0
LINE
8
описания
10
1774.600
20
-8958.700
11
1808.900
21
-8958.700
0
LINE
8
описания
10
1808.900
20
-8958.700
11
1814.000
21
-8960.400
0
LINE
8
описания
10
1814.000
20
-8960.400
11
1817.400
21
-8963.900
0
LINE
8
описания
10
1817.400
20
-8963.900
11
1819.200
21
-8969.000
0
LINE
8
описания
10
1819.200
20
-8969.000
11
1819.200
21
-9010.100
0
LINE
8
описания
10
1796.900
20
-8958.700
11
1796.900
21
-9010.100
0
LINE
8
описания
10
1839.600
20
-9028.900
11
1839.600
21
-8958.700
0
LINE
8
описания
10
1839.600
20
-8958.700
11
1860.100
21
-8958.700
0
LINE
8
описания
10
1860.100
20
-8958.700
11
1865.200
21
-8960.400
0
LINE
8
описания
10
1865.200
20
-8960.400
11
1868.700
21
-8963.900
0
LINE
8
описания
10
1868.700
20
-8963.900
11
1870.400
21
-8969.000
0
LINE
8
описания
10
1870.400
20
-8969.000
11
1870.400
21
-8999.800
0
LINE
8
описания
10
1870.400
20
-8999.800
11
1868.700
21
-9004.900
0
LINE
8
описания
10
1868.700
20
-9004.900
11
1865.200
21
-9008.400
0
LINE
8
описания
10
1865.200
20
-9008.400
11
1860.100
21
-9010.100
0
LINE
8
описания
10
1860.100
20
-9010.100
11
1839.600
21
-9010.100
0
LINE
8
описания
10
1544.300
20
-9319.700
11
1544.300
21
-9396.700
0
LINE
8
описания
10
1544.300
20
-9355.600
11
1578.500
21
-9355.600
0
LINE
8
описания
10
1578.500
20
-9319.700
11
1578.500
21
-9396.700
0
LINE
8
описания
10
1600.600
20
-9393.300
11
1598.900
21
-9395.000
0
LINE
8
описания
10
1598.900
20
-9395.000
11
1600.600
21
-9396.700
0
LINE
8
описания
10
1600.600
20
-9396.700
11
1602.300
21
-9395.000
0
LINE
8
описания
10
1602.300
20
-9395.000
11
1600.600
21
-9393.300
0
LINE
8
описания
10
1622.700
20
-9396.700
11
1622.700
21
-9345.300
0
LINE
8
описания
10
1622.700
20
-9374.400
11
1653.500
21
-9345.300
0
LINE
8
описания
10
1631.300
20
-9367.600
11
1653.500
21
-9396.700
0
LINE
8
описания
10
1673.900
20
-9386.400
11
1675.600
21
-9391.500
0
LINE
8
описания
10
1675.600
20
-9391.500
11
1679.100
21
-9395.000
0
LINE
8
описания
10
1679.100
20
-9395.000
11
1684.200
21
-9396.700
0
LINE
8
описания
10
1684.200
20
-9396.700
11
1694.500
21
-9396.700
0
LINE
8
описания
10
1694.500
20
-9396.700
11
1699.600
21
-9395.000
0
LINE
8
описания
10
1699.600
20
-9395.000
11
1703.000
21
-9391.500
0
LINE
8
описания
10
1703.000
20
-9391.500
11
1704.700
21
-9386.400
0
LINE
8
описания
10
1704.700
20
-9386.400
11
1704.700
21
-9355.600
0
LINE
8
описания
10
1704.700
20
-9355.600
11
1703.000
21
-9350.500
0
LINE
8
описания
10
1703.000
20
-9350.500
11
1699.600
21
-9347.000
0
LINE
8
описания
10
1699.600
20
-9347.000
11
1694.500
21
-9345.300
0
LINE
8
описания
10
1694.500
20
-9345.300
11
1684.200
21
-9345.300
0
LINE
8
описания
10
1684.200
20
-9345.300
11
1679.100
21
-9347.000
0
LINE
8
описания
10
1679.100
20
-9347.000
11
1675.600
21
-9350.500
0
LINE
8
описания
10
1675.600
20
-9350.500
11
1673.900
21
-9355.600
0
LINE
8
описания
10
1673.900
20
-9355.600
11
1673.900
21
-9386.400
0
LINE
8
описания
10
1725.100
20
-9345.300
11
1725.100
21
-9396.700
0
LINE
8
описания
10
1725.100
20
-9371.000
11
1754.200
21
-9371.000
0
LINE
8
описания
10
1754.200
20
-9345.300
11
1754.200
21
-9396.700
0
LINE
8
описания
10
1774.600
20
-9396.700
11
1774.600
21
-9345.300
0
LINE
8
описания
10
1774.600
20
-9345.300
11
1808.900
21
-9345.300
0
LINE
8
описания
10
1808.900
20
-9345.300
11
1814.000
21
-9347.000
0
LINE
8
описания
10
1814.000
20
-9347.000
11
1817.400
21
-9350.500
0
LINE
8
описания
10
1817.400
20
-9350.500
11
1819.200
21
-9355.600
0
LINE
8
описания
10
1819.200
20
-9355.600
11
1819.200
21
-9396.700
0
LINE
8
описания
10
1796.900
20
-9345.300
11
1796.900
21
-9396.700
0
LINE
8
описания
10
1839.600
20
-9415.500
11
1839.600
21
-9345.300
0
LINE
8
описания
10
1839.600
20
-9345.300
11
1860.100
21
-9345.300
0
LINE
8
описания
10
1860.100
20
-9345.300
11
1865.200
21
-9347.000
0
LINE
8
описания
10
1865.200
20
-9347.000
11
1868.700
21
-9350.500
0
LINE
8
описания
10
1868.700
20
-9350.500
11
1870.400
21
-9355.600
0
LINE
8
описания
10
1870.400
20
-9355.600
11
1870.400
21
-9386.400
0
LINE
8
описания
10
1870.400
20
-9386.400
11
1868.700
21
-9391.500
0
LINE
8
описания
10
1868.700
20
-9391.500
11
1865.200
21
-9395.000
0
LINE
8
описания
10
1865.200
20
-9395.000
11
1860.100
21
-9396.700
0
LINE
8
описания
10
1860.100
20
-9396.700
11
1839.600
21
-9396.700
0
LINE
8
описания
10
1544.300
20
-9530.700
11
1544.300
21
-9561.500
0
LINE
8
описания
10
1544.300
20
-9561.500
11
1546.000
21
-9566.600
0
LINE
8
описания
10
1546.000
20
-9566.600
11
1549.400
21
-9570.000
0
LINE
8
описания
10
1549.400
20
-9570.000
11
1554.500
21
-9571.800
0
LINE
8
описания
10
1554.500
20
-9571.800
11
1578.500
21
-9571.800
0
LINE
8
описания
10
1578.500
20
-9530.700
11
1578.500
21
-9597.400
0
LINE
8
описания
10
1578.500
20
-9597.400
11
1576.800
21
-9602.600
0
LINE
8
описания
10
1576.800
20
-9602.600
11
1573.400
21
-9606.000
0
LINE
8
описания
10
1573.400
20
-9606.000
11
1568.200
21
-9607.700
0
LINE
8
описания
10
1568.200
20
-9607.700
11
1549.400
21
-9607.700
0
LINE
8
описания
10
1598.900
20
-9607.700
11
1598.900
21
-9556.400
0
LINE
8
описания
10
1598.900
20
-9556.400
11
1633.100
21
-9556.400
0
LINE
8
описания
10
1633.100
20
-9556.400
11
1638.300
21
-9558.100
0
LINE
8
описания
10
1638.300
20
-9558.100
11
1641.700
21
-9561.500
0
LINE
8
описания
10
1641.700
20
-9561.500
11
1643.400
21
-9566.600
0
LINE
8
описания
10
1643.400
20
-9566.600
11
1643.400
21
-9607.700
0
LINE
8
описания
10
1621.200
20
-9556.400
11
1621.200
21
-9607.700
0
LINE
8
описания
10
1684.300
20
-9556.400
11
1674.100
21
-9556.400
0
LINE
8
описания
10
1674.100
20
-9556.400
11
1668.900
21
-9558.100
0
LINE
8
описания
10
1668.900
20
-9558.100
11
1665.500
21
-9561.500
0
LINE
8
описания
10
1665.500
20
-9561.500
11
1663.800
21
-9566.600
0
LINE
8
описания
10
1663.800
20
-9566.600
11
1663.800
21
-9595.700
0
LINE
8
описания
10
1663.800
20
-9595.700
11
1665.500
21
-9602.600
0
LINE
8
описания
10
1665.500
20
-9602.600
11
1668.900
21
-9606.000
0
LINE
8
описания
10
1668.900
20
-9606.000
11
1674.100
21
-9607.700
0
LINE
8
описания
10
1674.100
20
-9607.700
11
1684.300
21
-9607.700
0
LINE
8
описания
10
1684.300
20
-9607.700
11
1689.500
21
-9606.000
0
LINE
8
описания
10
1689.500
20
-9606.000
11
1692.900
21
-9602.600
0
LINE
8
описания
10
1692.900
20
-9602.600
11
1694.600
21
-9597.400
0
LINE
8
описания
10
1694.600
20
-9597.400
11
1694.600
21
-9566.600
0
LINE
8
описания
10
1694.600
20
-9566.600
11
1692.900
21
-9561.500
0
LINE
8
описания
10
1692.900
20
-9561.500
11
1689.500
21
-9558.100
0
LINE
8
описания
10
1689.500
20
-9558.100
11
1684.300
21
-9556.400
0
LINE
8
описания
10
1663.800
20
-9566.600
11
1663.800
21
-9540.900
0
LINE
8
описания
10
1663.800
20
-9540.900
11
1665.500
21
-9535.800
0
LINE
8
описания
10
1665.500
20
-9535.800
11
1668.900
21
-9532.400
0
LINE
8
описания
10
1668.900
20
-9532.400
11
1674.100
21
-9530.700
0
LINE
8
описания
10
1674.100
20
-9530.700
11
1679.200
21
-9532.400
0
LINE
8
описания
10
1679.200
20
-9532.400
11
1682.600
21
-9535.800
0
LINE
8
описания
10
1682.600
20
-9535.800
11
1684.300
21
-9540.900
0
LINE
8
описания
10
1684.300
20
-9540.900
11
1682.600
21
-9546.100
0
LINE
8
описания
10
1682.600
20
-9546.100
11
1668.900
21
-9558.100
0
LINE
8
описания
10
1716.700
20
-9604.300
11
1715.000
21
-9606.000
0
LINE
8
описания
10
1715.000
20
-9606.000
11
1716.700
21
-9607.700
0
LINE
8
описания
10
1716.700
20
-9607.700
11
1718.400
21
-9606.000
0
LINE
8
описания
10
1718.400
20
-9606.000
11
1716.700
21
-9604.300
0
LINE
8
описания
10
1512.800
20
-8350.400
11
1512.800
21
-8427.400
0
LINE
8
описания
10
1512.800
20
-8427.400
11
1547.000
21
-8350.400
0
LINE
8
описания
10
1547.000
20
-8350.400
11
1547.000
21
-8427.400
0
LINE
8
описания
10
1570.800
20
-8381.200
11
1574.300
21
-8377.800
0
LINE
8
описания
10
1574.300
20
-8377.800
11
1579.400
21
-8376.000
0
LINE
8
описания
10
1579.400
20
-8376.000
11
1586.200
21
-8376.000
0
LINE
8
описания
10
1586.200
20
-8376.000
11
1591.400
21
-8377.800
0
LINE
8
описания
10
1591.400
20
-8377.800
11
1594.800
21
-8381.200
0
LINE
8
описания
10
1594.800
20
-8381.200
11
1596.500
21
-8386.300
0
LINE
8
описания
10
1596.500
20
-8386.300
11
1596.500
21
-8389.700
0
LINE
8
описания
10
1596.500
20
-8389.700
11
1594.800
21
-8394.900
0
LINE
8
описания
10
1594.800
20
-8394.900
11
1591.400
21
-8398.300
0
LINE
8
описания
10
1591.400
20
-8398.300
11
1586.200
21
-8400.000
0
LINE
8
описания
10
1586.200
20
-8400.000
11
1577.700
21
-8400.000
0
LINE
8
описания
10
1586.200
20
-8400.000
11
1591.400
21
-8401.700
0
LINE
8
описания
10
1591.400
20
-8401.700
11
1594.800
21
-8405.100
0
LINE
8
описания
10
1594.800
20
-8405.100
11
1596.500
21
-8410.300
0
LINE
8
описания
10
1596.500
20
-8410.300
11
1596.500
21
-8417.100
0
LINE
8
описания
10
1596.500
20
-8417.100
11
1594.800
21
-8422.300
0
LINE
8
описания
10
1594.800
20
-8422.300
11
1591.400
21
-8425.700
0
LINE
8
описания
10
1591.400
20
-8425.700
11
1586.200
21
-8427.400
0
LINE
8
описания
10
1586.200
20
-8427.400
11
1577.700
21
-8427.400
0
LINE
8
описания
10
1577.700
20
-8427.400
11
1572.500
21
-8425.700
0
LINE
8
описания
10
1572.500
20
-8425.700
11
1569.100
21
-8422.300
0
LINE
8
описания
10
1569.100
20
-8422.300
11
1567.400
21
-8417.100
0
LINE
8
описания
10
1616.900
20
-8427.400
11
1616.900
21
-8376.000
0
LINE
8
описания
10
1616.900
20
-8376.000
11
1634.000
21
-8401.700
0
LINE
8
описания
10
1634.000
20
-8401.700
11
1651.100
21
-8376.000
0
LINE
8
описания
10
1651.100
20
-8376.000
11
1651.100
21
-8427.400
0
LINE
8
описания
10
1673.300
20
-8424.000
11
1671.500
21
-8425.700
0
LINE
8
описания
10
1671.500
20
-8425.700
11
1673.300
21
-8427.400
0
LINE
8
описания
10
1673.300
20
-8427.400
11
1675.000
21
-8425.700
0
LINE
8
описания
10
1675.000
20
-8425.700
11
1673.300
21
-8424.000
0
LINE
8
описания
10
1788.400
20
-8427.400
11
1812.300
21
-8350.400
0
LINE
8
описания
10
1812.300
20
-8350.400
11
1829.400
21
-8350.400
0
LINE
8
описания
10
1829.400
20
-8350.400
11
1829.400
21
-8427.400
0
LINE
8
описания
10
1849.800
20
-8376.000
11
1849.800
21
-8417.100
0
LINE
8
описания
10
1849.800
20
-8417.100
11
1851.600
21
-8422.300
0
LINE
8
описания
10
1851.600
20
-8422.300
11
1855.000
21
-8425.700
0
LINE
8
описания
10
1855.000
20
-8425.700
11
1860.100
21
-8427.400
0
LINE
8
описания
10
1860.100
20
-8427.400
11
1880.700
21
-8427.400
0
LINE
8
описания
10
1880.700
20
-8427.400
11
1880.700
21
-8376.000
0
LINE
8
описания
10
1928.400
20
-8376.000
11
1911.300
21
-8376.000
0
LINE
8
описания
10
1911.300
20
-8376.000
11
1906.200
21
-8377.800
0
LINE
8
описания
10
1906.200
20
-8377.800
11
1902.800
21
-8381.200
0
LINE
8
описания
10
1902.800
20
-8381.200
11
1901.100
21
-8386.300
0
LINE
8
описания
10
1901.100
20
-8386.300
11
1901.100
21
-8417.100
0
LINE
8
описания
10
1901.100
20
-8417.100
11
1902.800
21
-8422.300
0
LINE
8
описания
10
1902.800
20
-8422.300
11
1906.200
21
-8425.700
0
LINE
8
описания
10
1906.200
20
-8425.700
11
1911.300
21
-8427.400
0
LINE
8
описания
10
1911.300
20
-8427.400
11
1928.400
21
-8427.400
0
LINE
8
описания
10
1948.800
20
-8427.400
11
1948.800
21
-8376.000
0
LINE
8
описания
10
1948.800
20
-8376.000
11
1983.100
21
-8376.000
0
LINE
8
описания
10
1983.100
20
-8376.000
11
1988.200
21
-8377.800
0
LINE
8
описания
10
1988.200
20
-8377.800
11
1991.600
21
-8381.200
0
LINE
8
описания
10
1991.600
20
-8381.200
11
1993.300
21
-8386.300
0
LINE
8
описания
10
1993.300
20
-8386.300
11
1993.300
21
-8427.400
0
LINE
8
описания
10
1971.100
20
-8376.000
11
1971.100
21
-8427.400
0
LINE
8
описания
10
2300.200
20
-8427.400
11
2300.200
21
-8350.400
0
LINE
8
описания
10
2300.200
20
-8350.400
11
2334.400
21
-8427.400
0
LINE
8
описания
10
2334.400
20
-8427.400
11
2334.400
21
-8350.400
0
LINE
8
описания
10
2353.200
20
-8350.400
11
2349.800
21
-8352.100
0
LINE
8
описания
10
2349.800
20
-8352.100
11
2348.100
21
-8353.800
0
LINE
8
описания
10
2348.100
20
-8353.800
11
2346.400
21
-8357.200
0
LINE
8
описания
10
2346.400
20
-8357.200
11
2346.400
21
-8367.500
0
LINE
8
описания
10
2346.400
20
-8367.500
11
2348.100
21
-8370.900
0
LINE
8
описания
10
2348.100
20
-8370.900
11
2349.800
21
-8372.600
0
LINE
8
описания
10
2349.800
20
-8372.600
11
2353.200
21
-8374.300
0
LINE
8
описания
10
2353.200
20
-8374.300
11
2354.900
21
-8374.300
0
LINE
8
описания
10
2354.900
20
-8374.300
11
2358.400
21
-8372.600
0
LINE
8
описания
10
2358.400
20
-8372.600
11
2360.100
21
-8370.900
0
LINE
8
описания
10
2360.100
20
-8370.900
11
2361.800
21
-8367.500
0
LINE
8
описания
10
2361.800
20
-8367.500
11
2361.800
21
-8357.200
0
LINE
8
описания
10
2361.800
20
-8357.200
11
2360.100
21
-8353.800
0
LINE
8
описания
10
2360.100
20
-8353.800
11
2358.400
21
-8352.100
0
LINE
8
описания
10
2358.400
20
-8352.100
11
2354.900
21
-8350.400
0
LINE
8
описания
10
2354.900
20
-8350.400
11
2353.200
21
-8350.400
0
LINE
8
описания
10
2437.000
20
-8376.000
11
2416.400
21
-8376.000
0
LINE
8
описания
10
2416.400
20
-8376.000
11
2411.300
21
-8377.800
0
LINE
8
описания
10
2411.300
20
-8377.800
11
2407.900
21
-8381.200
0
LINE
8
описания
10
2407.900
20
-8381.200
11
2406.200
21
-8386.300
0
LINE
8
описания
10
2406.200
20
-8386.300
11
2406.200
21
-8417.100
0
LINE
8
описания
10
2406.200
20
-8417.100
11
2407.900
21
-8422.300
0
LINE
8
описания
10
2407.900
20
-8422.300
11
2411.300
21
-8425.700
0
LINE
8
описания
10
2411.300
20
-8425.700
11
2416.400
21
-8427.400
0
LINE
8
описания
10
2416.400
20
-8427.400
11
2437.000
21
-8427.400
0
LINE
8
описания
10
2437.000
20
-8427.400
11
2437.000
21
-8425.700
0
LINE
8
описания
10
2437.000
20
-8425.700
11
2437.000
21
-8422.300
0
LINE
8
описания
10
2437.000
20
-8422.300
11
2437.000
21
-8417.100
0
LINE
8
описания
10
2437.000
20
-8417.100
11
2437.000
21
-8360.600
0
LINE
8
описания
10
2437.000
20
-8360.600
11
2435.300
21
-8355.500
0
LINE
8
описания
10
2435.300
20
-8355.500
11
2431.800
21
-8352.100
0
LINE
8
описания
10
2431.800
20
-8352.100
11
2426.700
21
-8350.400
0
LINE
8
описания
10
2426.700
20
-8350.400
11
2406.200
21
-8350.400
0
LINE
8
описания
10
2457.400
20
-8417.100
11
2459.100
21
-8422.300
0
LINE
8
описания
10
2459.100
20
-8422.300
11
2462.500
21
-8425.700
0
LINE
8
описания
10
2462.500
20
-8425.700
11
2467.600
21
-8427.400
0
LINE
8
описания
10
2467.600
20
-8427.400
11
2477.900
21
-8427.400
0
LINE
8
описания
10
2477.900
20
-8427.400
11
2483.000
21
-8425.700
0
LINE
8
описания
10
2483.000
20
-8425.700
11
2486.500
21
-8422.300
0
LINE
8
описания
10
2486.500
20
-8422.300
11
2488.200
21
-8417.100
0
LINE
8
описания
10
2488.200
20
-8417.100
11
2488.200
21
-8386.300
0
LINE
8
описания
10
2488.200
20
-8386.300
11
2486.500
21
-8381.200
0
LINE
8
описания
10
2486.500
20
-8381.200
11
2483.000
21
-8377.800
0
LINE
8
описания
10
2483.000
20
-8377.800
11
2477.900
21
-8376.000
0
LINE
8
описания
10
2477.900
20
-8376.000
11
2467.600
21
-8376.000
0
LINE
8
описания
10
2467.600
20
-8376.000
11
2462.500
21
-8377.800
0
LINE
8
описания
10
2462.500
20
-8377.800
11
2459.100
21
-8381.200
0
LINE
8
описания
10
2459.100
20
-8381.200
11
2457.400
21
-8386.300
0
LINE
8
описания
10
2457.400
20
-8386.300
11
2457.400
21
-8417.100
0
LINE
8
описания
10
2508.600
20
-8427.400
11
2508.600
21
-8376.000
0
LINE
8
описания
10
2508.600
20
-8405.100
11
2539.400
21
-8376.000
0
LINE
8
описания
10
2517.100
20
-8398.300
11
2539.400
21
-8427.400
0
LINE
8
описания
10
2559.800
20
-8376.000
11
2559.800
21
-8417.100
0
LINE
8
описания
10
2559.800
20
-8417.100
11
2561.500
21
-8422.300
0
LINE
8
описания
10
2561.500
20
-8422.300
11
2564.900
21
-8425.700
0
LINE
8
описания
10
2564.900
20
-8425.700
11
2570.100
21
-8427.400
0
LINE
8
описания
10
2570.100
20
-8427.400
11
2590.600
21
-8427.400
0
LINE
8
описания
10
2590.600
20
-8376.000
11
2590.600
21
-8439.400
0
LINE
8
описания
10
2590.600
20
-8439.400
11
2588.900
21
-8444.500
0
LINE
8
описания
10
2588.900
20
-8444.500
11
2585.500
21
-8447.900
0
LINE
8
описания
10
2585.500
20
-8447.900
11
2580.300
21
-8449.600
0
LINE
8
описания
10
2580.300
20
-8449.600
11
2561.500
21
-8449.600
0
LINE
8
описания
10
2611.000
20
-8427.400
11
2611.000
21
-8376.000
0
LINE
8
описания
10
2611.000
20
-8376.000
11
2628.100
21
-8401.700
0
LINE
8
описания
10
2628.100
20
-8401.700
11
2645.200
21
-8376.000
0
LINE
8
описания
10
2645.200
20
-8376.000
11
2645.200
21
-8427.400
0
LINE
8
описания
10
2667.400
20
-8424.000
11
2665.600
21
-8425.700
0
LINE
8
описания
10
2665.600
20
-8425.700
11
2667.400
21
-8427.400
0
LINE
8
описания
10
2667.400
20
-8427.400
11
2669.100
21
-8425.700
0
LINE
8
описания
10
2669.100
20
-8425.700
11
2667.400
21
-8424.000
0
LINE
8
описания
10
3191.500
20
-8427.400
11
3191.500
21
-8350.400
0
LINE
8
описания
10
3191.500
20
-8350.400
11
3225.700
21
-8350.400
0
LINE
8
описания
10
3225.700
20
-8350.400
11
3225.700
21
-8427.400
0
LINE
8
описания
10
3246.100
20
-8417.100
11
3247.900
21
-8422.300
0
LINE
8
описания
10
3247.900
20
-8422.300
11
3251.300
21
-8425.700
0
LINE
8
описания
10
3251.300
20
-8425.700
11
3256.400
21
-8427.400
0
LINE
8
описания
10
3256.400
20
-8427.400
11
3266.700
21
-8427.400
0
LINE
8
описания
10
3266.700
20
-8427.400
11
3271.800
21
-8425.700
0
LINE
8
описания
10
3271.800
20
-8425.700
11
3275.200
21
-8422.300
0
LINE
8
описания
10
3275.200
20
-8422.300
11
3277.000
21
-8417.100
0
LINE
8
описания
10
3277.000
20
-8417.100
11
3277.000
21
-8386.300
0
LINE
8
описания
10
3277.000
20
-8386.300
11
3275.200
21
-8381.200
0
LINE
8
описания
10
3275.200
20
-8381.200
11
3271.800
21
-8377.800
0
LINE
8
описания
10
3271.800
20
-8377.800
11
3266.700
21
-8376.000
0
LINE
8
описания
10
3266.700
20
-8376.000
11
3256.400
21
-8376.000
0
LINE
8
описания
10
3256.400
20
-8376.000
11
3251.300
21
-8377.800
0
LINE
8
описания
10
3251.300
20
-8377.800
11
3247.900
21
-8381.200
0
LINE
8
описания
10
3247.900
20
-8381.200
11
3246.100
21
-8386.300
0
LINE
8
описания
10
3246.100
20
-8386.300
11
3246.100
21
-8417.100
0
LINE
8
описания
10
3328.200
20
-8376.000
11
3307.600
21
-8376.000
0
LINE
8
описания
10
3307.600
20
-8376.000
11
3302.500
21
-8377.800
0
LINE
8
описания
10
3302.500
20
-8377.800
11
3299.100
21
-8381.200
0
LINE
8
описания
10
3299.100
20
-8381.200
11
3297.400
21
-8386.300
0
LINE
8
описания
10
3297.400
20
-8386.300
11
3297.400
21
-8417.100
0
LINE
8
описания
10
3297.400
20
-8417.100
11
3299.100
21
-8422.300
0
LINE
8
описания
10
3299.100
20
-8422.300
11
3302.500
21
-8425.700
0
LINE
8
описания
10
3302.500
20
-8425.700
11
3307.600
21
-8427.400
0
LINE
8
описания
10
3307.600
20
-8427.400
11
3328.200
21
-8427.400
0
LINE
8
описания
10
3328.200
20
-8427.400
11
3328.200
21
-8425.700
0
LINE
8
описания
10
3328.200
20
-8425.700
11
3328.200
21
-8422.300
0
LINE
8
описания
10
3328.200
20
-8422.300
11
3328.200
21
-8417.100
0
LINE
8
описания
10
3328.200
20
-8417.100
11
3328.200
21
-8360.600
0
LINE
8
описания
10
3328.200
20
-8360.600
11
3326.500
21
-8355.500
0
LINE
8
описания
10
3326.500
20
-8355.500
11
3323.000
21
-8352.100
0
LINE
8
описания
10
3323.000
20
-8352.100
11
3317.900
21
-8350.400
0
LINE
8
описания
10
3317.900
20
-8350.400
11
3297.400
21
-8350.400
0
LINE
8
описания
10
3348.600
20
-8427.400
11
3348.600
21
-8376.000
0
LINE
8
описания
10
3348.600
20
-8376.000
11
3369.100
21
-8376.000
0
LINE
8
описания
10
3369.100
20
-8376.000
11
3374.200
21
-8377.800
0
LINE
8
описания
10
3374.200
20
-8377.800
11
3377.700
21
-8381.200
0
LINE
8
описания
10
3377.700
20
-8381.200
11
3379.400
21
-8386.300
0
LINE
8
описания
10
3379.400
20
-8386.300
11
3379.400
21
-8427.400
0
LINE
8
описания
10
3401.500
20
-8424.000
11
3399.800
21
-8425.700
0
LINE
8
описания
10
3399.800
20
-8425.700
11
3401.500
21
-8427.400
0
LINE
8
описания
10
3401.500
20
-8427.400
11
3403.200
21
-8425.700
0
LINE
8
описания
10
3403.200
20
-8425.700
11
3401.500
21
-8424.000
0
LINE
8
описания
10
3667.100
20
-8432.500
11
3667.100
21
-8427.400
0
LINE
8
описания
10
3667.100
20
-8427.400
11
3709.900
21
-8427.400
0
LINE
8
описания
10
3709.900
20
-8427.400
11
3709.900
21
-8432.500
0
LINE
8
описания
10
3673.900
20
-8427.400
11
3679.100
21
-8350.400
0
LINE
8
описания
10
3679.100
20
-8350.400
11
3703.000
21
-8350.400
0
LINE
8
описания
10
3703.000
20
-8350.400
11
3703.000
21
-8427.400
0
LINE
8
описания
10
3761.100
20
-8376.000
11
3740.600
21
-8376.000
0
LINE
8
описания
10
3740.600
20
-8376.000
11
3735.400
21
-8377.800
0
LINE
8
описания
10
3735.400
20
-8377.800
11
3732.000
21
-8381.200
0
LINE
8
описания
10
3732.000
20
-8381.200
11
3730.300
21
-8386.300
0
LINE
8
описания
10
3730.300
20
-8386.300
11
3730.300
21
-8417.100
0
LINE
8
описания
10
3730.300
20
-8417.100
11
3732.000
21
-8422.300
0
LINE
8
описания
10
3732.000
20
-8422.300
11
3735.400
21
-8425.700
0
LINE
8
описания
10
3735.400
20
-8425.700
11
3740.600
21
-8427.400
0
LINE
8
описания
10
3740.600
20
-8427.400
11
3750.800
21
-8427.400
0
LINE
8
описания
10
3750.800
20
-8427.400
11
3756.000
21
-8425.700
0
LINE
8
описания
10
3756.000
20
-8425.700
11
3759.400
21
-8422.300
0
LINE
8
описания
10
3759.400
20
-8422.300
11
3761.100
21
-8417.100
0
LINE
8
описания
10
3761.100
20
-8417.100
11
3761.100
21
-8376.000
0
LINE
8
описания
10
3761.100
20
-8417.100
11
3761.100
21
-8420.500
0
LINE
8
описания
10
3761.100
20
-8420.500
11
3764.500
21
-8425.700
0
LINE
8
описания
10
3764.500
20
-8425.700
11
3768.000
21
-8427.400
0
LINE
8
описания
10
3788.400
20
-8427.400
11
3788.400
21
-8376.000
0
LINE
8
описания
10
3788.400
20
-8376.000
11
3822.600
21
-8376.000
0
LINE
8
описания
10
3822.600
20
-8376.000
11
3827.700
21
-8377.800
0
LINE
8
описания
10
3827.700
20
-8377.800
11
3831.100
21
-8381.200
0
LINE
8
описания
10
3831.100
20
-8381.200
11
3832.900
21
-8386.300
0
LINE
8
описания
10
3832.900
20
-8386.300
11
3832.900
21
-8427.400
0
LINE
8
описания
10
3810.600
20
-8376.000
11
3810.600
21
-8427.400
0
LINE
8
описания
10
3884.100
20
-8376.000
11
3863.500
21
-8376.000
0
LINE
8
описания
10
3863.500
20
-8376.000
11
3858.400
21
-8377.800
0
LINE
8
описания
10
3858.400
20
-8377.800
11
3855.000
21
-8381.200
0
LINE
8
описания
10
3855.000
20
-8381.200
11
3853.300
21
-8386.300
0
LINE
8
описания
10
3853.300
20
-8386.300
11
3853.300
21
-8417.100
0
LINE
8
описания
10
3853.300
20
-8417.100
11
3855.000
21
-8422.300
0
LINE
8
описания
10
3855.000
20
-8422.300
11
3858.400
21
-8425.700
0
LINE
8
описания
10
3858.400
20
-8425.700
11
3863.500
21
-8427.400
0
LINE
8
описания
10
3863.500
20
-8427.400
11
3873.800
21
-8427.400
0
LINE
8
описания
10
3873.800
20
-8427.400
11
3878.900
21
-8425.700
0
LINE
8
описания
10
3878.900
20
-8425.700
11
3882.400
21
-8422.300
0
LINE
8
описания
10
3882.400
20
-8422.300
11
3884.100
21
-8417.100
0
LINE
8
описания
10
3884.100
20
-8417.100
11
3884.100
21
-8376.000
0
LINE
8
описания
10
3884.100
20
-8417.100
11
3884.100
21
-8420.500
0
LINE
8
описания
10
3884.100
20
-8420.500
11
3887.500
21
-8425.700
0
LINE
8
описания
10
3887.500
20
-8425.700
11
3890.900
21
-8427.400
0
LINE
8
описания
10
2292.300
20
-8556.700
11
2292.300
21
-8633.700
0
LINE
8
описания
10
2292.300
20
-8592.600
11
2326.500
21
-8592.600
0
LINE
8
описания
10
2326.500
20
-8556.700
11
2326.500
21
-8633.700
0
LINE
8
описания
10
2346.900
20
-8582.300
11
2346.900
21
-8623.400
0
LINE
8
описания
10
2346.900
20
-8623.400
11
2348.600
21
-8628.600
0
LINE
8
описания
10
2348.600
20
-8628.600
11
2352.100
21
-8632.000
0
LINE
8
описания
10
2352.100
20
-8632.000
11
2357.200
21
-8633.700
0
LINE
8
описания
10
2357.200
20
-8633.700
11
2377.700
21
-8633.700
0
LINE
8
описания
10
2377.700
20
-8633.700
11
2377.700
21
-8582.300
0
LINE
8
описания
10
2398.100
20
-8633.700
11
2398.100
21
-8582.300
0
LINE
8
описания
10
2398.100
20
-8611.400
11
2429.000
21
-8582.300
0
LINE
8
описания
10
2406.700
20
-8604.600
11
2429.000
21
-8633.700
0
LINE
8
описания
10
2449.400
20
-8623.400
11
2451.100
21
-8628.600
0
LINE
8
описания
10
2451.100
20
-8628.600
11
2454.500
21
-8632.000
0
LINE
8
описания
10
2454.500
20
-8632.000
11
2459.600
21
-8633.700
0
LINE
8
описания
10
2459.600
20
-8633.700
11
2469.900
21
-8633.700
0
LINE
8
описания
10
2469.900
20
-8633.700
11
2475.000
21
-8632.000
0
LINE
8
описания
10
2475.000
20
-8632.000
11
2478.500
21
-8628.600
0
LINE
8
описания
10
2478.500
20
-8628.600
11
2480.200
21
-8623.400
0
LINE
8
описания
10
2480.200
20
-8623.400
11
2480.200
21
-8592.600
0
LINE
8
описания
10
2480.200
20
-8592.600
11
2478.500
21
-8587.500
0
LINE
8
описания
10
2478.500
20
-8587.500
11
2475.000
21
-8584.000
0
LINE
8
описания
10
2475.000
20
-8584.000
11
2469.900
21
-8582.300
0
LINE
8
описания
10
2469.900
20
-8582.300
11
2459.600
21
-8582.300
0
LINE
8
описания
10
2459.600
20
-8582.300
11
2454.500
21
-8584.000
0
LINE
8
описания
10
2454.500
20
-8584.000
11
2451.100
21
-8587.500
0
LINE
8
описания
10
2451.100
20
-8587.500
11
2449.400
21
-8592.600
0
LINE
8
описания
10
2449.400
20
-8592.600
11
2449.400
21
-8623.400
0
LINE
8
описания
10
2500.600
20
-8582.300
11
2500.600
21
-8633.700
0
LINE
8
описания
10
2500.600
20
-8608.000
11
2529.700
21
-8608.000
0
LINE
8
описания
10
2529.700
20
-8582.300
11
2529.700
21
-8633.700
0
LINE
8
описания
10
2550.100
20
-8623.400
11
2551.800
21
-8628.600
0
LINE
8
описания
10
2551.800
20
-8628.600
11
2555.200
21
-8632.000
0
LINE
8
описания
10
2555.200
20
-8632.000
11
2560.300
21
-8633.700
0
LINE
8
описания
10
2560.300
20
-8633.700
11
2570.600
21
-8633.700
0
LINE
8
описания
10
2570.600
20
-8633.700
11
2575.700
21
-8632.000
0
LINE
8
описания
10
2575.700
20
-8632.000
11
2579.200
21
-8628.600
0
LINE
8
описания
10
2579.200
20
-8628.600
11
2580.900
21
-8623.400
0
LINE
8
описания
10
2580.900
20
-8623.400
11
2580.900
21
-8592.600
0
LINE
8
описания
10
2580.900
20
-8592.600
11
2579.200
21
-8587.500
0
LINE
8
описания
10
2579.200
20
-8587.500
11
2575.700
21
-8584.000
0
LINE
8
описания
10
2575.700
20
-8584.000
11
2570.600
21
-8582.300
0
LINE
8
описания
10
2570.600
20
-8582.300
11
2560.300
21
-8582.300
0
LINE
8
описания
10
2560.300
20
-8582.300
11
2555.200
21
-8584.000
0
LINE
8
описания
10
2555.200
20
-8584.000
11
2551.800
21
-8587.500
0
LINE
8
описания
10
2551.800
20
-8587.500
11
2550.100
21
-8592.600
0
LINE
8
описания
10
2550.100
20
-8592.600
11
2550.100
21
-8623.400
0
LINE
8
описания
10
2621.800
20
-8582.300
11
2611.600
21
-8582.300
0
LINE
8
описания
10
2611.600
20
-8582.300
11
2606.400
21
-8584.000
0
LINE
8
описания
10
2606.400
20
-8584.000
11
2603.000
21
-8587.500
0
LINE
8
описания
10
2603.000
20
-8587.500
11
2601.300
21
-8592.600
0
LINE
8
описания
10
2601.300
20
-8592.600
11
2601.300
21
-8621.700
0
LINE
8
описания
10
2601.300
20
-8621.700
11
2603.000
21
-8628.600
0
LINE
8
описания
10
2603.000
20
-8628.600
11
2606.400
21
-8632.000
0
LINE
8
описания
10
2606.400
20
-8632.000
11
2611.600
21
-8633.700
0
LINE
8
описания
10
2611.600
20
-8633.700
11
2621.800
21
-8633.700
0
LINE
8
описания
10
2621.800
20
-8633.700
11
2627.000
21
-8632.000
0
LINE
8
описания
10
2627.000
20
-8632.000
11
2630.400
21
-8628.600
0
LINE
8
описания
10
2630.400
20
-8628.600
11
2632.100
21
-8623.400
0
LINE
8
описания
10
2632.100
20
-8623.400
11
2632.100
21
-8592.600
0
LINE
8
описания
10
2632.100
20
-8592.600
11
2630.400
21
-8587.500
0
LINE
8
описания
10
2630.400
20
-8587.500
11
2627.000
21
-8584.000
0
LINE
8
описания
10
2627.000
20
-8584.000
11
2621.800
21
-8582.300
0
LINE
8
описания
10
2601.300
20
-8592.600
11
2601.300
21
-8566.900
0
LINE
8
описания
10
2601.300
20
-8566.900
11
2603.000
21
-8561.800
0
LINE
8
описания
10
2603.000
20
-8561.800
11
2606.400
21
-8558.400
0
LINE
8
описания
10
2606.400
20
-8558.400
11
2611.600
21
-8556.700
0
LINE
8
описания
10
2611.600
20
-8556.700
11
2616.700
21
-8558.400
0
LINE
8
описания
10
2616.700
20
-8558.400
11
2620.100
21
-8561.800
0
LINE
8
описания
10
2620.100
20
-8561.800
11
2621.800
21
-8566.900
0
LINE
8
описания
10
2621.800
20
-8566.900
11
2620.100
21
-8572.100
0
LINE
8
описания
10
2620.100
20
-8572.100
11
2606.400
21
-8584.000
0
LINE
8
описания
10
2676.500
20
-8633.700
11
2700.400
21
-8556.700
0
LINE
8
описания
10
2700.400
20
-8556.700
11
2717.500
21
-8556.700
0
LINE
8
описания
10
2717.500
20
-8556.700
11
2717.500
21
-8633.700
0
LINE
8
описания
10
2739.700
20
-8630.300
11
2737.900
21
-8632.000
0
LINE
8
описания
10
2737.900
20
-8632.000
11
2739.700
21
-8633.700
0
LINE
8
описания
10
2739.700
20
-8633.700
11
2741.400
21
-8632.000
0
LINE
8
описания
10
2741.400
20
-8632.000
11
2739.700
21
-8630.300
0
LINE
8
описания
10
2761.800
20
-8633.700
11
2782.300
21
-8556.700
0
LINE
8
описания
10
2782.300
20
-8556.700
11
2802.800
21
-8633.700
0
LINE
8
описания
10
2768.600
20
-8608.000
11
2796.000
21
-8608.000
0
LINE
8
описания
10
2825.000
20
-8630.300
11
2823.200
21
-8632.000
0
LINE
8
описания
10
2823.200
20
-8632.000
11
2825.000
21
-8633.700
0
LINE
8
описания
10
2825.000
20
-8633.700
11
2826.700
21
-8632.000
0
LINE
8
описания
10
2826.700
20
-8632.000
11
2825.000
21
-8630.300
0
LINE
8
описания
10
3645.800
20
-8569.800
11
3663.000
21
-8552.700
0
LINE
8
описания
10
3663.000
20
-8552.700
11
3663.000
21
-8629.800
0
LINE
8
описания
10
3705.600
20
-8552.700
11
3695.300
21
-8559.600
0
LINE
8
описания
10
3695.300
20
-8559.600
11
3686.800
21
-8571.600
0
LINE
8
описания
10
3686.800
20
-8571.600
11
3683.400
21
-8583.500
0
LINE
8
описания
10
3683.400
20
-8583.500
11
3683.400
21
-8617.800
0
LINE
8
описания
10
3683.400
20
-8617.800
11
3685.100
21
-8622.900
0
LINE
8
описания
10
3685.100
20
-8622.900
11
3690.200
21
-8628.000
0
LINE
8
описания
10
3690.200
20
-8628.000
11
3695.300
21
-8629.800
0
LINE
8
описания
10
3695.300
20
-8629.800
11
3705.600
21
-8629.800
0
LINE
8
описания
10
3705.600
20
-8629.800
11
3710.700
21
-8628.000
0
LINE
8
описания
10
3710.700
20
-8628.000
11
3715.900
21
-8622.900
0
LINE
8
описания
10
3715.900
20
-8622.900
11
3717.600
21
-8617.800
0
LINE
8
описания
10
3717.600
20
-8617.800
11
3717.600
21
-8598.900
0
LINE
8
описания
10
3717.600
20
-8598.900
11
3715.900
21
-8593.800
0
LINE
8
описания
10
3715.900
20
-8593.800
11
3710.700
21
-8588.700
0
LINE
8
описания
10
3710.700
20
-8588.700
11
3705.600
21
-8587.000
0
LINE
8
описания
10
3705.600
20
-8587.000
11
3683.400
21
-8587.000
0
LINE
8
описания
10
3739.700
20
-8626.300
11
3738.000
21
-8628.000
0
LINE
8
описания
10
3738.000
20
-8628.000
11
3739.700
21
-8629.800
0
LINE
8
описания
10
3739.700
20
-8629.800
11
3741.400
21
-8628.000
0
LINE
8
описания
10
3741.400
20
-8628.000
11
3739.700
21
-8626.300
0
LINE
8
описания
10
3778.900
20
-8552.700
11
3772.100
21
-8552.700
0
LINE
8
описания
10
3772.100
20
-8552.700
11
3767.000
21
-8554.400
0
LINE
8
описания
10
3767.000
20
-8554.400
11
3763.500
21
-8557.900
0
LINE
8
описания
10
3763.500
20
-8557.900
11
3761.800
21
-8563.000
0
LINE
8
описания
10
3761.800
20
-8563.000
11
3761.800
21
-8619.500
0
LINE
8
описания
10
3761.800
20
-8619.500
11
3763.500
21
-8624.600
0
LINE
8
описания
10
3763.500
20
-8624.600
11
3767.000
21
-8628.000
0
LINE
8
описания
10
3767.000
20
-8628.000
11
3772.100
21
-8629.800
0
LINE
8
описания
10
3772.100
20
-8629.800
11
3785.800
21
-8629.800
0
LINE
8
описания
10
3785.800
20
-8629.800
11
3790.900
21
-8628.000
0
LINE
8
описания
10
3790.900
20
-8628.000
11
3794.300
21
-8624.600
0
LINE
8
описания
10
3794.300
20
-8624.600
11
3796.100
21
-8619.500
0
LINE
8
описания
10
3796.100
20
-8619.500
11
3796.100
21
-8563.000
0
LINE
8
описания
10
3796.100
20
-8563.000
11
3794.300
21
-8557.900
0
LINE
8
описания
10
3794.300
20
-8557.900
11
3790.900
21
-8554.400
0
LINE
8
описания
10
3790.900
20
-8554.400
11
3785.800
21
-8552.700
0
LINE
8
описания
10
3785.800
20
-8552.700
11
3778.900
21
-8552.700
0
LINE
8
описания
10
3816.500
20
-8566.400
11
3818.200
21
-8559.600
0
LINE
8
описания
10
3818.200
20
-8559.600
11
3823.300
21
-8554.400
0
LINE
8
описания
10
3823.300
20
-8554.400
11
3830.100
21
-8552.700
0
LINE
8
описания
10
3830.100
20
-8552.700
11
3837.000
21
-8552.700
0
LINE
8
описания
10
3837.000
20
-8552.700
11
3843.800
21
-8554.400
0
LINE
8
описания
10
3843.800
20
-8554.400
11
3849.000
21
-8559.600
0
LINE
8
описания
10
3849.000
20
-8559.600
11
3850.700
21
-8566.400
0
LINE
8
описания
10
3850.700
20
-8566.400
11
3850.700
21
-8571.600
0
LINE
8
описания
10
3850.700
20
-8571.600
11
3849.000
21
-8576.700
0
LINE
8
описания
10
3849.000
20
-8576.700
11
3816.500
21
-8629.800
0
LINE
8
описания
10
3816.500
20
-8629.800
11
3850.700
21
-8629.800
0
LINE
8
описания
10
3872.800
20
-8626.300
11
3871.100
21
-8628.000
0
LINE
8
описания
10
3871.100
20
-8628.000
11
3872.800
21
-8629.800
0
LINE
8
описания
10
3872.800
20
-8629.800
11
3874.500
21
-8628.000
0
LINE
8
описания
10
3874.500
20
-8628.000
11
3872.800
21
-8626.300
0
LINE
8
описания
10
3894.900
20
-8566.400
11
3896.600
21
-8559.600
0
LINE
8
описания
10
3896.600
20
-8559.600
11
3901.800
21
-8554.400
0
LINE
8
описания
10
3901.800
20
-8554.400
11
3908.600
21
-8552.700
0
LINE
8
описания
10
3908.600
20
-8552.700
11
3915.500
21
-8552.700
0
LINE
8
описания
10
3915.500
20
-8552.700
11
3922.300
21
-8554.400
0
LINE
8
описания
10
3922.300
20
-8554.400
11
3927.400
21
-8559.600
0
LINE
8
описания
10
3927.400
20
-8559.600
11
3929.100
21
-8566.400
0
LINE
8
описания
10
3929.100
20
-8566.400
11
3929.100
21
-8571.600
0
LINE
8
описания
10
3929.100
20
-8571.600
11
3927.400
21
-8576.700
0
LINE
8
описания
10
3927.400
20
-8576.700
11
3894.900
21
-8629.800
0
LINE
8
описания
10
3894.900
20
-8629.800
11
3929.100
21
-8629.800
0
LINE
8
описания
10
3982.100
20
-8552.700
11
3949.500
21
-8552.700
0
LINE
8
описания
10
3949.500
20
-8552.700
11
3949.500
21
-8587.000
0
LINE
8
описания
10
3949.500
20
-8587.000
11
3970.100
21
-8587.000
0
LINE
8
описания
10
3970.100
20
-8587.000
11
3975.200
21
-8588.700
0
LINE
8
описания
10
3975.200
20
-8588.700
11
3980.400
21
-8593.800
0
LINE
8
описания
10
3980.400
20
-8593.800
11
3982.100
21
-8598.900
0
LINE
8
описания
10
3982.100
20
-8598.900
11
3982.100
21
-8617.800
0
LINE
8
описания
10
3982.100
20
-8617.800
11
3980.400
21
-8622.900
0
LINE
8
описания
10
3980.400
20
-8622.900
11
3975.200
21
-8628.000
0
LINE
8
описания
10
3975.200
20
-8628.000
11
3970.100
21
-8629.800
0
LINE
8
описания
10
3970.100
20
-8629.800
11
3949.500
21
-8629.800
0
LINE
8
описания
10
7020.600
20
-7667.600
11
7092.500
21
-7667.600
0
LINE
8
описания
10
7092.500
20
-7667.600
11
7107.900
21
-7672.700
0
LINE
8
описания
10
7107.900
20
-7672.700
11
7118.200
21
-7683.000
0
LINE
8
описания
10
7118.200
20
-7683.000
11
7123.300
21
-7698.400
0
LINE
8
описания
10
7123.300
20
-7698.400
11
7123.300
21
-7867.900
0
LINE
8
описания
10
7123.300
20
-7867.900
11
7118.200
21
-7883.300
0
LINE
8
описания
10
7118.200
20
-7883.300
11
7107.900
21
-7893.600
0
LINE
8
описания
10
7107.900
20
-7893.600
11
7092.500
21
-7898.700
0
LINE
8
описания
10
7092.500
20
-7898.700
11
7020.600
21
-7898.700
0
LINE
8
описания
10
7056.600
20
-7780.600
11
7123.300
21
-7780.600
0
LINE
8
описания
10
7180.600
20
-7667.600
11
7237.100
21
-7667.600
0
LINE
8
описания
10
7237.100
20
-7667.600
11
7252.500
21
-7672.700
0
LINE
8
описания
10
7252.500
20
-7672.700
11
7267.900
21
-7688.100
0
LINE
8
описания
10
7267.900
20
-7688.100
11
7273.000
21
-7703.500
0
LINE
8
описания
10
7273.000
20
-7703.500
11
7273.000
21
-7734.400
0
LINE
8
описания
10
7273.000
20
-7734.400
11
7267.900
21
-7749.800
0
LINE
8
описания
10
7267.900
20
-7749.800
11
7252.500
21
-7765.200
0
LINE
8
описания
10
7252.500
20
-7765.200
11
7237.100
21
-7770.300
0
LINE
8
описания
10
7211.400
20
-7770.300
11
7232.000
21
-7770.300
0
LINE
8
описания
10
7232.000
20
-7770.300
11
7252.500
21
-7775.400
0
LINE
8
описания
10
7252.500
20
-7775.400
11
7267.900
21
-7790.800
0
LINE
8
описания
10
7267.900
20
-7790.800
11
7273.000
21
-7806.300
0
LINE
8
описания
10
7273.000
20
-7806.300
11
7273.000
21
-7862.700
0
LINE
8
описания
10
7273.000
20
-7862.700
11
7267.900
21
-7878.100
0
LINE
8
описания
10
7267.900
20
-7878.100
11
7252.500
21
-7893.600
0
LINE
8
описания
10
7252.500
20
-7893.600
11
7237.100
21
-7898.700
0
LINE
8
описания
10
7237.100
20
-7898.700
11
7180.600
21
-7898.700
0
LINE
8
описания
10
4497.000
20
-8478.500
11
4497.000
21
-8324.400
0
LINE
8
описания
10
4497.000
20
-8324.400
11
4544.900
21
-8324.400
0
LINE
8
описания
10
4544.900
20
-8324.400
11
4555.200
21
-8327.900
0
LINE
8
описания
10
4555.200
20
-8327.900
11
4562.100
21
-8334.700
0
LINE
8
описания
10
4562.100
20
-8334.700
11
4565.500
21
-8345.000
0
LINE
8
описания
10
4565.500
20
-8345.000
11
4565.500
21
-8382.600
0
LINE
8
описания
10
4565.500
20
-8382.600
11
4562.100
21
-8392.900
0
LINE
8
описания
10
4562.100
20
-8392.900
11
4555.200
21
-8399.800
0
LINE
8
описания
10
4555.200
20
-8399.800
11
4544.900
21
-8403.200
0
LINE
8
описания
10
4544.900
20
-8403.200
11
4497.000
21
-8403.200
0
LINE
8
описания
10
4610.200
20
-8427.100
11
4671.900
21
-8427.100
0
LINE
8
описания
10
4671.900
20
-8427.100
11
4671.900
21
-8396.300
0
LINE
8
описания
10
4671.900
20
-8396.300
11
4668.400
21
-8386.100
0
LINE
8
описания
10
4668.400
20
-8386.100
11
4661.600
21
-8379.200
0
LINE
8
описания
10
4661.600
20
-8379.200
11
4651.300
21
-8375.800
0
LINE
8
описания
10
4651.300
20
-8375.800
11
4630.800
21
-8375.800
0
LINE
8
описания
10
4630.800
20
-8375.800
11
4620.500
21
-8379.200
0
LINE
8
описания
10
4620.500
20
-8379.200
11
4613.700
21
-8386.100
0
LINE
8
описания
10
4613.700
20
-8386.100
11
4610.200
21
-8396.300
0
LINE
8
описания
10
4610.200
20
-8396.300
11
4610.200
21
-8458.000
0
LINE
8
описания
10
4610.200
20
-8458.000
11
4613.700
21
-8468.200
0
LINE
8
описания
10
4613.700
20
-8468.200
11
4620.500
21
-8475.100
0
LINE
8
описания
10
4620.500
20
-8475.100
11
4630.800
21
-8478.500
0
LINE
8
описания
10
4630.800
20
-8478.500
11
4668.400
21
-8478.500
0
LINE
8
описания
10
4757.700
20
-8375.800
11
4737.100
21
-8375.800
0
LINE
8
описания
10
4737.100
20
-8375.800
11
4726.900
21
-8379.200
0
LINE
8
описания
10
4726.900
20
-8379.200
11
4720.000
21
-8386.100
0
LINE
8
описания
10
4720.000
20
-8386.100
11
4716.600
21
-8396.300
0
LINE
8
описания
10
4716.600
20
-8396.300
11
4716.600
21
-8454.500
0
LINE
8
описания
10
4716.600
20
-8454.500
11
4720.000
21
-8468.200
0
LINE
8
описания
10
4720.000
20
-8468.200
11
4726.900
21
-8475.100
0
LINE
8
описания
10
4726.900
20
-8475.100
11
4737.100
21
-8478.500
0
LINE
8
описания
10
4737.100
20
-8478.500
11
4757.700
21
-8478.500
0
LINE
8
описания
10
4757.700
20
-8478.500
11
4767.900
21
-8475.100
0
LINE
8
описания
10
4767.900
20
-8475.100
11
4774.800
21
-8468.200
0
LINE
8
описания
10
4774.800
20
-8468.200
11
4778.200
21
-8458.000
0
LINE
8
описания
10
4778.200
20
-8458.000
11
4778.200
21
-8396.300
0
LINE
8
описания
10
4778.200
20
-8396.300
11
4774.800
21
-8386.100
0
LINE
8
описания
10
4774.800
20
-8386.100
11
4767.900
21
-8379.200
0
LINE
8
описания
10
4767.900
20
-8379.200
11
4757.700
21
-8375.800
0
LINE
8
описания
10
4716.600
20
-8396.300
11
4716.600
21
-8345.000
0
LINE
8
описания
10
4716.600
20
-8345.000
11
4720.000
21
-8334.700
0
LINE
8
описания
10
4720.000
20
-8334.700
11
4726.900
21
-8327.900
0
LINE
8
описания
10
4726.900
20
-8327.900
11
4737.100
21
-8324.400
0
LINE
8
описания
10
4737.100
20
-8324.400
11
4747.400
21
-8327.900
0
LINE
8
описания
10
4747.400
20
-8327.900
11
4754.200
21
-8334.700
0
LINE
8
описания
10
4754.200
20
-8334.700
11
4757.700
21
-8345.000
0
LINE
8
описания
10
4757.700
20
-8345.000
11
4754.200
21
-8355.200
0
LINE
8
описания
10
4754.200
20
-8355.200
11
4726.900
21
-8379.200
0
LINE
8
описания
10
4823.000
20
-8427.100
11
4884.600
21
-8427.100
0
LINE
8
описания
10
4884.600
20
-8427.100
11
4884.600
21
-8396.300
0
LINE
8
описания
10
4884.600
20
-8396.300
11
4881.200
21
-8386.100
0
LINE
8
описания
10
4881.200
20
-8386.100
11
4874.300
21
-8379.200
0
LINE
8
описания
10
4874.300
20
-8379.200
11
4864.000
21
-8375.800
0
LINE
8
описания
10
4864.000
20
-8375.800
11
4843.500
21
-8375.800
0
LINE
8
описания
10
4843.500
20
-8375.800
11
4833.200
21
-8379.200
0
LINE
8
описания
10
4833.200
20
-8379.200
11
4826.400
21
-8386.100
0
LINE
8
описания
10
4826.400
20
-8386.100
11
4823.000
21
-8396.300
0
LINE
8
описания
10
4823.000
20
-8396.300
11
4823.000
21
-8458.000
0
LINE
8
описания
10
4823.000
20
-8458.000
11
4826.400
21
-8468.200
0
LINE
8
описания
10
4826.400
20
-8468.200
11
4833.200
21
-8475.100
0
LINE
8
описания
10
4833.200
20
-8475.100
11
4843.500
21
-8478.500
0
LINE
8
описания
10
4843.500
20
-8478.500
11
4881.200
21
-8478.500
0
LINE
8
описания
10
4929.300
20
-8516.200
11
4929.300
21
-8375.800
0
LINE
8
описания
10
4929.300
20
-8375.800
11
4970.400
21
-8375.800
0
LINE
8
описания
10
4970.400
20
-8375.800
11
4980.700
21
-8379.200
0
LINE
8
описания
10
4980.700
20
-8379.200
11
4987.500
21
-8386.100
0
LINE
8
описания
10
4987.500
20
-8386.100
11
4990.900
21
-8396.300
0
LINE
8
описания
10
4990.900
20
-8396.300
11
4990.900
21
-8458.000
0
LINE
8
описания
10
4990.900
20
-8458.000
11
4987.500
21
-8468.200
0
LINE
8
описания
10
4987.500
20
-8468.200
11
4980.700
21
-8475.100
0
LINE
8
описания
10
4980.700
20
-8475.100
11
4970.400
21
-8478.500
0
LINE
8
описания
10
4970.400
20
-8478.500
11
4929.300
21
-8478.500
0
LINE
8
описания
10
5090.500
20
-8375.800
11
5056.200
21
-8375.800
0
LINE
8
описания
10
5056.200
20
-8375.800
11
5045.900
21
-8379.200
0
LINE
8
описания
10
5045.900
20
-8379.200
11
5039.100
21
-8386.100
0
LINE
8
описания
10
5039.100
20
-8386.100
11
5035.700
21
-8396.300
0
LINE
8
описания
10
5035.700
20
-8396.300
11
5035.700
21
-8458.000
0
LINE
8
описания
10
5035.700
20
-8458.000
11
5039.100
21
-8468.200
0
LINE
8
описания
10
5039.100
20
-8468.200
11
5045.900
21
-8475.100
0
LINE
8
описания
10
5045.900
20
-8475.100
11
5056.200
21
-8478.500
0
LINE
8
описания
10
5056.200
20
-8478.500
11
5090.500
21
-8478.500
0
LINE
8
описания
10
5135.200
20
-8410.000
11
5196.800
21
-8410.000
0
LINE
8
описания
10
5241.600
20
-8375.800
11
5241.600
21
-8458.000
0
LINE
8
описания
10
5241.600
20
-8458.000
11
5245.000
21
-8468.200
0
LINE
8
описания
10
5245.000
20
-8468.200
11
5251.800
21
-8475.100
0
LINE
8
описания
10
5251.800
20
-8475.100
11
5262.100
21
-8478.500
0
LINE
8
описания
10
5262.100
20
-8478.500
11
5303.200
21
-8478.500
0
LINE
8
описания
10
5303.200
20
-8478.500
11
5303.200
21
-8375.800
0
LINE
8
описания
10
5347.900
20
-8375.800
11
5347.900
21
-8478.500
0
LINE
8
описания
10
5347.900
20
-8427.100
11
5406.100
21
-8427.100
0
LINE
8
описания
10
5406.100
20
-8375.800
11
5406.100
21
-8478.500
0
LINE
8
описания
10
5450.900
20
-8375.800
11
5481.700
21
-8427.100
0
LINE
8
описания
10
5481.700
20
-8427.100
11
5450.900
21
-8478.500
0
LINE
8
описания
10
5488.500
20
-8375.800
11
5488.500
21
-8478.500
0
LINE
8
описания
10
5526.200
20
-8375.800
11
5495.400
21
-8427.100
0
LINE
8
описания
10
5495.400
20
-8427.100
11
5526.200
21
-8478.500
0
LINE
8
описания
10
5570.900
20
-8375.800
11
5570.900
21
-8458.000
0
LINE
8
описания
10
5570.900
20
-8458.000
11
5574.300
21
-8468.200
0
LINE
8
описания
10
5574.300
20
-8468.200
11
5581.200
21
-8475.100
0
LINE
8
описания
10
5581.200
20
-8475.100
11
5591.400
21
-8478.500
0
LINE
8
описания
10
5591.400
20
-8478.500
11
5632.500
21
-8478.500
0
LINE
8
описания
10
5632.500
20
-8478.500
11
5632.500
21
-8375.800
0
LINE
8
описания
10
5677.300
20
-8375.800
11
5677.300
21
-8478.500
0
LINE
8
описания
10
5677.300
20
-8427.100
11
5735.500
21
-8427.100
0
LINE
8
описания
10
5735.500
20
-8375.800
11
5735.500
21
-8478.500
0
LINE
8
описания
10
5780.200
20
-8375.800
11
5780.200
21
-8458.000
0
LINE
8
описания
10
5780.200
20
-8458.000
11
5783.600
21
-8468.200
0
LINE
8
описания
10
5783.600
20
-8468.200
11
5790.500
21
-8475.100
0
LINE
8
описания
10
5790.500
20
-8475.100
11
5800.700
21
-8478.500
0
LINE
8
описания
10
5800.700
20
-8478.500
11
5841.800
21
-8478.500
0
LINE
8
описания
10
5841.800
20
-8478.500
11
5841.800
21
-8375.800
0
LINE
8
описания
10
5886.600
20
-8516.200
11
5886.600
21
-8375.800
0
LINE
8
описания
10
5886.600
20
-8375.800
11
5927.600
21
-8375.800
0
LINE
8
описания
10
5927.600
20
-8375.800
11
5937.900
21
-8379.200
0
LINE
8
описания
10
5937.900
20
-8379.200
11
5944.800
21
-8386.100
0
LINE
8
описания
10
5944.800
20
-8386.100
11
5948.200
21
-8396.300
0
LINE
8
описания
10
5948.200
20
-8396.300
11
5948.200
21
-8458.000
0
LINE
8
описания
10
5948.200
20
-8458.000
11
5944.800
21
-8468.200
0
LINE
8
описания
10
5944.800
20
-8468.200
11
5937.900
21
-8475.100
0
LINE
8
описания
10
5937.900
20
-8475.100
11
5927.600
21
-8478.500
0
LINE
8
описания
10
5927.600
20
-8478.500
11
5886.600
21
-8478.500
0
LINE
8
описания
10
5992.900
20
-8375.800
11
5992.900
21
-8458.000
0
LINE
8
описания
10
5992.900
20
-8458.000
11
5996.400
21
-8468.200
0
LINE
8
описания
10
5996.400
20
-8468.200
11
6003.200
21
-8475.100
0
LINE
8
описания
10
6003.200
20
-8475.100
11
6013.500
21
-8478.500
0
LINE
8
описания
10
6013.500
20
-8478.500
11
6054.600
21
-8478.500
0
LINE
8
описания
10
6054.600
20
-8478.500
11
6054.600
21
-8375.800
0
LINE
8
описания
10
6099.300
20
-8375.800
11
6099.300
21
-8478.500
0
LINE
8
описания
10
6099.300
20
-8427.100
11
6157.500
21
-8427.100
0
LINE
8
описания
10
6157.500
20
-8375.800
11
6157.500
21
-8478.500
0
LINE
8
описания
10
6205.700
20
-8382.600
11
6209.100
21
-8379.200
0
LINE
8
описания
10
6209.100
20
-8379.200
11
6219.300
21
-8375.800
0
LINE
8
описания
10
6219.300
20
-8375.800
11
6243.300
21
-8375.800
0
LINE
8
описания
10
6243.300
20
-8375.800
11
6253.600
21
-8379.200
0
LINE
8
описания
10
6253.600
20
-8379.200
11
6260.400
21
-8386.100
0
LINE
8
описания
10
6260.400
20
-8386.100
11
6263.900
21
-8396.300
0
LINE
8
описания
10
6263.900
20
-8396.300
11
6260.400
21
-8406.600
0
LINE
8
описания
10
6260.400
20
-8406.600
11
6205.700
21
-8447.700
0
LINE
8
описания
10
6205.700
20
-8447.700
11
6202.200
21
-8458.000
0
LINE
8
описания
10
6202.200
20
-8458.000
11
6205.700
21
-8468.200
0
LINE
8
описания
10
6205.700
20
-8468.200
11
6212.500
21
-8475.100
0
LINE
8
описания
10
6212.500
20
-8475.100
11
6222.800
21
-8478.500
0
LINE
8
описания
10
6222.800
20
-8478.500
11
6246.700
21
-8478.500
0
LINE
8
описания
10
6246.700
20
-8478.500
11
6257.000
21
-8475.100
0
LINE
8
описания
10
6257.000
20
-8475.100
11
6260.400
21
-8471.600
0
LINE
8
описания
10
6260.400
20
-8471.600
11
6263.900
21
-8464.800
0
LINE
8
описания
10
6205.700
20
-8382.600
11
6202.200
21
-8389.500
0
ENDSEC
0
EOF
