0
SECTION
2
ENTITIES
0
LINE
8
безхозный
10
407.800
20
317.800
11
407.800
21
331.000
0
LINE
8
безхозный
10
407.800
20
331.000
11
417.800
21
331.000
0
LINE
8
безхозный
10
417.800
20
331.000
11
417.800
21
317.800
0
LINE
8
безхозный
10
417.800
20
317.800
11
407.800
21
317.800
0
LINE
8
безхозный
10
410.000
20
325.200
11
410.625
21
325.145
0
LINE
8
безхозный
10
410.625
20
325.145
11
411.231
21
324.983
0
LINE
8
безхозный
10
411.231
20
324.983
11
411.800
21
324.718
0
LINE
8
безхозный
10
411.800
20
324.718
11
412.314
21
324.358
0
LINE
8
безхозный
10
412.314
20
324.358
11
412.758
21
323.914
0
LINE
8
безхозный
10
412.758
20
323.914
11
413.118
21
323.400
0
LINE
8
безхозный
10
413.118
20
323.400
11
413.383
21
322.831
0
LINE
8
безхозный
10
413.383
20
322.831
11
413.545
21
322.225
0
LINE
8
безхозный
10
413.545
20
322.225
11
413.600
21
321.600
0
LINE
8
безхозный
10
413.600
20
321.600
11
414.017
21
321.636
0
LINE
8
безхозный
10
414.017
20
321.636
11
414.421
21
321.745
0
LINE
8
безхозный
10
414.421
20
321.745
11
414.800
21
321.922
0
LINE
8
безхозный
10
414.800
20
321.922
11
415.143
21
322.161
0
LINE
8
безхозный
10
415.143
20
322.161
11
415.439
21
322.457
0
LINE
8
безхозный
10
415.439
20
322.457
11
415.678
21
322.800
0
LINE
8
безхозный
10
415.678
20
322.800
11
415.855
21
323.179
0
LINE
8
безхозный
10
415.855
20
323.179
11
415.964
21
323.583
0
LINE
8
безхозный
10
415.964
20
323.583
11
416.000
21
324.000
0
LINE
8
безхозный
10
416.000
20
324.000
11
415.909
21
324.208
0
LINE
8
безхозный
10
415.909
20
324.208
11
415.638
21
324.410
0
LINE
8
безхозный
10
415.638
20
324.410
11
415.196
21
324.600
0
LINE
8
безхозный
10
415.196
20
324.600
11
414.596
21
324.771
0
LINE
8
безхозный
10
414.596
20
324.771
11
413.857
21
324.919
0
LINE
8
безхозный
10
413.857
20
324.919
11
413.000
21
325.039
0
LINE
8
безхозный
10
413.000
20
325.039
11
412.052
21
325.128
0
LINE
8
безхозный
10
412.052
20
325.128
11
411.042
21
325.182
0
LINE
8
безхозный
10
411.042
20
325.182
11
410.000
21
325.200
0
LINE
8
безхозный
10
407.800
20
317.942
11
408.001
21
317.800
0
LINE
8
безхозный
10
407.800
20
318.042
11
408.142
21
317.800
0
LINE
8
безхозный
10
407.800
20
318.143
11
408.285
21
317.800
0
LINE
8
безхозный
10
407.800
20
318.243
11
408.427
21
317.800
0
LINE
8
безхозный
10
407.800
20
318.343
11
408.568
21
317.800
0
LINE
8
безхозный
10
407.800
20
318.444
11
408.710
21
317.800
0
LINE
8
безхозный
10
407.800
20
318.544
11
408.852
21
317.800
0
LINE
8
безхозный
10
407.800
20
318.644
11
408.993
21
317.800
0
LINE
8
безхозный
10
407.800
20
318.745
11
409.136
21
317.800
0
LINE
8
безхозный
10
407.800
20
318.845
11
409.277
21
317.800
0
LINE
8
безхозный
10
407.800
20
318.944
11
409.419
21
317.800
0
LINE
8
безхозный
10
407.800
20
319.044
11
409.561
21
317.800
0
LINE
8
безхозный
10
407.800
20
319.145
11
409.702
21
317.800
0
LINE
8
безхозный
10
407.800
20
319.245
11
409.844
21
317.800
0
LINE
8
безхозный
10
407.800
20
319.345
11
409.986
21
317.800
0
LINE
8
безхозный
10
407.800
20
319.446
11
410.127
21
317.800
0
LINE
8
безхозный
10
407.800
20
319.546
11
410.270
21
317.800
0
LINE
8
безхозный
10
407.800
20
319.646
11
410.412
21
317.800
0
LINE
8
безхозный
10
407.800
20
319.747
11
410.553
21
317.800
0
LINE
8
безхозный
10
407.800
20
319.847
11
410.695
21
317.800
0
LINE
8
безхозный
10
407.800
20
319.947
11
410.837
21
317.800
0
LINE
8
безхозный
10
407.800
20
320.048
11
410.978
21
317.800
0
LINE
8
безхозный
10
407.800
20
320.148
11
411.121
21
317.800
0
LINE
8
безхозный
10
407.800
20
320.248
11
411.262
21
317.800
0
LINE
8
безхозный
10
407.800
20
320.349
11
411.404
21
317.800
0
LINE
8
безхозный
10
407.800
20
320.449
11
411.546
21
317.800
0
LINE
8
безхозный
10
407.800
20
320.549
11
411.687
21
317.800
0
LINE
8
безхозный
10
407.800
20
320.648
11
411.829
21
317.800
0
LINE
8
безхозный
10
407.800
20
320.749
11
411.971
21
317.800
0
LINE
8
безхозный
10
407.800
20
320.849
11
412.112
21
317.800
0
LINE
8
безхозный
10
407.800
20
320.949
11
412.255
21
317.800
0
LINE
8
безхозный
10
407.800
20
321.050
11
412.397
21
317.800
0
LINE
8
безхозный
10
407.800
20
321.150
11
412.538
21
317.800
0
LINE
8
безхозный
10
407.800
20
321.250
11
412.680
21
317.800
0
LINE
8
безхозный
10
407.800
20
321.351
11
412.821
21
317.800
0
LINE
8
безхозный
10
407.800
20
321.451
11
412.963
21
317.800
0
LINE
8
безхозный
10
407.800
20
321.551
11
413.106
21
317.800
0
LINE
8
безхозный
10
407.800
20
321.652
11
413.247
21
317.800
0
LINE
8
безхозный
10
407.800
20
321.752
11
413.389
21
317.800
0
LINE
8
безхозный
10
407.800
20
321.852
11
413.531
21
317.800
0
LINE
8
безхозный
10
407.800
20
321.953
11
413.672
21
317.800
0
LINE
8
безхозный
10
407.800
20
322.053
11
413.814
21
317.800
0
LINE
8
безхозный
10
407.800
20
322.153
11
413.957
21
317.800
0
LINE
8
безхозный
10
407.800
20
322.252
11
414.097
21
317.800
0
LINE
8
безхозный
10
407.800
20
322.353
11
414.240
21
317.800
0
LINE
8
безхозный
10
407.800
20
322.453
11
414.381
21
317.800
0
LINE
8
безхозный
10
407.800
20
322.553
11
414.523
21
317.800
0
LINE
8
безхозный
10
407.800
20
322.654
11
414.665
21
317.800
0
LINE
8
безхозный
10
407.800
20
322.754
11
414.806
21
317.800
0
LINE
8
безхозный
10
407.800
20
322.854
11
414.948
21
317.800
0
LINE
8
безхозный
10
407.800
20
322.955
11
415.091
21
317.800
0
LINE
8
безхозный
10
407.800
20
323.055
11
415.232
21
317.800
0
LINE
8
безхозный
10
407.800
20
323.155
11
415.374
21
317.800
0
LINE
8
безхозный
10
407.800
20
323.256
11
415.516
21
317.800
0
LINE
8
безхозный
10
407.800
20
323.356
11
415.657
21
317.800
0
LINE
8
безхозный
10
407.800
20
323.456
11
415.799
21
317.800
0
LINE
8
безхозный
10
407.800
20
323.557
11
415.940
21
317.800
0
LINE
8
безхозный
10
407.800
20
323.657
11
416.082
21
317.800
0
LINE
8
безхозный
10
407.800
20
323.757
11
416.225
21
317.800
0
LINE
8
безхозный
10
407.800
20
323.858
11
416.366
21
317.800
0
LINE
8
безхозный
10
407.800
20
323.957
11
416.508
21
317.800
0
LINE
8
безхозный
10
407.800
20
324.057
11
416.650
21
317.800
0
LINE
8
безхозный
10
407.800
20
324.157
11
416.791
21
317.800
0
LINE
8
безхозный
10
407.800
20
324.258
11
416.933
21
317.800
0
LINE
8
безхозный
10
407.800
20
324.358
11
417.076
21
317.800
0
LINE
8
безхозный
10
407.800
20
324.458
11
417.217
21
317.800
0
LINE
8
безхозный
10
407.800
20
324.559
11
417.359
21
317.800
0
LINE
8
безхозный
10
407.800
20
324.659
11
417.501
21
317.800
0
LINE
8
безхозный
10
407.800
20
324.759
11
417.642
21
317.800
0
LINE
8
безхозный
10
407.800
20
324.860
11
417.784
21
317.800
0
LINE
8
безхозный
10
407.800
20
324.960
11
417.800
21
317.889
0
LINE
8
безхозный
10
407.800
20
325.060
11
417.800
21
317.989
0
LINE
8
безхозный
10
407.800
20
325.161
11
417.800
21
318.089
0
LINE
8
безхозный
10
407.800
20
325.261
11
417.800
21
318.190
0
LINE
8
безхозный
10
407.800
20
325.361
11
417.800
21
318.290
0
LINE
8
безхозный
10
407.800
20
325.462
11
417.800
21
318.390
0
LINE
8
безхозный
10
407.800
20
325.562
11
417.800
21
318.491
0
LINE
8
безхозный
10
407.800
20
325.661
11
417.800
21
318.591
0
LINE
8
безхозный
10
417.800
20
318.691
11
413.683
21
321.601
0
LINE
8
безхозный
10
413.598
20
321.661
11
407.800
21
325.761
0
LINE
8
безхозный
10
417.800
20
318.792
11
413.814
21
321.608
0
LINE
8
безхозный
10
413.596
20
321.763
11
407.800
21
325.862
0
LINE
8
безхозный
10
417.800
20
318.892
11
413.936
21
321.624
0
LINE
8
безхозный
10
413.589
20
321.869
11
407.800
21
325.962
0
LINE
8
безхозный
10
417.800
20
318.991
11
414.050
21
321.643
0
LINE
8
безхозный
10
413.579
20
321.975
11
407.800
21
326.062
0
LINE
8
безхозный
10
417.800
20
319.091
11
414.160
21
321.666
0
LINE
8
безхозный
10
413.567
20
322.085
11
407.800
21
326.163
0
LINE
8
безхозный
10
417.800
20
319.192
11
414.263
21
321.692
0
LINE
8
безхозный
10
413.549
20
322.198
11
407.800
21
326.263
0
LINE
8
безхозный
10
417.800
20
319.292
11
414.362
21
321.724
0
LINE
8
безхозный
10
413.529
20
322.312
11
407.800
21
326.363
0
LINE
8
безхозный
10
417.800
20
319.392
11
414.456
21
321.757
0
LINE
8
безхозный
10
413.502
20
322.431
11
407.800
21
326.464
0
LINE
8
безхозный
10
417.800
20
319.493
11
414.546
21
321.794
0
LINE
8
безхозный
10
413.470
20
322.553
11
407.800
21
326.564
0
LINE
8
безхозный
10
417.800
20
319.593
11
414.632
21
321.833
0
LINE
8
безхозный
10
413.433
20
322.680
11
407.800
21
326.664
0
LINE
8
безхозный
10
417.800
20
319.693
11
414.715
21
321.874
0
LINE
8
безхозный
10
413.389
20
322.812
11
410.013
21
325.199
0
LINE
8
безхозный
10
410.013
20
325.199
11
407.800
21
326.765
0
LINE
8
безхозный
10
417.800
20
319.794
11
414.795
21
321.918
0
LINE
8
безхозный
10
413.337
20
322.950
11
410.159
21
325.196
0
LINE
8
безхозный
10
410.155
20
325.199
11
407.800
21
326.865
0
LINE
8
безхозный
10
417.800
20
319.894
11
414.871
21
321.964
0
LINE
8
безхозный
10
413.275
20
323.093
11
410.315
21
325.186
0
LINE
8
безхозный
10
410.299
20
325.197
11
407.800
21
326.965
0
LINE
8
безхозный
10
417.800
20
319.994
11
414.946
21
322.012
0
LINE
8
безхозный
10
413.201
20
323.245
11
410.484
21
325.167
0
LINE
8
безхозный
10
410.442
20
325.196
11
407.800
21
327.066
0
LINE
8
безхозный
10
417.800
20
320.095
11
415.016
21
322.062
0
LINE
8
безхозный
10
413.111
20
323.409
11
410.668
21
325.137
0
LINE
8
безхозный
10
410.588
20
325.194
11
407.800
21
327.166
0
LINE
8
безхозный
10
417.800
20
320.195
11
415.084
21
322.114
0
LINE
8
безхозный
10
413.000
20
323.588
11
410.874
21
325.092
0
LINE
8
безхозный
10
410.735
20
325.190
11
407.800
21
327.266
0
LINE
8
безхозный
10
417.800
20
320.295
11
415.150
21
322.169
0
LINE
8
безхозный
10
412.855
20
323.790
11
411.113
21
325.022
0
LINE
8
безхозный
10
410.882
20
325.186
11
407.800
21
327.365
0
LINE
8
безхозный
10
417.800
20
320.396
11
415.214
21
322.223
0
LINE
8
безхозный
10
412.647
20
324.038
11
411.415
21
324.909
0
LINE
8
безхозный
10
411.030
20
325.181
11
407.800
21
327.466
0
LINE
8
безхозный
10
417.800
20
320.496
11
415.275
21
322.280
0
LINE
8
безхозный
10
411.180
20
325.176
11
407.800
21
327.566
0
LINE
8
безхозный
10
417.800
20
320.595
11
415.333
21
322.340
0
LINE
8
безхозный
10
411.331
20
325.170
11
407.800
21
327.666
0
LINE
8
безхозный
10
417.800
20
320.695
11
415.389
21
322.400
0
LINE
8
безхозный
10
411.484
20
325.162
11
407.800
21
327.767
0
LINE
8
безхозный
10
417.800
20
320.796
11
415.442
21
322.462
0
LINE
8
безхозный
10
411.636
20
325.154
11
407.800
21
327.867
0
LINE
8
безхозный
10
417.800
20
320.896
11
415.494
21
322.527
0
LINE
8
безхозный
10
411.791
20
325.144
11
407.800
21
327.967
0
LINE
8
безхозный
10
417.800
20
320.996
11
415.543
21
322.591
0
LINE
8
безхозный
10
411.947
20
325.134
11
407.800
21
328.068
0
LINE
8
безхозный
10
417.800
20
321.097
11
415.590
21
322.659
0
LINE
8
безхозный
10
412.106
20
325.123
11
407.800
21
328.168
0
LINE
8
безхозный
10
417.800
20
321.197
11
415.634
21
322.727
0
LINE
8
безхозный
10
412.265
20
325.111
11
407.800
21
328.268
0
LINE
8
безхозный
10
417.800
20
321.297
11
415.677
21
322.798
0
LINE
8
безхозный
10
412.426
20
325.097
11
407.800
21
328.369
0
LINE
8
безхозный
10
417.800
20
321.398
11
415.717
21
322.870
0
LINE
8
безхозный
10
412.589
20
325.082
11
407.800
21
328.469
0
LINE
8
безхозный
10
417.800
20
321.498
11
415.755
21
322.943
0
LINE
8
безхозный
10
412.754
20
325.065
11
407.800
21
328.569
0
LINE
8
безхозный
10
417.800
20
321.598
11
415.790
21
323.019
0
LINE
8
безхозный
10
412.921
20
325.048
11
407.800
21
328.670
0
LINE
8
безхозный
10
417.800
20
321.699
11
415.823
21
323.096
0
LINE
8
безхозный
10
413.090
20
325.027
11
407.800
21
328.770
0
LINE
8
безхозный
10
417.800
20
321.799
11
415.854
21
323.174
0
LINE
8
безхозный
10
413.263
20
325.006
11
407.800
21
328.870
0
LINE
8
безхозный
10
417.800
20
321.899
11
415.881
21
323.256
0
LINE
8
безхозный
10
413.438
20
324.983
11
407.800
21
328.969
0
LINE
8
безхозный
10
417.800
20
322.000
11
415.906
21
323.338
0
LINE
8
безхозный
10
413.616
20
324.956
11
407.800
21
329.070
0
LINE
8
безхозный
10
417.800
20
322.100
11
415.929
21
323.422
0
LINE
8
безхозный
10
413.799
20
324.928
11
407.800
21
329.170
0
LINE
8
безхозный
10
417.800
20
322.200
11
415.949
21
323.508
0
LINE
8
безхозный
10
413.986
20
324.896
11
407.800
21
329.270
0
LINE
8
безхозный
10
417.800
20
322.299
11
415.966
21
323.597
0
LINE
8
безхозный
10
414.179
20
324.861
11
407.800
21
329.371
0
LINE
8
безхозный
10
417.800
20
322.400
11
415.980
21
323.687
0
LINE
8
безхозный
10
414.377
20
324.820
11
407.800
21
329.471
0
LINE
8
безхозный
10
417.800
20
322.500
11
415.990
21
323.780
0
LINE
8
безхозный
10
414.585
20
324.773
11
407.800
21
329.571
0
LINE
8
безхозный
10
417.800
20
322.600
11
415.996
21
323.875
0
LINE
8
безхозный
10
414.805
20
324.717
11
407.800
21
329.672
0
LINE
8
безхозный
10
417.800
20
322.701
11
415.999
21
323.974
0
LINE
8
безхозный
10
415.045
20
324.649
11
407.800
21
329.772
0
LINE
8
безхозный
10
417.800
20
322.801
11
415.985
21
324.085
0
LINE
8
безхозный
10
415.322
20
324.554
11
407.800
21
329.872
0
LINE
8
безхозный
10
407.800
20
329.973
11
417.800
21
322.901
0
LINE
8
безхозный
10
407.800
20
330.073
11
417.800
21
323.002
0
LINE
8
безхозный
10
407.800
20
330.173
11
417.800
21
323.102
0
LINE
8
безхозный
10
407.800
20
330.274
11
417.800
21
323.202
0
LINE
8
безхозный
10
407.800
20
330.374
11
417.800
21
323.303
0
LINE
8
безхозный
10
407.800
20
330.474
11
417.800
21
323.403
0
LINE
8
безхозный
10
407.800
20
330.575
11
417.800
21
323.503
0
LINE
8
безхозный
10
407.800
20
330.674
11
417.800
21
323.604
0
LINE
8
безхозный
10
407.800
20
330.774
11
417.800
21
323.704
0
LINE
8
безхозный
10
407.800
20
330.874
11
417.800
21
323.804
0
LINE
8
безхозный
10
407.800
20
330.975
11
417.800
21
323.905
0
LINE
8
безхозный
10
407.906
20
330.999
11
417.800
21
324.004
0
LINE
8
безхозный
10
408.048
20
330.999
11
417.800
21
324.104
0
LINE
8
безхозный
10
408.191
20
330.999
11
417.800
21
324.204
0
LINE
8
безхозный
10
408.332
20
330.999
11
417.800
21
324.305
0
LINE
8
безхозный
10
408.474
20
330.999
11
417.800
21
324.405
0
LINE
8
безхозный
10
408.616
20
330.999
11
417.800
21
324.505
0
LINE
8
безхозный
10
408.757
20
330.999
11
417.800
21
324.606
0
LINE
8
безхозный
10
408.899
20
330.999
11
417.800
21
324.706
0
LINE
8
безхозный
10
409.042
20
330.999
11
417.800
21
324.806
0
LINE
8
безхозный
10
409.183
20
330.999
11
417.800
21
324.907
0
LINE
8
безхозный
10
409.325
20
330.999
11
417.800
21
325.007
0
LINE
8
безхозный
10
409.466
20
330.999
11
417.800
21
325.107
0
LINE
8
безхозный
10
409.608
20
330.999
11
417.800
21
325.208
0
LINE
8
безхозный
10
409.750
20
330.999
11
417.800
21
325.308
0
LINE
8
безхозный
10
409.891
20
330.999
11
417.800
21
325.408
0
LINE
8
безхозный
10
410.033
20
330.999
11
417.800
21
325.509
0
LINE
8
безхозный
10
410.176
20
330.999
11
417.800
21
325.609
0
LINE
8
безхозный
10
410.317
20
330.999
11
417.800
21
325.708
0
LINE
8
безхозный
10
410.459
20
330.999
11
417.800
21
325.808
0
LINE
8
безхозный
10
410.601
20
330.999
11
417.800
21
325.909
0
LINE
8
безхозный
10
410.742
20
330.999
11
417.800
21
326.009
0
LINE
8
безхозный
10
410.884
20
330.999
11
417.800
21
326.109
0
LINE
8
безхозный
10
411.025
20
330.999
11
417.800
21
326.210
0
LINE
8
безхозный
10
411.168
20
330.999
11
417.800
21
326.310
0
LINE
8
безхозный
10
411.310
20
330.999
11
417.800
21
326.410
0
LINE
8
безхозный
10
411.451
20
330.999
11
417.800
21
326.511
0
LINE
8
безхозный
10
411.593
20
330.999
11
417.800
21
326.611
0
LINE
8
безхозный
10
411.735
20
330.999
11
417.800
21
326.711
0
LINE
8
безхозный
10
411.876
20
330.999
11
417.800
21
326.812
0
LINE
8
безхозный
10
412.018
20
330.999
11
417.800
21
326.912
0
LINE
8
безхозный
10
412.161
20
330.999
11
417.800
21
327.012
0
LINE
8
безхозный
10
412.302
20
330.999
11
417.800
21
327.113
0
LINE
8
безхозный
10
412.444
20
330.999
11
417.800
21
327.213
0
LINE
8
безхозный
10
412.586
20
330.999
11
417.800
21
327.312
0
LINE
8
безхозный
10
412.727
20
330.999
11
417.800
21
327.412
0
LINE
8
безхозный
10
412.869
20
330.999
11
417.800
21
327.513
0
LINE
8
безхозный
10
413.010
20
330.999
11
417.800
21
327.613
0
LINE
8
безхозный
10
413.153
20
330.999
11
417.800
21
327.713
0
LINE
8
безхозный
10
413.295
20
330.999
11
417.800
21
327.814
0
LINE
8
безхозный
10
413.436
20
330.999
11
417.800
21
327.914
0
LINE
8
безхозный
10
413.578
20
330.999
11
417.800
21
328.014
0
LINE
8
безхозный
10
413.720
20
330.999
11
417.800
21
328.115
0
LINE
8
безхозный
10
413.861
20
330.999
11
417.800
21
328.215
0
LINE
8
безхозный
10
414.003
20
330.999
11
417.800
21
328.315
0
LINE
8
безхозный
10
414.146
20
330.999
11
417.800
21
328.416
0
LINE
8
безхозный
10
414.287
20
330.999
11
417.800
21
328.516
0
LINE
8
безхозный
10
414.429
20
330.999
11
417.800
21
328.616
0
LINE
8
безхозный
10
414.570
20
330.999
11
417.800
21
328.717
0
LINE
8
безхозный
10
414.712
20
330.999
11
417.800
21
328.817
0
LINE
8
безхозный
10
414.854
20
330.999
11
417.800
21
328.917
0
LINE
8
безхозный
10
414.995
20
330.999
11
417.800
21
329.016
0
LINE
8
безхозный
10
415.138
20
330.999
11
417.800
21
329.117
0
LINE
8
безхозный
10
415.280
20
330.999
11
417.800
21
329.217
0
LINE
8
безхозный
10
415.421
20
330.999
11
417.800
21
329.317
0
LINE
8
безхозный
10
415.563
20
330.999
11
417.800
21
329.418
0
LINE
8
безхозный
10
415.705
20
330.999
11
417.800
21
329.518
0
LINE
8
безхозный
10
415.846
20
330.999
11
417.800
21
329.618
0
LINE
8
безхозный
10
415.988
20
330.999
11
417.800
21
329.719
0
LINE
8
безхозный
10
416.129
20
330.999
11
417.800
21
329.819
0
LINE
8
безхозный
10
416.272
20
330.999
11
417.800
21
329.919
0
LINE
8
безхозный
10
416.414
20
330.999
11
417.800
21
330.020
0
LINE
8
безхозный
10
416.555
20
330.999
11
417.800
21
330.120
0
LINE
8
безхозный
10
416.697
20
330.999
11
417.800
21
330.220
0
LINE
8
безхозный
10
416.839
20
330.999
11
417.800
21
330.321
0
LINE
8
безхозный
10
416.980
20
330.999
11
417.800
21
330.421
0
LINE
8
безхозный
10
417.123
20
330.999
11
417.800
21
330.521
0
LINE
8
безхозный
10
417.265
20
330.999
11
417.800
21
330.622
0
LINE
8
безхозный
10
417.406
20
330.999
11
417.800
21
330.721
0
LINE
8
безхозный
10
417.548
20
330.999
11
417.800
21
330.821
0
LINE
8
безхозный
10
417.689
20
330.999
11
417.800
21
330.921
0
LINE
8
безхозный
10
407.800
20
328.800
11
406.800
21
328.800
0
LINE
8
безхозный
10
407.800
20
324.400
11
406.800
21
324.400
0
LINE
8
безхозный
10
407.800
20
320.000
11
406.800
21
320.000
0
LINE
8
безхозный
10
418.800
20
320.000
11
417.800
21
320.000
0
LINE
8
безхозный
10
418.800
20
324.400
11
417.800
21
324.400
0
LINE
8
безхозный
10
418.800
20
328.800
11
417.800
21
328.800
0
LINE
8
имена пинов
10
406.051
20
331.498
11
406.528
21
331.975
0
LINE
8
имена пинов
10
406.528
20
331.975
11
406.528
21
329.824
0
LINE
8
имена пинов
10
405.811
20
327.194
11
405.859
21
327.386
0
LINE
8
имена пинов
10
405.859
20
327.386
11
406.002
21
327.529
0
LINE
8
имена пинов
10
406.002
20
327.529
11
406.194
21
327.576
0
LINE
8
имена пинов
10
406.194
20
327.576
11
406.385
21
327.576
0
LINE
8
имена пинов
10
406.385
20
327.576
11
406.577
21
327.529
0
LINE
8
имена пинов
10
406.577
20
327.529
11
406.720
21
327.386
0
LINE
8
имена пинов
10
406.720
20
327.386
11
406.767
21
327.194
0
LINE
8
имена пинов
10
406.767
20
327.194
11
406.767
21
327.050
0
LINE
8
имена пинов
10
406.767
20
327.050
11
406.720
21
326.907
0
LINE
8
имена пинов
10
406.720
20
326.907
11
405.811
21
325.425
0
LINE
8
имена пинов
10
405.811
20
325.425
11
406.767
21
325.425
0
LINE
8
имена пинов
10
405.859
20
323.177
11
406.385
21
323.177
0
LINE
8
имена пинов
10
406.385
20
323.177
11
406.528
21
323.129
0
LINE
8
имена пинов
10
406.528
20
323.129
11
406.672
21
322.985
0
LINE
8
имена пинов
10
406.672
20
322.985
11
406.720
21
322.842
0
LINE
8
имена пинов
10
406.720
20
322.842
11
406.720
21
322.555
0
LINE
8
имена пинов
10
406.720
20
322.555
11
406.672
21
322.411
0
LINE
8
имена пинов
10
406.672
20
322.411
11
406.528
21
322.268
0
LINE
8
имена пинов
10
406.528
20
322.268
11
406.385
21
322.219
0
LINE
8
имена пинов
10
406.146
20
322.219
11
406.338
21
322.219
0
LINE
8
имена пинов
10
406.338
20
322.219
11
406.528
21
322.172
0
LINE
8
имена пинов
10
406.528
20
322.172
11
406.672
21
322.029
0
LINE
8
имена пинов
10
406.672
20
322.029
11
406.720
21
321.885
0
LINE
8
имена пинов
10
406.720
20
321.885
11
406.720
21
321.360
0
LINE
8
имена пинов
10
406.720
20
321.360
11
406.672
21
321.216
0
LINE
8
имена пинов
10
406.672
20
321.216
11
406.528
21
321.073
0
LINE
8
имена пинов
10
406.528
20
321.073
11
406.385
21
321.024
0
LINE
8
имена пинов
10
406.385
20
321.024
11
405.859
21
321.024
0
LINE
8
имена пинов
10
419.282
20
323.252
11
418.898
21
321.578
0
LINE
8
имена пинов
10
418.898
20
321.578
11
419.903
21
321.578
0
LINE
8
имена пинов
10
419.616
20
322.057
11
419.616
21
321.100
0
LINE
8
имена пинов
10
419.809
20
327.652
11
418.899
21
327.652
0
LINE
8
имена пинов
10
418.899
20
327.652
11
418.899
21
326.696
0
LINE
8
имена пинов
10
418.899
20
326.696
11
419.473
21
326.696
0
LINE
8
имена пинов
10
419.473
20
326.696
11
419.617
21
326.648
0
LINE
8
имена пинов
10
419.617
20
326.648
11
419.760
21
326.504
0
LINE
8
имена пинов
10
419.760
20
326.504
11
419.809
21
326.361
0
LINE
8
имена пинов
10
419.809
20
326.361
11
419.809
21
325.835
0
LINE
8
имена пинов
10
419.809
20
325.835
11
419.760
21
325.692
0
LINE
8
имена пинов
10
419.760
20
325.692
11
419.617
21
325.548
0
LINE
8
имена пинов
10
419.617
20
325.548
11
419.473
21
325.501
0
LINE
8
имена пинов
10
419.473
20
325.501
11
418.899
21
325.501
0
LINE
8
имена пинов
10
419.520
20
332.052
11
419.233
21
331.861
0
LINE
8
имена пинов
10
419.233
20
331.861
11
418.995
21
331.526
0
LINE
8
имена пинов
10
418.995
20
331.526
11
418.898
21
331.191
0
LINE
8
имена пинов
10
418.898
20
331.191
11
418.898
21
330.234
0
LINE
8
имена пинов
10
418.898
20
330.234
11
418.946
21
330.091
0
LINE
8
имена пинов
10
418.946
20
330.091
11
419.090
21
329.947
0
LINE
8
имена пинов
10
419.090
20
329.947
11
419.233
21
329.900
0
LINE
8
имена пинов
10
419.233
20
329.900
11
419.520
21
329.900
0
LINE
8
имена пинов
10
419.520
20
329.900
11
419.664
21
329.947
0
LINE
8
имена пинов
10
419.664
20
329.947
11
419.807
21
330.091
0
LINE
8
имена пинов
10
419.807
20
330.091
11
419.854
21
330.234
0
LINE
8
имена пинов
10
419.854
20
330.234
11
419.854
21
330.760
0
LINE
8
имена пинов
10
419.854
20
330.760
11
419.807
21
330.904
0
LINE
8
имена пинов
10
419.807
20
330.904
11
419.664
21
331.047
0
LINE
8
имена пинов
10
419.664
20
331.047
11
419.520
21
331.095
0
LINE
8
имена пинов
10
419.520
20
331.095
11
418.898
21
331.095
0
ENDSEC
0
EOF
