0
SECTION
2
ENTITIES
0
LINE
8
безхозный
10
-39.000
20
13.000
11
-42.733
21
12.909
0
LINE
8
безхозный
10
-42.733
20
12.909
11
-46.353
21
12.638
0
LINE
8
безхозный
10
-46.353
20
12.638
11
-49.750
21
12.196
0
LINE
8
безхозный
10
-49.750
20
12.196
11
-52.820
21
11.596
0
LINE
8
безхозный
10
-52.820
20
11.596
11
-55.470
21
10.857
0
LINE
8
безхозный
10
-55.470
20
10.857
11
-57.620
21
10.000
0
LINE
8
безхозный
10
-57.620
20
10.000
11
-59.203
21
9.052
0
LINE
8
безхозный
10
-59.203
20
9.052
11
-60.173
21
8.042
0
LINE
8
безхозный
10
-60.173
20
8.042
11
-60.500
21
7.000
0
LINE
8
безхозный
10
-70.000
20
10.000
11
-70.608
21
9.947
0
LINE
8
безхозный
10
-70.608
20
9.947
11
-71.197
21
9.789
0
LINE
8
безхозный
10
-71.197
20
9.789
11
-71.750
21
9.531
0
LINE
8
безхозный
10
-71.750
20
9.531
11
-72.250
21
9.181
0
LINE
8
безхозный
10
-72.250
20
9.181
11
-72.681
21
8.750
0
LINE
8
безхозный
10
-72.681
20
8.750
11
-73.031
21
8.250
0
LINE
8
безхозный
10
-73.031
20
8.250
11
-73.289
21
7.697
0
LINE
8
безхозный
10
-73.289
20
7.697
11
-73.447
21
7.108
0
LINE
8
безхозный
10
-73.447
20
7.108
11
-73.500
21
6.500
0
LINE
8
безхозный
10
-73.500
20
6.500
11
-73.447
21
5.892
0
LINE
8
безхозный
10
-73.447
20
5.892
11
-73.289
21
5.303
0
LINE
8
безхозный
10
-73.289
20
5.303
11
-73.031
21
4.750
0
LINE
8
безхозный
10
-73.031
20
4.750
11
-72.681
21
4.250
0
LINE
8
безхозный
10
-72.681
20
4.250
11
-72.250
21
3.819
0
LINE
8
безхозный
10
-72.250
20
3.819
11
-71.750
21
3.469
0
LINE
8
безхозный
10
-71.750
20
3.469
11
-71.197
21
3.211
0
LINE
8
безхозный
10
-71.197
20
3.211
11
-70.608
21
3.053
0
LINE
8
безхозный
10
-70.608
20
3.053
11
-70.000
21
3.000
0
LINE
8
безхозный
10
-70.000
20
3.000
11
-69.392
21
3.053
0
LINE
8
безхозный
10
-69.392
20
3.053
11
-68.803
21
3.211
0
LINE
8
безхозный
10
-68.803
20
3.211
11
-68.250
21
3.469
0
LINE
8
безхозный
10
-68.250
20
3.469
11
-67.750
21
3.819
0
LINE
8
безхозный
10
-67.750
20
3.819
11
-67.319
21
4.250
0
LINE
8
безхозный
10
-67.319
20
4.250
11
-66.969
21
4.750
0
LINE
8
безхозный
10
-66.969
20
4.750
11
-66.711
21
5.303
0
LINE
8
безхозный
10
-66.711
20
5.303
11
-66.553
21
5.892
0
LINE
8
безхозный
10
-66.553
20
5.892
11
-66.500
21
6.500
0
LINE
8
безхозный
10
-66.500
20
6.500
11
-66.553
21
7.108
0
LINE
8
безхозный
10
-66.553
20
7.108
11
-66.711
21
7.697
0
LINE
8
безхозный
10
-66.711
20
7.697
11
-66.969
21
8.250
0
LINE
8
безхозный
10
-66.969
20
8.250
11
-67.319
21
8.750
0
LINE
8
безхозный
10
-67.319
20
8.750
11
-67.750
21
9.181
0
LINE
8
безхозный
10
-67.750
20
9.181
11
-68.250
21
9.531
0
LINE
8
безхозный
10
-68.250
20
9.531
11
-68.803
21
9.789
0
LINE
8
безхозный
10
-68.803
20
9.789
11
-69.392
21
9.947
0
LINE
8
безхозный
10
-69.392
20
9.947
11
-70.000
21
10.000
0
LINE
8
безхозный
10
-61.000
20
4.000
11
-60.392
21
3.947
0
LINE
8
безхозный
10
-60.392
20
3.947
11
-59.803
21
3.789
0
LINE
8
безхозный
10
-59.803
20
3.789
11
-59.250
21
3.531
0
LINE
8
безхозный
10
-59.250
20
3.531
11
-58.750
21
3.181
0
LINE
8
безхозный
10
-58.750
20
3.181
11
-58.319
21
2.750
0
LINE
8
безхозный
10
-58.319
20
2.750
11
-57.969
21
2.250
0
LINE
8
безхозный
10
-57.969
20
2.250
11
-57.711
21
1.697
0
LINE
8
безхозный
10
-57.711
20
1.697
11
-57.553
21
1.108
0
LINE
8
безхозный
10
-57.553
20
1.108
11
-57.500
21
0.500
0
LINE
8
безхозный
10
-57.500
20
0.500
11
-57.553
21
-0.108
0
LINE
8
безхозный
10
-57.553
20
-0.108
11
-57.711
21
-0.697
0
LINE
8
безхозный
10
-57.711
20
-0.697
11
-57.969
21
-1.250
0
LINE
8
безхозный
10
-57.969
20
-1.250
11
-58.319
21
-1.750
0
LINE
8
безхозный
10
-58.319
20
-1.750
11
-58.750
21
-2.181
0
LINE
8
безхозный
10
-58.750
20
-2.181
11
-59.250
21
-2.531
0
LINE
8
безхозный
10
-59.250
20
-2.531
11
-59.803
21
-2.789
0
LINE
8
безхозный
10
-59.803
20
-2.789
11
-60.392
21
-2.947
0
LINE
8
безхозный
10
-60.392
20
-2.947
11
-61.000
21
-3.000
0
LINE
8
безхозный
10
-61.000
20
-3.000
11
-61.608
21
-2.947
0
LINE
8
безхозный
10
-61.608
20
-2.947
11
-62.197
21
-2.789
0
LINE
8
безхозный
10
-62.197
20
-2.789
11
-62.750
21
-2.531
0
LINE
8
безхозный
10
-62.750
20
-2.531
11
-63.250
21
-2.181
0
LINE
8
безхозный
10
-63.250
20
-2.181
11
-63.681
21
-1.750
0
LINE
8
безхозный
10
-63.681
20
-1.750
11
-64.031
21
-1.250
0
LINE
8
безхозный
10
-64.031
20
-1.250
11
-64.289
21
-0.697
0
LINE
8
безхозный
10
-64.289
20
-0.697
11
-64.447
21
-0.108
0
LINE
8
безхозный
10
-64.447
20
-0.108
11
-64.500
21
0.500
0
LINE
8
безхозный
10
-64.500
20
0.500
11
-64.447
21
1.108
0
LINE
8
безхозный
10
-64.447
20
1.108
11
-64.289
21
1.697
0
LINE
8
безхозный
10
-64.289
20
1.697
11
-64.031
21
2.250
0
LINE
8
безхозный
10
-64.031
20
2.250
11
-63.681
21
2.750
0
LINE
8
безхозный
10
-63.681
20
2.750
11
-63.250
21
3.181
0
LINE
8
безхозный
10
-63.250
20
3.181
11
-62.750
21
3.531
0
LINE
8
безхозный
10
-62.750
20
3.531
11
-62.197
21
3.789
0
LINE
8
безхозный
10
-62.197
20
3.789
11
-61.608
21
3.947
0
LINE
8
безхозный
10
-61.608
20
3.947
11
-61.000
21
4.000
0
LINE
8
безхозный
10
-61.000
20
4.000
11
-61.000
21
4.000
0
ENDSEC
0
EOF
